SplineFontDB: 3.2
FontName: bangla5mb1
FullName: bangla5mb1
FamilyName: bangla5mb1
Weight: Regular
Copyright: Copyright 2022 The Noto Project Authors (https://github.com/notofonts/bengali)
Version: 2.003
ItalicAngle: 0
UnderlinePosition: -125
UnderlineWidth: 50
Ascent: 800
Descent: 200
InvalidEm: 0
sfntRevision: 0x000200c5
LayerCount: 2
Layer: 0 1 "Back" 1
Layer: 1 1 "Fore" 0
XUID: [1021 467 -1121320856 3934262]
StyleMap: 0x0040
FSType: 0
OS2Version: 4
OS2_WeightWidthSlopeOnly: 0
OS2_UseTypoMetrics: 1
CreationTime: 1499331109
ModificationTime: 1684143241
PfmFamily: 81
TTFWeight: 400
TTFWidth: 5
LineGap: 0
VLineGap: 0
Panose: 0 0 0 0 0 0 0 0 0 0
OS2TypoAscent: 917
OS2TypoAOffset: 0
OS2TypoDescent: -408
OS2TypoDOffset: 0
OS2TypoLinegap: 0
OS2WinAscent: 917
OS2WinAOffset: 0
OS2WinDescent: 408
OS2WinDOffset: 0
HheadAscent: 917
HheadAOffset: 0
HheadDescent: -408
HheadDOffset: 0
OS2SubXSize: 650
OS2SubYSize: 600
OS2SubXOff: 0
OS2SubYOff: 75
OS2SupXSize: 650
OS2SupYSize: 600
OS2SupXOff: 0
OS2SupYOff: 350
OS2StrikeYSize: 50
OS2StrikeYPos: 322
OS2CapHeight: 622
OS2XHeight: 536
OS2Vendor: 'GOOG'
OS2CodePages: 00000093.00000000
OS2UnicodeRanges: 80018023.00002042.00000000.00000000
Lookup: 1 0 0 "'aalt' Access All Alternates in Bengali2 lookup 0" { "'aalt' Access All Alternates in Bengali2 lookup 0 subtable"  } ['aalt' ('bng2' <'dflt' > 'latn' <'MOL ' 'ROM ' > ) ]
Lookup: 3 0 0 "'aalt' Access All Alternates in Bengali2 lookup 1" { "'aalt' Access All Alternates in Bengali2 lookup 1 subtable"  } ['aalt' ('bng2' <'dflt' > 'latn' <'MOL ' 'ROM ' > ) ]
Lookup: 4 0 0 "'vatu' Vattu Variants in Bengali2 lookup 2" { "'vatu' Vattu Variants in Bengali2 lookup 2 subtable"  } ['cjct' ('bng2' <'dflt' > ) 'vatu' ('bng2' <'dflt' > ) ]
Lookup: 4 0 0 "'pres' Pre Base Substitutions in Bengali2 lookup 3" { "'pres' Pre Base Substitutions in Bengali2 lookup 3 subtable"  } ['cjct' ('bng2' <'dflt' > ) 'pres' ('bng2' <'dflt' > ) ]

StartChar: exclam.beng
Encoding: 33 33 3
Width: 917
Flags: W
LayerCount: 2
Fore
SplineSet
430.5 201 m 1,0,-1
 405.5 714 l 1,1,-1
 512.5 714 l 1,2,-1
 487.5 201 l 1,3,-1
 430.5 201 l 1,0,-1
396.5 54 m 0,4,5
 396.5 91 396.5 91 414.5 106 c 128,-1,6
 432.5 121 432.5 121 458.5 121 c 0,7,8
 483.5 121 483.5 121 502 106 c 128,-1,9
 520.5 91 520.5 91 520.5 54 c 0,10,11
 520.5 18 520.5 18 502 2 c 128,-1,12
 483.5 -14 483.5 -14 458.5 -14 c 0,13,14
 432.5 -14 432.5 -14 414.5 2 c 128,-1,15
 396.5 18 396.5 18 396.5 54 c 0,4,5
EndSplineSet
EndChar

StartChar: quotedbl.beng
Encoding: 34 34 4
Width: 917
Flags: W
LayerCount: 2
Fore
SplineSet
340.5 471 m 1,0,-1
 315.5 729 l 1,1,-1
 426.5 729 l 1,2,-1
 401.5 471 l 1,3,-1
 340.5 471 l 1,0,-1
516.5 471 m 1,4,-1
 491.5 729 l 1,5,-1
 601.5 729 l 1,6,-1
 576.5 471 l 1,7,-1
 516.5 471 l 1,4,-1
EndSplineSet
EndChar

StartChar: numbersign.beng
Encoding: 35 35 5
Width: 917
Flags: W
LayerCount: 2
Fore
SplineSet
291 176 m 1,0,-1
 166 176 l 1,1,-1
 166 242 l 1,2,-1
 303 242 l 1,3,-1
 334 394 l 1,4,-1
 202 394 l 1,5,-1
 202 459 l 1,6,-1
 345 459 l 1,7,-1
 379 632 l 1,8,-1
 449 632 l 1,9,-1
 416 459 l 1,10,-1
 556 459 l 1,11,-1
 590 632 l 1,12,-1
 659 632 l 1,13,-1
 625 459 l 1,14,-1
 751 459 l 1,15,-1
 751 394 l 1,16,-1
 612 394 l 1,17,-1
 583 242 l 1,18,-1
 716 242 l 1,19,-1
 716 176 l 1,20,-1
 570 176 l 1,21,-1
 536 0 l 1,22,-1
 466 0 l 1,23,-1
 501 176 l 1,24,-1
 361 176 l 1,25,-1
 327 0 l 1,26,-1
 258 0 l 1,27,-1
 291 176 l 1,0,-1
513 242 m 1,28,-1
 543 394 l 1,29,-1
 403 394 l 1,30,-1
 374 242 l 1,31,-1
 513 242 l 1,28,-1
EndSplineSet
EndChar

StartChar: percent.beng
Encoding: 37 37 6
Width: 917
Flags: W
LayerCount: 2
Fore
SplineSet
614 622 m 1,0,-1
 691 622 l 1,1,-1
 306 0 l 1,2,-1
 228 0 l 1,3,-1
 614 622 l 1,0,-1
247 271 m 0,4,5
 176 271 176 271 139 319 c 128,-1,6
 102 367 102 367 102 452 c 0,7,8
 102 538 102 538 136.5 585 c 128,-1,9
 171 632 171 632 247 632 c 0,10,11
 319 632 319 632 356.5 585 c 128,-1,12
 394 538 394 538 394 452 c 0,13,14
 394 367 394 367 359 319 c 128,-1,15
 324 271 324 271 247 271 c 0,4,5
246 334 m 256,16,17
 284 334 284 334 302.5 364 c 128,-1,18
 321 394 321 394 321 452 c 0,19,20
 321 511 321 511 302.5 540 c 128,-1,21
 284 569 284 569 246 569 c 256,22,23
 208 569 208 569 191 540 c 128,-1,24
 174 511 174 511 174 452 c 0,25,26
 174 394 174 394 191 364 c 128,-1,27
 208 334 208 334 246 334 c 256,16,17
669 -10 m 0,28,29
 597 -10 597 -10 560.5 38.5 c 128,-1,30
 524 87 524 87 524 171 c 0,31,32
 524 257 524 257 558.5 304.5 c 128,-1,33
 593 352 593 352 669 352 c 0,34,35
 742 352 742 352 778.5 304.5 c 128,-1,36
 815 257 815 257 815 171 c 0,37,38
 815 87 815 87 780.5 38.5 c 128,-1,39
 746 -10 746 -10 669 -10 c 0,28,29
669 55 m 256,40,41
 707 55 707 55 725.5 84 c 128,-1,42
 744 113 744 113 744 171 c 0,43,44
 744 230 744 230 725.5 259.5 c 128,-1,45
 707 289 707 289 669 289 c 256,46,47
 631 289 631 289 614 259.5 c 128,-1,48
 597 230 597 230 597 171 c 0,49,50
 597 113 597 113 614 84 c 128,-1,51
 631 55 631 55 669 55 c 256,40,41
EndSplineSet
EndChar

StartChar: quotesingle.beng
Encoding: 39 39 7
Width: 917
Flags: W
LayerCount: 2
Fore
SplineSet
428 471 m 1,0,-1
 403 729 l 1,1,-1
 514 729 l 1,2,-1
 489 471 l 1,3,-1
 428 471 l 1,0,-1
EndSplineSet
EndChar

StartChar: parenleft.beng
Encoding: 40 40 8
Width: 917
Flags: W
LayerCount: 2
Fore
SplineSet
490 -135 m 1,0,1
 417 -39 417 -39 381 83 c 128,-1,2
 345 205 345 205 345 332 c 0,3,4
 345 461 345 461 381 579.5 c 128,-1,5
 417 698 417 698 490 792 c 1,6,-1
 571 792 l 1,7,8
 504 694 504 694 467.5 575 c 128,-1,9
 431 456 431 456 431 331 c 0,10,11
 431 204 431 204 466.5 85 c 128,-1,12
 502 -34 502 -34 572 -135 c 1,13,-1
 490 -135 l 1,0,1
EndSplineSet
EndChar

StartChar: parenright.beng
Encoding: 41 41 9
Width: 917
Flags: W
LayerCount: 2
Fore
SplineSet
346 -135 m 1,0,1
 414 -37 414 -37 450 80.5 c 128,-1,2
 486 198 486 198 486 325 c 0,3,4
 486 453 486 453 450.5 572 c 128,-1,5
 415 691 415 691 345 792 c 1,6,-1
 427 792 l 1,7,8
 501 696 501 696 536.5 574 c 128,-1,9
 572 452 572 452 572 324 c 256,10,11
 572 196 572 196 536.5 77.5 c 128,-1,12
 501 -41 501 -41 427 -135 c 1,13,-1
 346 -135 l 1,0,1
EndSplineSet
EndChar

StartChar: asterisk.beng
Encoding: 42 42 10
Width: 917
Flags: W
LayerCount: 2
Fore
SplineSet
288.5 340 m 1,0,-1
 406.5 499 l 1,1,-1
 223.5 513 l 1,2,-1
 237.5 607 l 1,3,-1
 428.5 553 l 1,4,-1
 407.5 745 l 1,5,-1
 507.5 745 l 1,6,-1
 486.5 553 l 1,7,-1
 680.5 607 l 1,8,-1
 693.5 513 l 1,9,-1
 508.5 499 l 1,10,-1
 628.5 340 l 1,11,-1
 541.5 293 l 1,12,-1
 455.5 468 l 1,13,-1
 378.5 293 l 1,14,-1
 288.5 340 l 1,0,-1
EndSplineSet
EndChar

StartChar: plus.beng
Encoding: 43 43 11
Width: 917
Flags: W
LayerCount: 2
Fore
SplineSet
422 286 m 1,0,-1
 233 286 l 1,1,-1
 233 359 l 1,2,-1
 422 359 l 1,3,-1
 422 548 l 1,4,-1
 495 548 l 1,5,-1
 495 359 l 1,6,-1
 684 359 l 1,7,-1
 684 286 l 1,8,-1
 495 286 l 1,9,-1
 495 97 l 1,10,-1
 422 97 l 1,11,-1
 422 286 l 1,0,-1
EndSplineSet
EndChar

StartChar: comma.beng
Encoding: 44 44 12
Width: 917
Flags: W
LayerCount: 2
Fore
SplineSet
527 116 m 1,0,-1
 534 105 l 1,1,2
 525 70 525 70 511.5 32 c 128,-1,3
 498 -6 498 -6 482.5 -44 c 128,-1,4
 467 -82 467 -82 450 -119 c 1,5,-1
 383 -119 l 1,6,7
 398 -60 398 -60 410.5 2 c 128,-1,8
 423 64 423 64 430 116 c 1,9,-1
 527 116 l 1,0,-1
EndSplineSet
EndChar

StartChar: hyphen.beng
Encoding: 45 45 13
Width: 917
Flags: W
LayerCount: 2
Fore
SplineSet
337.5 338 m 1,0,-1
 579.5 338 l 1,1,-1
 579.5 256 l 1,2,-1
 337.5 256 l 1,3,-1
 337.5 338 l 1,0,-1
EndSplineSet
EndChar

StartChar: period.beng
Encoding: 46 46 14
Width: 917
Flags: W
LayerCount: 2
Fore
SplineSet
396.5 54 m 0,0,1
 396.5 91 396.5 91 414.5 106 c 128,-1,2
 432.5 121 432.5 121 457.5 121 c 0,3,4
 483.5 121 483.5 121 502 106 c 128,-1,5
 520.5 91 520.5 91 520.5 54 c 0,6,7
 520.5 18 520.5 18 502 2 c 128,-1,8
 483.5 -14 483.5 -14 457.5 -14 c 0,9,10
 432.5 -14 432.5 -14 414.5 2 c 128,-1,11
 396.5 18 396.5 18 396.5 54 c 0,0,1
EndSplineSet
EndChar

StartChar: slash.beng
Encoding: 47 47 15
Width: 917
Flags: W
LayerCount: 2
Fore
SplineSet
549 792 m 1,0,-1
 631 792 l 1,1,-1
 369 -125 l 1,2,-1
 286 -125 l 1,3,-1
 549 792 l 1,0,-1
EndSplineSet
EndChar

StartChar: zero.beng
Encoding: 48 48 16
Width: 917
Flags: W
LayerCount: 2
Fore
SplineSet
253 85 m 0,0,1
 253 103 253 103 268.5 118 c 128,-1,2
 284 133 284 133 312 144.5 c 128,-1,3
 340 156 340 156 377.5 162.5 c 128,-1,4
 415 169 415 169 458 169 c 0,5,6
 502 169 502 169 539.5 162.5 c 128,-1,7
 577 156 577 156 604.5 144.5 c 128,-1,8
 632 133 632 133 648 118 c 128,-1,9
 664 103 664 103 664 85 c 0,10,11
 664 68 664 68 648 53 c 128,-1,12
 632 38 632 38 604.5 27 c 128,-1,13
 577 16 577 16 539.5 9.5 c 128,-1,14
 502 3 502 3 458 3 c 0,15,16
 415 3 415 3 377.5 9.5 c 128,-1,17
 340 16 340 16 312 27 c 128,-1,18
 284 38 284 38 268.5 53 c 128,-1,19
 253 68 253 68 253 85 c 0,0,1
333 85 m 256,20,21
 333 74 333 74 342.5 64.5 c 128,-1,22
 352 55 352 55 369 48.5 c 128,-1,23
 386 42 386 42 409 38 c 128,-1,24
 432 34 432 34 458 34 c 0,25,26
 485 34 485 34 507.5 38 c 128,-1,27
 530 42 530 42 547 48.5 c 128,-1,28
 564 55 564 55 573.5 64.5 c 128,-1,29
 583 74 583 74 583 85 c 256,30,31
 583 96 583 96 573.5 105.5 c 128,-1,32
 564 115 564 115 547 122 c 128,-1,33
 530 129 530 129 507.5 133 c 128,-1,34
 485 137 485 137 458 137 c 0,35,36
 432 137 432 137 409 133 c 128,-1,37
 386 129 386 129 369 122 c 128,-1,38
 352 115 352 115 342.5 105.5 c 128,-1,39
 333 96 333 96 333 85 c 256,20,21
253 272 m 0,40,41
 253 290 253 290 268.5 305 c 128,-1,42
 284 320 284 320 312 331.5 c 128,-1,43
 340 343 340 343 377.5 349 c 128,-1,44
 415 355 415 355 458 355 c 0,45,46
 502 355 502 355 539.5 349 c 128,-1,47
 577 343 577 343 604.5 331.5 c 128,-1,48
 632 320 632 320 648 305 c 128,-1,49
 664 290 664 290 664 272 c 0,50,51
 664 255 664 255 648 240 c 128,-1,52
 632 225 632 225 604.5 214 c 128,-1,53
 577 203 577 203 539.5 196 c 128,-1,54
 502 189 502 189 458 189 c 0,55,56
 415 189 415 189 377.5 196 c 128,-1,57
 340 203 340 203 312 214 c 128,-1,58
 284 225 284 225 268.5 240 c 128,-1,59
 253 255 253 255 253 272 c 0,40,41
333 272 m 256,60,61
 333 261 333 261 342.5 251.5 c 128,-1,62
 352 242 352 242 369 235 c 128,-1,63
 386 228 386 228 409 224 c 128,-1,64
 432 220 432 220 458 220 c 0,65,66
 485 220 485 220 507.5 224 c 128,-1,67
 530 228 530 228 547 235 c 128,-1,68
 564 242 564 242 573.5 251.5 c 128,-1,69
 583 261 583 261 583 272 c 256,70,71
 583 283 583 283 573.5 292.5 c 128,-1,72
 564 302 564 302 547 309 c 128,-1,73
 530 316 530 316 507.5 320 c 128,-1,74
 485 324 485 324 458 324 c 0,75,76
 432 324 432 324 409 320 c 128,-1,77
 386 316 386 316 369 309 c 128,-1,78
 352 302 352 302 342.5 292.5 c 128,-1,79
 333 283 333 283 333 272 c 256,60,61
253 461 m 256,80,81
 253 478 253 478 268.5 493.5 c 128,-1,82
 284 509 284 509 312 520 c 128,-1,83
 340 531 340 531 377.5 537.5 c 128,-1,84
 415 544 415 544 458 544 c 0,85,86
 502 544 502 544 539.5 537.5 c 128,-1,87
 577 531 577 531 604.5 520 c 128,-1,88
 632 509 632 509 648 493.5 c 128,-1,89
 664 478 664 478 664 461 c 256,90,91
 664 444 664 444 648 429 c 128,-1,92
 632 414 632 414 604.5 402.5 c 128,-1,93
 577 391 577 391 539.5 384.5 c 128,-1,94
 502 378 502 378 458 378 c 0,95,96
 415 378 415 378 377.5 384.5 c 128,-1,97
 340 391 340 391 312 402.5 c 128,-1,98
 284 414 284 414 268.5 429 c 128,-1,99
 253 444 253 444 253 461 c 256,80,81
333 461 m 256,100,101
 333 450 333 450 342.5 440.5 c 128,-1,102
 352 431 352 431 369 424 c 128,-1,103
 386 417 386 417 409 413 c 128,-1,104
 432 409 432 409 458 409 c 0,105,106
 485 409 485 409 507.5 413 c 128,-1,107
 530 417 530 417 547 424 c 128,-1,108
 564 431 564 431 573.5 440.5 c 128,-1,109
 583 450 583 450 583 461 c 256,110,111
 583 472 583 472 573.5 481.5 c 128,-1,112
 564 491 564 491 547 498 c 128,-1,113
 530 505 530 505 507.5 509 c 128,-1,114
 485 513 485 513 458 513 c 0,115,116
 432 513 432 513 409 509 c 128,-1,117
 386 505 386 505 369 498 c 128,-1,118
 352 491 352 491 342.5 481.5 c 128,-1,119
 333 472 333 472 333 461 c 256,100,101
253 648 m 256,120,121
 253 665 253 665 268.5 680.5 c 128,-1,122
 284 696 284 696 312 707 c 128,-1,123
 340 718 340 718 377.5 724.5 c 128,-1,124
 415 731 415 731 458 731 c 0,125,126
 502 731 502 731 539.5 724.5 c 128,-1,127
 577 718 577 718 604.5 707 c 128,-1,128
 632 696 632 696 648 680.5 c 128,-1,129
 664 665 664 665 664 648 c 256,130,131
 664 631 664 631 648 616 c 128,-1,132
 632 601 632 601 604.5 589.5 c 128,-1,133
 577 578 577 578 539.5 571.5 c 128,-1,134
 502 565 502 565 458 565 c 0,135,136
 415 565 415 565 377.5 571.5 c 128,-1,137
 340 578 340 578 312 589.5 c 128,-1,138
 284 601 284 601 268.5 616 c 128,-1,139
 253 631 253 631 253 648 c 256,120,121
333 648 m 0,140,141
 333 637 333 637 342.5 627.5 c 128,-1,142
 352 618 352 618 369 611 c 128,-1,143
 386 604 386 604 409 600 c 128,-1,144
 432 596 432 596 458 596 c 0,145,146
 485 596 485 596 507.5 600 c 128,-1,147
 530 604 530 604 547 611 c 128,-1,148
 564 618 564 618 573.5 627.5 c 128,-1,149
 583 637 583 637 583 648 c 0,150,151
 583 658 583 658 573.5 668 c 128,-1,152
 564 678 564 678 547 685 c 128,-1,153
 530 692 530 692 507.5 696 c 128,-1,154
 485 700 485 700 458 700 c 0,155,156
 432 700 432 700 409 696 c 128,-1,157
 386 692 386 692 369 685 c 128,-1,158
 352 678 352 678 342.5 668 c 128,-1,159
 333 658 333 658 333 648 c 0,140,141
EndSplineSet
EndChar

StartChar: one.beng
Encoding: 49 49 17
Width: 917
Flags: W
LayerCount: 2
Fore
SplineSet
253 85 m 0,0,1
 253 103 253 103 268.5 118 c 128,-1,2
 284 133 284 133 312 144.5 c 128,-1,3
 340 156 340 156 377.5 162.5 c 128,-1,4
 415 169 415 169 458 169 c 0,5,6
 502 169 502 169 539.5 162.5 c 128,-1,7
 577 156 577 156 604.5 144.5 c 128,-1,8
 632 133 632 133 648 118 c 128,-1,9
 664 103 664 103 664 85 c 0,10,11
 664 68 664 68 648 53 c 128,-1,12
 632 38 632 38 604.5 27 c 128,-1,13
 577 16 577 16 539.5 9.5 c 128,-1,14
 502 3 502 3 458 3 c 0,15,16
 415 3 415 3 377.5 9.5 c 128,-1,17
 340 16 340 16 312 27 c 128,-1,18
 284 38 284 38 268.5 53 c 128,-1,19
 253 68 253 68 253 85 c 0,0,1
253 272 m 0,20,21
 253 290 253 290 268.5 305 c 128,-1,22
 284 320 284 320 312 331.5 c 128,-1,23
 340 343 340 343 377.5 349 c 128,-1,24
 415 355 415 355 458 355 c 0,25,26
 502 355 502 355 539.5 349 c 128,-1,27
 577 343 577 343 604.5 331.5 c 128,-1,28
 632 320 632 320 648 305 c 128,-1,29
 664 290 664 290 664 272 c 0,30,31
 664 255 664 255 648 240 c 128,-1,32
 632 225 632 225 604.5 214 c 128,-1,33
 577 203 577 203 539.5 196 c 128,-1,34
 502 189 502 189 458 189 c 0,35,36
 415 189 415 189 377.5 196 c 128,-1,37
 340 203 340 203 312 214 c 128,-1,38
 284 225 284 225 268.5 240 c 128,-1,39
 253 255 253 255 253 272 c 0,20,21
333 272 m 256,40,41
 333 261 333 261 342.5 251.5 c 128,-1,42
 352 242 352 242 369 235 c 128,-1,43
 386 228 386 228 409 224 c 128,-1,44
 432 220 432 220 458 220 c 0,45,46
 485 220 485 220 507.5 224 c 128,-1,47
 530 228 530 228 547 235 c 128,-1,48
 564 242 564 242 573.5 251.5 c 128,-1,49
 583 261 583 261 583 272 c 256,50,51
 583 283 583 283 573.5 292.5 c 128,-1,52
 564 302 564 302 547 309 c 128,-1,53
 530 316 530 316 507.5 320 c 128,-1,54
 485 324 485 324 458 324 c 0,55,56
 432 324 432 324 409 320 c 128,-1,57
 386 316 386 316 369 309 c 128,-1,58
 352 302 352 302 342.5 292.5 c 128,-1,59
 333 283 333 283 333 272 c 256,40,41
253 461 m 256,60,61
 253 478 253 478 268.5 493.5 c 128,-1,62
 284 509 284 509 312 520 c 128,-1,63
 340 531 340 531 377.5 537.5 c 128,-1,64
 415 544 415 544 458 544 c 0,65,66
 502 544 502 544 539.5 537.5 c 128,-1,67
 577 531 577 531 604.5 520 c 128,-1,68
 632 509 632 509 648 493.5 c 128,-1,69
 664 478 664 478 664 461 c 256,70,71
 664 444 664 444 648 429 c 128,-1,72
 632 414 632 414 604.5 402.5 c 128,-1,73
 577 391 577 391 539.5 384.5 c 128,-1,74
 502 378 502 378 458 378 c 0,75,76
 415 378 415 378 377.5 384.5 c 128,-1,77
 340 391 340 391 312 402.5 c 128,-1,78
 284 414 284 414 268.5 429 c 128,-1,79
 253 444 253 444 253 461 c 256,60,61
333 461 m 256,80,81
 333 450 333 450 342.5 440.5 c 128,-1,82
 352 431 352 431 369 424 c 128,-1,83
 386 417 386 417 409 413 c 128,-1,84
 432 409 432 409 458 409 c 0,85,86
 485 409 485 409 507.5 413 c 128,-1,87
 530 417 530 417 547 424 c 128,-1,88
 564 431 564 431 573.5 440.5 c 128,-1,89
 583 450 583 450 583 461 c 256,90,91
 583 472 583 472 573.5 481.5 c 128,-1,92
 564 491 564 491 547 498 c 128,-1,93
 530 505 530 505 507.5 509 c 128,-1,94
 485 513 485 513 458 513 c 0,95,96
 432 513 432 513 409 509 c 128,-1,97
 386 505 386 505 369 498 c 128,-1,98
 352 491 352 491 342.5 481.5 c 128,-1,99
 333 472 333 472 333 461 c 256,80,81
253 648 m 256,100,101
 253 665 253 665 268.5 680.5 c 128,-1,102
 284 696 284 696 312 707 c 128,-1,103
 340 718 340 718 377.5 724.5 c 128,-1,104
 415 731 415 731 458 731 c 0,105,106
 502 731 502 731 539.5 724.5 c 128,-1,107
 577 718 577 718 604.5 707 c 128,-1,108
 632 696 632 696 648 680.5 c 128,-1,109
 664 665 664 665 664 648 c 256,110,111
 664 631 664 631 648 616 c 128,-1,112
 632 601 632 601 604.5 589.5 c 128,-1,113
 577 578 577 578 539.5 571.5 c 128,-1,114
 502 565 502 565 458 565 c 0,115,116
 415 565 415 565 377.5 571.5 c 128,-1,117
 340 578 340 578 312 589.5 c 128,-1,118
 284 601 284 601 268.5 616 c 128,-1,119
 253 631 253 631 253 648 c 256,100,101
333 648 m 0,120,121
 333 637 333 637 342.5 627.5 c 128,-1,122
 352 618 352 618 369 611 c 128,-1,123
 386 604 386 604 409 600 c 128,-1,124
 432 596 432 596 458 596 c 0,125,126
 485 596 485 596 507.5 600 c 128,-1,127
 530 604 530 604 547 611 c 128,-1,128
 564 618 564 618 573.5 627.5 c 128,-1,129
 583 637 583 637 583 648 c 0,130,131
 583 658 583 658 573.5 668 c 128,-1,132
 564 678 564 678 547 685 c 128,-1,133
 530 692 530 692 507.5 696 c 128,-1,134
 485 700 485 700 458 700 c 0,135,136
 432 700 432 700 409 696 c 128,-1,137
 386 692 386 692 369 685 c 128,-1,138
 352 678 352 678 342.5 668 c 128,-1,139
 333 658 333 658 333 648 c 0,120,121
EndSplineSet
EndChar

StartChar: two.beng
Encoding: 50 50 18
Width: 917
Flags: W
LayerCount: 2
Fore
SplineSet
253 85 m 0,0,1
 253 103 253 103 268.5 118 c 128,-1,2
 284 133 284 133 312 144.5 c 128,-1,3
 340 156 340 156 377.5 162.5 c 128,-1,4
 415 169 415 169 458 169 c 0,5,6
 502 169 502 169 539.5 162.5 c 128,-1,7
 577 156 577 156 604.5 144.5 c 128,-1,8
 632 133 632 133 648 118 c 128,-1,9
 664 103 664 103 664 85 c 0,10,11
 664 68 664 68 648 53 c 128,-1,12
 632 38 632 38 604.5 27 c 128,-1,13
 577 16 577 16 539.5 9.5 c 128,-1,14
 502 3 502 3 458 3 c 0,15,16
 415 3 415 3 377.5 9.5 c 128,-1,17
 340 16 340 16 312 27 c 128,-1,18
 284 38 284 38 268.5 53 c 128,-1,19
 253 68 253 68 253 85 c 0,0,1
333 85 m 256,20,21
 333 74 333 74 342.5 64.5 c 128,-1,22
 352 55 352 55 369 48.5 c 128,-1,23
 386 42 386 42 409 38 c 128,-1,24
 432 34 432 34 458 34 c 0,25,26
 485 34 485 34 507.5 38 c 128,-1,27
 530 42 530 42 547 48.5 c 128,-1,28
 564 55 564 55 573.5 64.5 c 128,-1,29
 583 74 583 74 583 85 c 256,30,31
 583 96 583 96 573.5 105.5 c 128,-1,32
 564 115 564 115 547 122 c 128,-1,33
 530 129 530 129 507.5 133 c 128,-1,34
 485 137 485 137 458 137 c 0,35,36
 432 137 432 137 409 133 c 128,-1,37
 386 129 386 129 369 122 c 128,-1,38
 352 115 352 115 342.5 105.5 c 128,-1,39
 333 96 333 96 333 85 c 256,20,21
253 272 m 0,40,41
 253 290 253 290 268.5 305 c 128,-1,42
 284 320 284 320 312 331.5 c 128,-1,43
 340 343 340 343 377.5 349 c 128,-1,44
 415 355 415 355 458 355 c 0,45,46
 502 355 502 355 539.5 349 c 128,-1,47
 577 343 577 343 604.5 331.5 c 128,-1,48
 632 320 632 320 648 305 c 128,-1,49
 664 290 664 290 664 272 c 0,50,51
 664 255 664 255 648 240 c 128,-1,52
 632 225 632 225 604.5 214 c 128,-1,53
 577 203 577 203 539.5 196 c 128,-1,54
 502 189 502 189 458 189 c 0,55,56
 415 189 415 189 377.5 196 c 128,-1,57
 340 203 340 203 312 214 c 128,-1,58
 284 225 284 225 268.5 240 c 128,-1,59
 253 255 253 255 253 272 c 0,40,41
253 461 m 256,60,61
 253 478 253 478 268.5 493.5 c 128,-1,62
 284 509 284 509 312 520 c 128,-1,63
 340 531 340 531 377.5 537.5 c 128,-1,64
 415 544 415 544 458 544 c 0,65,66
 502 544 502 544 539.5 537.5 c 128,-1,67
 577 531 577 531 604.5 520 c 128,-1,68
 632 509 632 509 648 493.5 c 128,-1,69
 664 478 664 478 664 461 c 256,70,71
 664 444 664 444 648 429 c 128,-1,72
 632 414 632 414 604.5 402.5 c 128,-1,73
 577 391 577 391 539.5 384.5 c 128,-1,74
 502 378 502 378 458 378 c 0,75,76
 415 378 415 378 377.5 384.5 c 128,-1,77
 340 391 340 391 312 402.5 c 128,-1,78
 284 414 284 414 268.5 429 c 128,-1,79
 253 444 253 444 253 461 c 256,60,61
333 461 m 256,80,81
 333 450 333 450 342.5 440.5 c 128,-1,82
 352 431 352 431 369 424 c 128,-1,83
 386 417 386 417 409 413 c 128,-1,84
 432 409 432 409 458 409 c 0,85,86
 485 409 485 409 507.5 413 c 128,-1,87
 530 417 530 417 547 424 c 128,-1,88
 564 431 564 431 573.5 440.5 c 128,-1,89
 583 450 583 450 583 461 c 256,90,91
 583 472 583 472 573.5 481.5 c 128,-1,92
 564 491 564 491 547 498 c 128,-1,93
 530 505 530 505 507.5 509 c 128,-1,94
 485 513 485 513 458 513 c 0,95,96
 432 513 432 513 409 509 c 128,-1,97
 386 505 386 505 369 498 c 128,-1,98
 352 491 352 491 342.5 481.5 c 128,-1,99
 333 472 333 472 333 461 c 256,80,81
253 648 m 256,100,101
 253 665 253 665 268.5 680.5 c 128,-1,102
 284 696 284 696 312 707 c 128,-1,103
 340 718 340 718 377.5 724.5 c 128,-1,104
 415 731 415 731 458 731 c 0,105,106
 502 731 502 731 539.5 724.5 c 128,-1,107
 577 718 577 718 604.5 707 c 128,-1,108
 632 696 632 696 648 680.5 c 128,-1,109
 664 665 664 665 664 648 c 256,110,111
 664 631 664 631 648 616 c 128,-1,112
 632 601 632 601 604.5 589.5 c 128,-1,113
 577 578 577 578 539.5 571.5 c 128,-1,114
 502 565 502 565 458 565 c 0,115,116
 415 565 415 565 377.5 571.5 c 128,-1,117
 340 578 340 578 312 589.5 c 128,-1,118
 284 601 284 601 268.5 616 c 128,-1,119
 253 631 253 631 253 648 c 256,100,101
333 648 m 0,120,121
 333 637 333 637 342.5 627.5 c 128,-1,122
 352 618 352 618 369 611 c 128,-1,123
 386 604 386 604 409 600 c 128,-1,124
 432 596 432 596 458 596 c 0,125,126
 485 596 485 596 507.5 600 c 128,-1,127
 530 604 530 604 547 611 c 128,-1,128
 564 618 564 618 573.5 627.5 c 128,-1,129
 583 637 583 637 583 648 c 0,130,131
 583 658 583 658 573.5 668 c 128,-1,132
 564 678 564 678 547 685 c 128,-1,133
 530 692 530 692 507.5 696 c 128,-1,134
 485 700 485 700 458 700 c 0,135,136
 432 700 432 700 409 696 c 128,-1,137
 386 692 386 692 369 685 c 128,-1,138
 352 678 352 678 342.5 668 c 128,-1,139
 333 658 333 658 333 648 c 0,120,121
EndSplineSet
EndChar

StartChar: three.beng
Encoding: 51 51 19
Width: 917
Flags: W
LayerCount: 2
Fore
SplineSet
253 85 m 0,0,1
 253 103 253 103 268.5 118 c 128,-1,2
 284 133 284 133 312 144.5 c 128,-1,3
 340 156 340 156 377.5 162.5 c 128,-1,4
 415 169 415 169 458 169 c 0,5,6
 502 169 502 169 539.5 162.5 c 128,-1,7
 577 156 577 156 604.5 144.5 c 128,-1,8
 632 133 632 133 648 118 c 128,-1,9
 664 103 664 103 664 85 c 0,10,11
 664 68 664 68 648 53 c 128,-1,12
 632 38 632 38 604.5 27 c 128,-1,13
 577 16 577 16 539.5 9.5 c 128,-1,14
 502 3 502 3 458 3 c 0,15,16
 415 3 415 3 377.5 9.5 c 128,-1,17
 340 16 340 16 312 27 c 128,-1,18
 284 38 284 38 268.5 53 c 128,-1,19
 253 68 253 68 253 85 c 0,0,1
253 272 m 0,20,21
 253 290 253 290 268.5 305 c 128,-1,22
 284 320 284 320 312 331.5 c 128,-1,23
 340 343 340 343 377.5 349 c 128,-1,24
 415 355 415 355 458 355 c 0,25,26
 502 355 502 355 539.5 349 c 128,-1,27
 577 343 577 343 604.5 331.5 c 128,-1,28
 632 320 632 320 648 305 c 128,-1,29
 664 290 664 290 664 272 c 0,30,31
 664 255 664 255 648 240 c 128,-1,32
 632 225 632 225 604.5 214 c 128,-1,33
 577 203 577 203 539.5 196 c 128,-1,34
 502 189 502 189 458 189 c 0,35,36
 415 189 415 189 377.5 196 c 128,-1,37
 340 203 340 203 312 214 c 128,-1,38
 284 225 284 225 268.5 240 c 128,-1,39
 253 255 253 255 253 272 c 0,20,21
253 461 m 256,40,41
 253 478 253 478 268.5 493.5 c 128,-1,42
 284 509 284 509 312 520 c 128,-1,43
 340 531 340 531 377.5 537.5 c 128,-1,44
 415 544 415 544 458 544 c 0,45,46
 502 544 502 544 539.5 537.5 c 128,-1,47
 577 531 577 531 604.5 520 c 128,-1,48
 632 509 632 509 648 493.5 c 128,-1,49
 664 478 664 478 664 461 c 256,50,51
 664 444 664 444 648 429 c 128,-1,52
 632 414 632 414 604.5 402.5 c 128,-1,53
 577 391 577 391 539.5 384.5 c 128,-1,54
 502 378 502 378 458 378 c 0,55,56
 415 378 415 378 377.5 384.5 c 128,-1,57
 340 391 340 391 312 402.5 c 128,-1,58
 284 414 284 414 268.5 429 c 128,-1,59
 253 444 253 444 253 461 c 256,40,41
333 461 m 256,60,61
 333 450 333 450 342.5 440.5 c 128,-1,62
 352 431 352 431 369 424 c 128,-1,63
 386 417 386 417 409 413 c 128,-1,64
 432 409 432 409 458 409 c 0,65,66
 485 409 485 409 507.5 413 c 128,-1,67
 530 417 530 417 547 424 c 128,-1,68
 564 431 564 431 573.5 440.5 c 128,-1,69
 583 450 583 450 583 461 c 256,70,71
 583 472 583 472 573.5 481.5 c 128,-1,72
 564 491 564 491 547 498 c 128,-1,73
 530 505 530 505 507.5 509 c 128,-1,74
 485 513 485 513 458 513 c 0,75,76
 432 513 432 513 409 509 c 128,-1,77
 386 505 386 505 369 498 c 128,-1,78
 352 491 352 491 342.5 481.5 c 128,-1,79
 333 472 333 472 333 461 c 256,60,61
253 648 m 256,80,81
 253 665 253 665 268.5 680.5 c 128,-1,82
 284 696 284 696 312 707 c 128,-1,83
 340 718 340 718 377.5 724.5 c 128,-1,84
 415 731 415 731 458 731 c 0,85,86
 502 731 502 731 539.5 724.5 c 128,-1,87
 577 718 577 718 604.5 707 c 128,-1,88
 632 696 632 696 648 680.5 c 128,-1,89
 664 665 664 665 664 648 c 256,90,91
 664 631 664 631 648 616 c 128,-1,92
 632 601 632 601 604.5 589.5 c 128,-1,93
 577 578 577 578 539.5 571.5 c 128,-1,94
 502 565 502 565 458 565 c 0,95,96
 415 565 415 565 377.5 571.5 c 128,-1,97
 340 578 340 578 312 589.5 c 128,-1,98
 284 601 284 601 268.5 616 c 128,-1,99
 253 631 253 631 253 648 c 256,80,81
333 648 m 0,100,101
 333 637 333 637 342.5 627.5 c 128,-1,102
 352 618 352 618 369 611 c 128,-1,103
 386 604 386 604 409 600 c 128,-1,104
 432 596 432 596 458 596 c 0,105,106
 485 596 485 596 507.5 600 c 128,-1,107
 530 604 530 604 547 611 c 128,-1,108
 564 618 564 618 573.5 627.5 c 128,-1,109
 583 637 583 637 583 648 c 0,110,111
 583 658 583 658 573.5 668 c 128,-1,112
 564 678 564 678 547 685 c 128,-1,113
 530 692 530 692 507.5 696 c 128,-1,114
 485 700 485 700 458 700 c 0,115,116
 432 700 432 700 409 696 c 128,-1,117
 386 692 386 692 369 685 c 128,-1,118
 352 678 352 678 342.5 668 c 128,-1,119
 333 658 333 658 333 648 c 0,100,101
EndSplineSet
EndChar

StartChar: four.beng
Encoding: 52 52 20
Width: 917
Flags: W
LayerCount: 2
Fore
SplineSet
253 85 m 0,0,1
 253 103 253 103 268.5 118 c 128,-1,2
 284 133 284 133 312 144.5 c 128,-1,3
 340 156 340 156 377.5 162.5 c 128,-1,4
 415 169 415 169 458 169 c 0,5,6
 502 169 502 169 539.5 162.5 c 128,-1,7
 577 156 577 156 604.5 144.5 c 128,-1,8
 632 133 632 133 648 118 c 128,-1,9
 664 103 664 103 664 85 c 0,10,11
 664 68 664 68 648 53 c 128,-1,12
 632 38 632 38 604.5 27 c 128,-1,13
 577 16 577 16 539.5 9.5 c 128,-1,14
 502 3 502 3 458 3 c 0,15,16
 415 3 415 3 377.5 9.5 c 128,-1,17
 340 16 340 16 312 27 c 128,-1,18
 284 38 284 38 268.5 53 c 128,-1,19
 253 68 253 68 253 85 c 0,0,1
333 85 m 256,20,21
 333 74 333 74 342.5 64.5 c 128,-1,22
 352 55 352 55 369 48.5 c 128,-1,23
 386 42 386 42 409 38 c 128,-1,24
 432 34 432 34 458 34 c 0,25,26
 485 34 485 34 507.5 38 c 128,-1,27
 530 42 530 42 547 48.5 c 128,-1,28
 564 55 564 55 573.5 64.5 c 128,-1,29
 583 74 583 74 583 85 c 256,30,31
 583 96 583 96 573.5 105.5 c 128,-1,32
 564 115 564 115 547 122 c 128,-1,33
 530 129 530 129 507.5 133 c 128,-1,34
 485 137 485 137 458 137 c 0,35,36
 432 137 432 137 409 133 c 128,-1,37
 386 129 386 129 369 122 c 128,-1,38
 352 115 352 115 342.5 105.5 c 128,-1,39
 333 96 333 96 333 85 c 256,20,21
253 272 m 0,40,41
 253 290 253 290 268.5 305 c 128,-1,42
 284 320 284 320 312 331.5 c 128,-1,43
 340 343 340 343 377.5 349 c 128,-1,44
 415 355 415 355 458 355 c 0,45,46
 502 355 502 355 539.5 349 c 128,-1,47
 577 343 577 343 604.5 331.5 c 128,-1,48
 632 320 632 320 648 305 c 128,-1,49
 664 290 664 290 664 272 c 0,50,51
 664 255 664 255 648 240 c 128,-1,52
 632 225 632 225 604.5 214 c 128,-1,53
 577 203 577 203 539.5 196 c 128,-1,54
 502 189 502 189 458 189 c 0,55,56
 415 189 415 189 377.5 196 c 128,-1,57
 340 203 340 203 312 214 c 128,-1,58
 284 225 284 225 268.5 240 c 128,-1,59
 253 255 253 255 253 272 c 0,40,41
333 272 m 256,60,61
 333 261 333 261 342.5 251.5 c 128,-1,62
 352 242 352 242 369 235 c 128,-1,63
 386 228 386 228 409 224 c 128,-1,64
 432 220 432 220 458 220 c 0,65,66
 485 220 485 220 507.5 224 c 128,-1,67
 530 228 530 228 547 235 c 128,-1,68
 564 242 564 242 573.5 251.5 c 128,-1,69
 583 261 583 261 583 272 c 256,70,71
 583 283 583 283 573.5 292.5 c 128,-1,72
 564 302 564 302 547 309 c 128,-1,73
 530 316 530 316 507.5 320 c 128,-1,74
 485 324 485 324 458 324 c 0,75,76
 432 324 432 324 409 320 c 128,-1,77
 386 316 386 316 369 309 c 128,-1,78
 352 302 352 302 342.5 292.5 c 128,-1,79
 333 283 333 283 333 272 c 256,60,61
253 461 m 256,80,81
 253 478 253 478 268.5 493.5 c 128,-1,82
 284 509 284 509 312 520 c 128,-1,83
 340 531 340 531 377.5 537.5 c 128,-1,84
 415 544 415 544 458 544 c 0,85,86
 502 544 502 544 539.5 537.5 c 128,-1,87
 577 531 577 531 604.5 520 c 128,-1,88
 632 509 632 509 648 493.5 c 128,-1,89
 664 478 664 478 664 461 c 256,90,91
 664 444 664 444 648 429 c 128,-1,92
 632 414 632 414 604.5 402.5 c 128,-1,93
 577 391 577 391 539.5 384.5 c 128,-1,94
 502 378 502 378 458 378 c 0,95,96
 415 378 415 378 377.5 384.5 c 128,-1,97
 340 391 340 391 312 402.5 c 128,-1,98
 284 414 284 414 268.5 429 c 128,-1,99
 253 444 253 444 253 461 c 256,80,81
253 648 m 256,100,101
 253 665 253 665 268.5 680.5 c 128,-1,102
 284 696 284 696 312 707 c 128,-1,103
 340 718 340 718 377.5 724.5 c 128,-1,104
 415 731 415 731 458 731 c 0,105,106
 502 731 502 731 539.5 724.5 c 128,-1,107
 577 718 577 718 604.5 707 c 128,-1,108
 632 696 632 696 648 680.5 c 128,-1,109
 664 665 664 665 664 648 c 256,110,111
 664 631 664 631 648 616 c 128,-1,112
 632 601 632 601 604.5 589.5 c 128,-1,113
 577 578 577 578 539.5 571.5 c 128,-1,114
 502 565 502 565 458 565 c 0,115,116
 415 565 415 565 377.5 571.5 c 128,-1,117
 340 578 340 578 312 589.5 c 128,-1,118
 284 601 284 601 268.5 616 c 128,-1,119
 253 631 253 631 253 648 c 256,100,101
333 648 m 0,120,121
 333 637 333 637 342.5 627.5 c 128,-1,122
 352 618 352 618 369 611 c 128,-1,123
 386 604 386 604 409 600 c 128,-1,124
 432 596 432 596 458 596 c 0,125,126
 485 596 485 596 507.5 600 c 128,-1,127
 530 604 530 604 547 611 c 128,-1,128
 564 618 564 618 573.5 627.5 c 128,-1,129
 583 637 583 637 583 648 c 0,130,131
 583 658 583 658 573.5 668 c 128,-1,132
 564 678 564 678 547 685 c 128,-1,133
 530 692 530 692 507.5 696 c 128,-1,134
 485 700 485 700 458 700 c 0,135,136
 432 700 432 700 409 696 c 128,-1,137
 386 692 386 692 369 685 c 128,-1,138
 352 678 352 678 342.5 668 c 128,-1,139
 333 658 333 658 333 648 c 0,120,121
EndSplineSet
EndChar

StartChar: five.beng
Encoding: 53 53 21
Width: 917
Flags: W
LayerCount: 2
Fore
SplineSet
253 85 m 0,0,1
 253 103 253 103 268.5 118 c 128,-1,2
 284 133 284 133 312 144.5 c 128,-1,3
 340 156 340 156 377.5 162.5 c 128,-1,4
 415 169 415 169 458 169 c 0,5,6
 502 169 502 169 539.5 162.5 c 128,-1,7
 577 156 577 156 604.5 144.5 c 128,-1,8
 632 133 632 133 648 118 c 128,-1,9
 664 103 664 103 664 85 c 0,10,11
 664 68 664 68 648 53 c 128,-1,12
 632 38 632 38 604.5 27 c 128,-1,13
 577 16 577 16 539.5 9.5 c 128,-1,14
 502 3 502 3 458 3 c 0,15,16
 415 3 415 3 377.5 9.5 c 128,-1,17
 340 16 340 16 312 27 c 128,-1,18
 284 38 284 38 268.5 53 c 128,-1,19
 253 68 253 68 253 85 c 0,0,1
253 272 m 0,20,21
 253 290 253 290 268.5 305 c 128,-1,22
 284 320 284 320 312 331.5 c 128,-1,23
 340 343 340 343 377.5 349 c 128,-1,24
 415 355 415 355 458 355 c 0,25,26
 502 355 502 355 539.5 349 c 128,-1,27
 577 343 577 343 604.5 331.5 c 128,-1,28
 632 320 632 320 648 305 c 128,-1,29
 664 290 664 290 664 272 c 0,30,31
 664 255 664 255 648 240 c 128,-1,32
 632 225 632 225 604.5 214 c 128,-1,33
 577 203 577 203 539.5 196 c 128,-1,34
 502 189 502 189 458 189 c 0,35,36
 415 189 415 189 377.5 196 c 128,-1,37
 340 203 340 203 312 214 c 128,-1,38
 284 225 284 225 268.5 240 c 128,-1,39
 253 255 253 255 253 272 c 0,20,21
333 272 m 256,40,41
 333 261 333 261 342.5 251.5 c 128,-1,42
 352 242 352 242 369 235 c 128,-1,43
 386 228 386 228 409 224 c 128,-1,44
 432 220 432 220 458 220 c 0,45,46
 485 220 485 220 507.5 224 c 128,-1,47
 530 228 530 228 547 235 c 128,-1,48
 564 242 564 242 573.5 251.5 c 128,-1,49
 583 261 583 261 583 272 c 256,50,51
 583 283 583 283 573.5 292.5 c 128,-1,52
 564 302 564 302 547 309 c 128,-1,53
 530 316 530 316 507.5 320 c 128,-1,54
 485 324 485 324 458 324 c 0,55,56
 432 324 432 324 409 320 c 128,-1,57
 386 316 386 316 369 309 c 128,-1,58
 352 302 352 302 342.5 292.5 c 128,-1,59
 333 283 333 283 333 272 c 256,40,41
253 461 m 256,60,61
 253 478 253 478 268.5 493.5 c 128,-1,62
 284 509 284 509 312 520 c 128,-1,63
 340 531 340 531 377.5 537.5 c 128,-1,64
 415 544 415 544 458 544 c 0,65,66
 502 544 502 544 539.5 537.5 c 128,-1,67
 577 531 577 531 604.5 520 c 128,-1,68
 632 509 632 509 648 493.5 c 128,-1,69
 664 478 664 478 664 461 c 256,70,71
 664 444 664 444 648 429 c 128,-1,72
 632 414 632 414 604.5 402.5 c 128,-1,73
 577 391 577 391 539.5 384.5 c 128,-1,74
 502 378 502 378 458 378 c 0,75,76
 415 378 415 378 377.5 384.5 c 128,-1,77
 340 391 340 391 312 402.5 c 128,-1,78
 284 414 284 414 268.5 429 c 128,-1,79
 253 444 253 444 253 461 c 256,60,61
253 648 m 256,80,81
 253 665 253 665 268.5 680.5 c 128,-1,82
 284 696 284 696 312 707 c 128,-1,83
 340 718 340 718 377.5 724.5 c 128,-1,84
 415 731 415 731 458 731 c 0,85,86
 502 731 502 731 539.5 724.5 c 128,-1,87
 577 718 577 718 604.5 707 c 128,-1,88
 632 696 632 696 648 680.5 c 128,-1,89
 664 665 664 665 664 648 c 256,90,91
 664 631 664 631 648 616 c 128,-1,92
 632 601 632 601 604.5 589.5 c 128,-1,93
 577 578 577 578 539.5 571.5 c 128,-1,94
 502 565 502 565 458 565 c 0,95,96
 415 565 415 565 377.5 571.5 c 128,-1,97
 340 578 340 578 312 589.5 c 128,-1,98
 284 601 284 601 268.5 616 c 128,-1,99
 253 631 253 631 253 648 c 256,80,81
333 648 m 0,100,101
 333 637 333 637 342.5 627.5 c 128,-1,102
 352 618 352 618 369 611 c 128,-1,103
 386 604 386 604 409 600 c 128,-1,104
 432 596 432 596 458 596 c 0,105,106
 485 596 485 596 507.5 600 c 128,-1,107
 530 604 530 604 547 611 c 128,-1,108
 564 618 564 618 573.5 627.5 c 128,-1,109
 583 637 583 637 583 648 c 0,110,111
 583 658 583 658 573.5 668 c 128,-1,112
 564 678 564 678 547 685 c 128,-1,113
 530 692 530 692 507.5 696 c 128,-1,114
 485 700 485 700 458 700 c 0,115,116
 432 700 432 700 409 696 c 128,-1,117
 386 692 386 692 369 685 c 128,-1,118
 352 678 352 678 342.5 668 c 128,-1,119
 333 658 333 658 333 648 c 0,100,101
EndSplineSet
EndChar

StartChar: six.beng
Encoding: 54 54 22
Width: 917
Flags: W
LayerCount: 2
Fore
SplineSet
253 85 m 0,0,1
 253 103 253 103 268.5 118 c 128,-1,2
 284 133 284 133 312 144.5 c 128,-1,3
 340 156 340 156 377.5 162.5 c 128,-1,4
 415 169 415 169 458 169 c 0,5,6
 502 169 502 169 539.5 162.5 c 128,-1,7
 577 156 577 156 604.5 144.5 c 128,-1,8
 632 133 632 133 648 118 c 128,-1,9
 664 103 664 103 664 85 c 0,10,11
 664 68 664 68 648 53 c 128,-1,12
 632 38 632 38 604.5 27 c 128,-1,13
 577 16 577 16 539.5 9.5 c 128,-1,14
 502 3 502 3 458 3 c 0,15,16
 415 3 415 3 377.5 9.5 c 128,-1,17
 340 16 340 16 312 27 c 128,-1,18
 284 38 284 38 268.5 53 c 128,-1,19
 253 68 253 68 253 85 c 0,0,1
333 85 m 256,20,21
 333 74 333 74 342.5 64.5 c 128,-1,22
 352 55 352 55 369 48.5 c 128,-1,23
 386 42 386 42 409 38 c 128,-1,24
 432 34 432 34 458 34 c 0,25,26
 485 34 485 34 507.5 38 c 128,-1,27
 530 42 530 42 547 48.5 c 128,-1,28
 564 55 564 55 573.5 64.5 c 128,-1,29
 583 74 583 74 583 85 c 256,30,31
 583 96 583 96 573.5 105.5 c 128,-1,32
 564 115 564 115 547 122 c 128,-1,33
 530 129 530 129 507.5 133 c 128,-1,34
 485 137 485 137 458 137 c 0,35,36
 432 137 432 137 409 133 c 128,-1,37
 386 129 386 129 369 122 c 128,-1,38
 352 115 352 115 342.5 105.5 c 128,-1,39
 333 96 333 96 333 85 c 256,20,21
253 272 m 0,40,41
 253 290 253 290 268.5 305 c 128,-1,42
 284 320 284 320 312 331.5 c 128,-1,43
 340 343 340 343 377.5 349 c 128,-1,44
 415 355 415 355 458 355 c 0,45,46
 502 355 502 355 539.5 349 c 128,-1,47
 577 343 577 343 604.5 331.5 c 128,-1,48
 632 320 632 320 648 305 c 128,-1,49
 664 290 664 290 664 272 c 0,50,51
 664 255 664 255 648 240 c 128,-1,52
 632 225 632 225 604.5 214 c 128,-1,53
 577 203 577 203 539.5 196 c 128,-1,54
 502 189 502 189 458 189 c 0,55,56
 415 189 415 189 377.5 196 c 128,-1,57
 340 203 340 203 312 214 c 128,-1,58
 284 225 284 225 268.5 240 c 128,-1,59
 253 255 253 255 253 272 c 0,40,41
253 461 m 256,60,61
 253 478 253 478 268.5 493.5 c 128,-1,62
 284 509 284 509 312 520 c 128,-1,63
 340 531 340 531 377.5 537.5 c 128,-1,64
 415 544 415 544 458 544 c 0,65,66
 502 544 502 544 539.5 537.5 c 128,-1,67
 577 531 577 531 604.5 520 c 128,-1,68
 632 509 632 509 648 493.5 c 128,-1,69
 664 478 664 478 664 461 c 256,70,71
 664 444 664 444 648 429 c 128,-1,72
 632 414 632 414 604.5 402.5 c 128,-1,73
 577 391 577 391 539.5 384.5 c 128,-1,74
 502 378 502 378 458 378 c 0,75,76
 415 378 415 378 377.5 384.5 c 128,-1,77
 340 391 340 391 312 402.5 c 128,-1,78
 284 414 284 414 268.5 429 c 128,-1,79
 253 444 253 444 253 461 c 256,60,61
253 648 m 256,80,81
 253 665 253 665 268.5 680.5 c 128,-1,82
 284 696 284 696 312 707 c 128,-1,83
 340 718 340 718 377.5 724.5 c 128,-1,84
 415 731 415 731 458 731 c 0,85,86
 502 731 502 731 539.5 724.5 c 128,-1,87
 577 718 577 718 604.5 707 c 128,-1,88
 632 696 632 696 648 680.5 c 128,-1,89
 664 665 664 665 664 648 c 256,90,91
 664 631 664 631 648 616 c 128,-1,92
 632 601 632 601 604.5 589.5 c 128,-1,93
 577 578 577 578 539.5 571.5 c 128,-1,94
 502 565 502 565 458 565 c 0,95,96
 415 565 415 565 377.5 571.5 c 128,-1,97
 340 578 340 578 312 589.5 c 128,-1,98
 284 601 284 601 268.5 616 c 128,-1,99
 253 631 253 631 253 648 c 256,80,81
333 648 m 0,100,101
 333 637 333 637 342.5 627.5 c 128,-1,102
 352 618 352 618 369 611 c 128,-1,103
 386 604 386 604 409 600 c 128,-1,104
 432 596 432 596 458 596 c 0,105,106
 485 596 485 596 507.5 600 c 128,-1,107
 530 604 530 604 547 611 c 128,-1,108
 564 618 564 618 573.5 627.5 c 128,-1,109
 583 637 583 637 583 648 c 0,110,111
 583 658 583 658 573.5 668 c 128,-1,112
 564 678 564 678 547 685 c 128,-1,113
 530 692 530 692 507.5 696 c 128,-1,114
 485 700 485 700 458 700 c 0,115,116
 432 700 432 700 409 696 c 128,-1,117
 386 692 386 692 369 685 c 128,-1,118
 352 678 352 678 342.5 668 c 128,-1,119
 333 658 333 658 333 648 c 0,100,101
EndSplineSet
EndChar

StartChar: seven.beng
Encoding: 55 55 23
Width: 917
Flags: W
LayerCount: 2
Fore
SplineSet
253 85 m 0,0,1
 253 103 253 103 268.5 118 c 128,-1,2
 284 133 284 133 312 144.5 c 128,-1,3
 340 156 340 156 377.5 162.5 c 128,-1,4
 415 169 415 169 458 169 c 0,5,6
 502 169 502 169 539.5 162.5 c 128,-1,7
 577 156 577 156 604.5 144.5 c 128,-1,8
 632 133 632 133 648 118 c 128,-1,9
 664 103 664 103 664 85 c 0,10,11
 664 68 664 68 648 53 c 128,-1,12
 632 38 632 38 604.5 27 c 128,-1,13
 577 16 577 16 539.5 9.5 c 128,-1,14
 502 3 502 3 458 3 c 0,15,16
 415 3 415 3 377.5 9.5 c 128,-1,17
 340 16 340 16 312 27 c 128,-1,18
 284 38 284 38 268.5 53 c 128,-1,19
 253 68 253 68 253 85 c 0,0,1
253 272 m 0,20,21
 253 290 253 290 268.5 305 c 128,-1,22
 284 320 284 320 312 331.5 c 128,-1,23
 340 343 340 343 377.5 349 c 128,-1,24
 415 355 415 355 458 355 c 0,25,26
 502 355 502 355 539.5 349 c 128,-1,27
 577 343 577 343 604.5 331.5 c 128,-1,28
 632 320 632 320 648 305 c 128,-1,29
 664 290 664 290 664 272 c 0,30,31
 664 255 664 255 648 240 c 128,-1,32
 632 225 632 225 604.5 214 c 128,-1,33
 577 203 577 203 539.5 196 c 128,-1,34
 502 189 502 189 458 189 c 0,35,36
 415 189 415 189 377.5 196 c 128,-1,37
 340 203 340 203 312 214 c 128,-1,38
 284 225 284 225 268.5 240 c 128,-1,39
 253 255 253 255 253 272 c 0,20,21
253 461 m 256,40,41
 253 478 253 478 268.5 493.5 c 128,-1,42
 284 509 284 509 312 520 c 128,-1,43
 340 531 340 531 377.5 537.5 c 128,-1,44
 415 544 415 544 458 544 c 0,45,46
 502 544 502 544 539.5 537.5 c 128,-1,47
 577 531 577 531 604.5 520 c 128,-1,48
 632 509 632 509 648 493.5 c 128,-1,49
 664 478 664 478 664 461 c 256,50,51
 664 444 664 444 648 429 c 128,-1,52
 632 414 632 414 604.5 402.5 c 128,-1,53
 577 391 577 391 539.5 384.5 c 128,-1,54
 502 378 502 378 458 378 c 0,55,56
 415 378 415 378 377.5 384.5 c 128,-1,57
 340 391 340 391 312 402.5 c 128,-1,58
 284 414 284 414 268.5 429 c 128,-1,59
 253 444 253 444 253 461 c 256,40,41
253 648 m 256,60,61
 253 665 253 665 268.5 680.5 c 128,-1,62
 284 696 284 696 312 707 c 128,-1,63
 340 718 340 718 377.5 724.5 c 128,-1,64
 415 731 415 731 458 731 c 0,65,66
 502 731 502 731 539.5 724.5 c 128,-1,67
 577 718 577 718 604.5 707 c 128,-1,68
 632 696 632 696 648 680.5 c 128,-1,69
 664 665 664 665 664 648 c 256,70,71
 664 631 664 631 648 616 c 128,-1,72
 632 601 632 601 604.5 589.5 c 128,-1,73
 577 578 577 578 539.5 571.5 c 128,-1,74
 502 565 502 565 458 565 c 0,75,76
 415 565 415 565 377.5 571.5 c 128,-1,77
 340 578 340 578 312 589.5 c 128,-1,78
 284 601 284 601 268.5 616 c 128,-1,79
 253 631 253 631 253 648 c 256,60,61
333 648 m 0,80,81
 333 637 333 637 342.5 627.5 c 128,-1,82
 352 618 352 618 369 611 c 128,-1,83
 386 604 386 604 409 600 c 128,-1,84
 432 596 432 596 458 596 c 0,85,86
 485 596 485 596 507.5 600 c 128,-1,87
 530 604 530 604 547 611 c 128,-1,88
 564 618 564 618 573.5 627.5 c 128,-1,89
 583 637 583 637 583 648 c 0,90,91
 583 658 583 658 573.5 668 c 128,-1,92
 564 678 564 678 547 685 c 128,-1,93
 530 692 530 692 507.5 696 c 128,-1,94
 485 700 485 700 458 700 c 0,95,96
 432 700 432 700 409 696 c 128,-1,97
 386 692 386 692 369 685 c 128,-1,98
 352 678 352 678 342.5 668 c 128,-1,99
 333 658 333 658 333 648 c 0,80,81
EndSplineSet
EndChar

StartChar: eight.beng
Encoding: 56 56 24
Width: 917
Flags: W
LayerCount: 2
Fore
SplineSet
253 85 m 0,0,1
 253 103 253 103 268.5 118 c 128,-1,2
 284 133 284 133 312 144.5 c 128,-1,3
 340 156 340 156 377.5 162.5 c 128,-1,4
 415 169 415 169 458 169 c 0,5,6
 502 169 502 169 539.5 162.5 c 128,-1,7
 577 156 577 156 604.5 144.5 c 128,-1,8
 632 133 632 133 648 118 c 128,-1,9
 664 103 664 103 664 85 c 0,10,11
 664 68 664 68 648 53 c 128,-1,12
 632 38 632 38 604.5 27 c 128,-1,13
 577 16 577 16 539.5 9.5 c 128,-1,14
 502 3 502 3 458 3 c 0,15,16
 415 3 415 3 377.5 9.5 c 128,-1,17
 340 16 340 16 312 27 c 128,-1,18
 284 38 284 38 268.5 53 c 128,-1,19
 253 68 253 68 253 85 c 0,0,1
333 85 m 256,20,21
 333 74 333 74 342.5 64.5 c 128,-1,22
 352 55 352 55 369 48.5 c 128,-1,23
 386 42 386 42 409 38 c 128,-1,24
 432 34 432 34 458 34 c 0,25,26
 485 34 485 34 507.5 38 c 128,-1,27
 530 42 530 42 547 48.5 c 128,-1,28
 564 55 564 55 573.5 64.5 c 128,-1,29
 583 74 583 74 583 85 c 256,30,31
 583 96 583 96 573.5 105.5 c 128,-1,32
 564 115 564 115 547 122 c 128,-1,33
 530 129 530 129 507.5 133 c 128,-1,34
 485 137 485 137 458 137 c 0,35,36
 432 137 432 137 409 133 c 128,-1,37
 386 129 386 129 369 122 c 128,-1,38
 352 115 352 115 342.5 105.5 c 128,-1,39
 333 96 333 96 333 85 c 256,20,21
253 272 m 0,40,41
 253 290 253 290 268.5 305 c 128,-1,42
 284 320 284 320 312 331.5 c 128,-1,43
 340 343 340 343 377.5 349 c 128,-1,44
 415 355 415 355 458 355 c 0,45,46
 502 355 502 355 539.5 349 c 128,-1,47
 577 343 577 343 604.5 331.5 c 128,-1,48
 632 320 632 320 648 305 c 128,-1,49
 664 290 664 290 664 272 c 0,50,51
 664 255 664 255 648 240 c 128,-1,52
 632 225 632 225 604.5 214 c 128,-1,53
 577 203 577 203 539.5 196 c 128,-1,54
 502 189 502 189 458 189 c 0,55,56
 415 189 415 189 377.5 196 c 128,-1,57
 340 203 340 203 312 214 c 128,-1,58
 284 225 284 225 268.5 240 c 128,-1,59
 253 255 253 255 253 272 c 0,40,41
333 272 m 256,60,61
 333 261 333 261 342.5 251.5 c 128,-1,62
 352 242 352 242 369 235 c 128,-1,63
 386 228 386 228 409 224 c 128,-1,64
 432 220 432 220 458 220 c 0,65,66
 485 220 485 220 507.5 224 c 128,-1,67
 530 228 530 228 547 235 c 128,-1,68
 564 242 564 242 573.5 251.5 c 128,-1,69
 583 261 583 261 583 272 c 256,70,71
 583 283 583 283 573.5 292.5 c 128,-1,72
 564 302 564 302 547 309 c 128,-1,73
 530 316 530 316 507.5 320 c 128,-1,74
 485 324 485 324 458 324 c 0,75,76
 432 324 432 324 409 320 c 128,-1,77
 386 316 386 316 369 309 c 128,-1,78
 352 302 352 302 342.5 292.5 c 128,-1,79
 333 283 333 283 333 272 c 256,60,61
253 461 m 256,80,81
 253 478 253 478 268.5 493.5 c 128,-1,82
 284 509 284 509 312 520 c 128,-1,83
 340 531 340 531 377.5 537.5 c 128,-1,84
 415 544 415 544 458 544 c 0,85,86
 502 544 502 544 539.5 537.5 c 128,-1,87
 577 531 577 531 604.5 520 c 128,-1,88
 632 509 632 509 648 493.5 c 128,-1,89
 664 478 664 478 664 461 c 256,90,91
 664 444 664 444 648 429 c 128,-1,92
 632 414 632 414 604.5 402.5 c 128,-1,93
 577 391 577 391 539.5 384.5 c 128,-1,94
 502 378 502 378 458 378 c 0,95,96
 415 378 415 378 377.5 384.5 c 128,-1,97
 340 391 340 391 312 402.5 c 128,-1,98
 284 414 284 414 268.5 429 c 128,-1,99
 253 444 253 444 253 461 c 256,80,81
333 461 m 256,100,101
 333 450 333 450 342.5 440.5 c 128,-1,102
 352 431 352 431 369 424 c 128,-1,103
 386 417 386 417 409 413 c 128,-1,104
 432 409 432 409 458 409 c 0,105,106
 485 409 485 409 507.5 413 c 128,-1,107
 530 417 530 417 547 424 c 128,-1,108
 564 431 564 431 573.5 440.5 c 128,-1,109
 583 450 583 450 583 461 c 256,110,111
 583 472 583 472 573.5 481.5 c 128,-1,112
 564 491 564 491 547 498 c 128,-1,113
 530 505 530 505 507.5 509 c 128,-1,114
 485 513 485 513 458 513 c 0,115,116
 432 513 432 513 409 509 c 128,-1,117
 386 505 386 505 369 498 c 128,-1,118
 352 491 352 491 342.5 481.5 c 128,-1,119
 333 472 333 472 333 461 c 256,100,101
253 648 m 256,120,121
 253 665 253 665 268.5 680.5 c 128,-1,122
 284 696 284 696 312 707 c 128,-1,123
 340 718 340 718 377.5 724.5 c 128,-1,124
 415 731 415 731 458 731 c 0,125,126
 502 731 502 731 539.5 724.5 c 128,-1,127
 577 718 577 718 604.5 707 c 128,-1,128
 632 696 632 696 648 680.5 c 128,-1,129
 664 665 664 665 664 648 c 256,130,131
 664 631 664 631 648 616 c 128,-1,132
 632 601 632 601 604.5 589.5 c 128,-1,133
 577 578 577 578 539.5 571.5 c 128,-1,134
 502 565 502 565 458 565 c 0,135,136
 415 565 415 565 377.5 571.5 c 128,-1,137
 340 578 340 578 312 589.5 c 128,-1,138
 284 601 284 601 268.5 616 c 128,-1,139
 253 631 253 631 253 648 c 256,120,121
EndSplineSet
EndChar

StartChar: nine.beng
Encoding: 57 57 25
Width: 917
Flags: W
LayerCount: 2
Fore
SplineSet
253 85 m 0,0,1
 253 103 253 103 268.5 118 c 128,-1,2
 284 133 284 133 312 144.5 c 128,-1,3
 340 156 340 156 377.5 162.5 c 128,-1,4
 415 169 415 169 458 169 c 0,5,6
 502 169 502 169 539.5 162.5 c 128,-1,7
 577 156 577 156 604.5 144.5 c 128,-1,8
 632 133 632 133 648 118 c 128,-1,9
 664 103 664 103 664 85 c 0,10,11
 664 68 664 68 648 53 c 128,-1,12
 632 38 632 38 604.5 27 c 128,-1,13
 577 16 577 16 539.5 9.5 c 128,-1,14
 502 3 502 3 458 3 c 0,15,16
 415 3 415 3 377.5 9.5 c 128,-1,17
 340 16 340 16 312 27 c 128,-1,18
 284 38 284 38 268.5 53 c 128,-1,19
 253 68 253 68 253 85 c 0,0,1
253 272 m 0,20,21
 253 290 253 290 268.5 305 c 128,-1,22
 284 320 284 320 312 331.5 c 128,-1,23
 340 343 340 343 377.5 349 c 128,-1,24
 415 355 415 355 458 355 c 0,25,26
 502 355 502 355 539.5 349 c 128,-1,27
 577 343 577 343 604.5 331.5 c 128,-1,28
 632 320 632 320 648 305 c 128,-1,29
 664 290 664 290 664 272 c 0,30,31
 664 255 664 255 648 240 c 128,-1,32
 632 225 632 225 604.5 214 c 128,-1,33
 577 203 577 203 539.5 196 c 128,-1,34
 502 189 502 189 458 189 c 0,35,36
 415 189 415 189 377.5 196 c 128,-1,37
 340 203 340 203 312 214 c 128,-1,38
 284 225 284 225 268.5 240 c 128,-1,39
 253 255 253 255 253 272 c 0,20,21
333 272 m 256,40,41
 333 261 333 261 342.5 251.5 c 128,-1,42
 352 242 352 242 369 235 c 128,-1,43
 386 228 386 228 409 224 c 128,-1,44
 432 220 432 220 458 220 c 0,45,46
 485 220 485 220 507.5 224 c 128,-1,47
 530 228 530 228 547 235 c 128,-1,48
 564 242 564 242 573.5 251.5 c 128,-1,49
 583 261 583 261 583 272 c 256,50,51
 583 283 583 283 573.5 292.5 c 128,-1,52
 564 302 564 302 547 309 c 128,-1,53
 530 316 530 316 507.5 320 c 128,-1,54
 485 324 485 324 458 324 c 0,55,56
 432 324 432 324 409 320 c 128,-1,57
 386 316 386 316 369 309 c 128,-1,58
 352 302 352 302 342.5 292.5 c 128,-1,59
 333 283 333 283 333 272 c 256,40,41
253 461 m 256,60,61
 253 478 253 478 268.5 493.5 c 128,-1,62
 284 509 284 509 312 520 c 128,-1,63
 340 531 340 531 377.5 537.5 c 128,-1,64
 415 544 415 544 458 544 c 0,65,66
 502 544 502 544 539.5 537.5 c 128,-1,67
 577 531 577 531 604.5 520 c 128,-1,68
 632 509 632 509 648 493.5 c 128,-1,69
 664 478 664 478 664 461 c 256,70,71
 664 444 664 444 648 429 c 128,-1,72
 632 414 632 414 604.5 402.5 c 128,-1,73
 577 391 577 391 539.5 384.5 c 128,-1,74
 502 378 502 378 458 378 c 0,75,76
 415 378 415 378 377.5 384.5 c 128,-1,77
 340 391 340 391 312 402.5 c 128,-1,78
 284 414 284 414 268.5 429 c 128,-1,79
 253 444 253 444 253 461 c 256,60,61
333 461 m 256,80,81
 333 450 333 450 342.5 440.5 c 128,-1,82
 352 431 352 431 369 424 c 128,-1,83
 386 417 386 417 409 413 c 128,-1,84
 432 409 432 409 458 409 c 0,85,86
 485 409 485 409 507.5 413 c 128,-1,87
 530 417 530 417 547 424 c 128,-1,88
 564 431 564 431 573.5 440.5 c 128,-1,89
 583 450 583 450 583 461 c 256,90,91
 583 472 583 472 573.5 481.5 c 128,-1,92
 564 491 564 491 547 498 c 128,-1,93
 530 505 530 505 507.5 509 c 128,-1,94
 485 513 485 513 458 513 c 0,95,96
 432 513 432 513 409 509 c 128,-1,97
 386 505 386 505 369 498 c 128,-1,98
 352 491 352 491 342.5 481.5 c 128,-1,99
 333 472 333 472 333 461 c 256,80,81
253 648 m 256,100,101
 253 665 253 665 268.5 680.5 c 128,-1,102
 284 696 284 696 312 707 c 128,-1,103
 340 718 340 718 377.5 724.5 c 128,-1,104
 415 731 415 731 458 731 c 0,105,106
 502 731 502 731 539.5 724.5 c 128,-1,107
 577 718 577 718 604.5 707 c 128,-1,108
 632 696 632 696 648 680.5 c 128,-1,109
 664 665 664 665 664 648 c 256,110,111
 664 631 664 631 648 616 c 128,-1,112
 632 601 632 601 604.5 589.5 c 128,-1,113
 577 578 577 578 539.5 571.5 c 128,-1,114
 502 565 502 565 458 565 c 0,115,116
 415 565 415 565 377.5 571.5 c 128,-1,117
 340 578 340 578 312 589.5 c 128,-1,118
 284 601 284 601 268.5 616 c 128,-1,119
 253 631 253 631 253 648 c 256,100,101
EndSplineSet
EndChar

StartChar: colon.beng
Encoding: 58 58 26
Width: 917
Flags: W
LayerCount: 2
Fore
SplineSet
458.5 414 m 256,0,1
 432.5 414 432.5 414 414.5 430 c 128,-1,2
 396.5 446 396.5 446 396.5 482 c 0,3,4
 396.5 520 396.5 520 414.5 535 c 128,-1,5
 432.5 550 432.5 550 458.5 550 c 256,6,7
 484.5 550 484.5 550 502.5 535 c 128,-1,8
 520.5 520 520.5 520 520.5 482 c 0,9,10
 520.5 446 520.5 446 502.5 430 c 128,-1,11
 484.5 414 484.5 414 458.5 414 c 256,0,1
458.5 -14 m 256,12,13
 432.5 -14 432.5 -14 414.5 2 c 128,-1,14
 396.5 18 396.5 18 396.5 54 c 0,15,16
 396.5 92 396.5 92 414.5 107 c 128,-1,17
 432.5 122 432.5 122 458.5 122 c 256,18,19
 484.5 122 484.5 122 502.5 107 c 128,-1,20
 520.5 92 520.5 92 520.5 54 c 0,21,22
 520.5 18 520.5 18 502.5 2 c 128,-1,23
 484.5 -14 484.5 -14 458.5 -14 c 256,12,13
EndSplineSet
EndChar

StartChar: semicolon.beng
Encoding: 59 59 27
Width: 917
Flags: W
LayerCount: 2
Fore
SplineSet
521 116 m 1,0,-1
 528 105 l 1,1,2
 519 70 519 70 505.5 32 c 128,-1,3
 492 -6 492 -6 476.5 -44 c 128,-1,4
 461 -82 461 -82 444 -119 c 1,5,-1
 377 -119 l 1,6,7
 392 -60 392 -60 404.5 2 c 128,-1,8
 417 64 417 64 424 116 c 1,9,-1
 521 116 l 1,0,-1
478 414 m 256,10,11
 452 414 452 414 434 430 c 128,-1,12
 416 446 416 446 416 482 c 0,13,14
 416 520 416 520 434 535 c 128,-1,15
 452 550 452 550 478 550 c 256,16,17
 504 550 504 550 522 535 c 128,-1,18
 540 520 540 520 540 482 c 0,19,20
 540 446 540 446 522 430 c 128,-1,21
 504 414 504 414 478 414 c 256,10,11
EndSplineSet
EndChar

StartChar: less.beng
Encoding: 60 60 28
Width: 917
Flags: W
LayerCount: 2
Fore
SplineSet
233 284 m 1,0,-1
 233 333 l 1,1,-1
 684 568 l 1,2,-1
 684 490 l 1,3,-1
 325 313 l 1,4,-1
 684 155 l 1,5,-1
 684 77 l 1,6,-1
 233 284 l 1,0,-1
EndSplineSet
EndChar

StartChar: equal.beng
Encoding: 61 61 29
Width: 917
Flags: W
LayerCount: 2
Fore
SplineSet
233 459 m 1,0,-1
 684 459 l 1,1,-1
 684 386 l 1,2,-1
 233 386 l 1,3,-1
 233 459 l 1,0,-1
233 259 m 1,4,-1
 684 259 l 1,5,-1
 684 186 l 1,6,-1
 233 186 l 1,7,-1
 233 259 l 1,4,-1
EndSplineSet
EndChar

StartChar: greater.beng
Encoding: 62 62 30
Width: 917
Flags: W
LayerCount: 2
Fore
SplineSet
233 155 m 1,0,-1
 592 313 l 1,1,-1
 233 490 l 1,2,-1
 233 568 l 1,3,-1
 684 333 l 1,4,-1
 684 284 l 1,5,-1
 233 77 l 1,6,-1
 233 155 l 1,0,-1
EndSplineSet
EndChar

StartChar: question.beng
Encoding: 63 63 31
Width: 917
Flags: W
LayerCount: 2
Fore
SplineSet
390 202 m 1,0,-1
 390 220 l 2,1,2
 390 258 390 258 397 285.5 c 128,-1,3
 404 313 404 313 422.5 338 c 128,-1,4
 441 363 441 363 473 390 c 0,5,6
 504 417 504 417 523.5 438 c 128,-1,7
 543 459 543 459 552 483 c 128,-1,8
 561 507 561 507 561 541 c 0,9,10
 561 588 561 588 532.5 617 c 128,-1,11
 504 646 504 646 450 646 c 0,12,13
 410 646 410 646 373 633.5 c 128,-1,14
 336 621 336 621 302 604 c 1,15,-1
 271 675 l 1,16,17
 311 695 311 695 357 709.5 c 128,-1,18
 403 724 403 724 450 724 c 0,19,20
 541 724 541 724 593.5 676 c 128,-1,21
 646 628 646 628 646 542 c 0,22,23
 646 499 646 499 634.5 467 c 128,-1,24
 623 435 623 435 599.5 408 c 128,-1,25
 576 381 576 381 541 350 c 0,26,27
 508 321 508 321 490 300.5 c 128,-1,28
 472 280 472 280 465 260 c 128,-1,29
 458 240 458 240 458 211 c 2,30,-1
 458 202 l 1,31,-1
 390 202 l 1,0,-1
429 -14 m 256,32,33
 403 -14 403 -14 385 2 c 128,-1,34
 367 18 367 18 367 54 c 0,35,36
 367 92 367 92 385 107 c 128,-1,37
 403 122 403 122 429 122 c 256,38,39
 455 122 455 122 473 107 c 128,-1,40
 491 92 491 92 491 54 c 0,41,42
 491 18 491 18 473 2 c 128,-1,43
 455 -14 455 -14 429 -14 c 256,32,33
EndSplineSet
EndChar

StartChar: bracketleft.beng
Encoding: 91 91 32
Width: 917
Flags: W
LayerCount: 2
Fore
SplineSet
361.5 792 m 1,0,-1
 555.5 792 l 1,1,-1
 555.5 722 l 1,2,-1
 441.5 722 l 1,3,-1
 441.5 -65 l 1,4,-1
 555.5 -65 l 1,5,-1
 555.5 -135 l 1,6,-1
 361.5 -135 l 1,7,-1
 361.5 792 l 1,0,-1
EndSplineSet
EndChar

StartChar: backslash.beng
Encoding: 92 92 33
Width: 917
Flags: W
LayerCount: 2
Fore
SplineSet
286 792 m 1,0,-1
 368 792 l 1,1,-1
 631 -135 l 1,2,-1
 549 -135 l 1,3,-1
 286 792 l 1,0,-1
EndSplineSet
EndChar

StartChar: bracketright.beng
Encoding: 93 93 34
Width: 917
Flags: W
LayerCount: 2
Fore
SplineSet
361.5 -65 m 1,0,-1
 474.5 -65 l 1,1,-1
 474.5 712 l 1,2,-1
 361.5 712 l 1,3,-1
 361.5 782 l 1,4,-1
 555.5 782 l 1,5,-1
 555.5 -135 l 1,6,-1
 361.5 -135 l 1,7,-1
 361.5 -65 l 1,0,-1
EndSplineSet
EndChar

StartChar: asciicircum.beng
Encoding: 94 94 35
Width: 917
Flags: W
LayerCount: 2
Fore
SplineSet
436.5 719 m 1,0,-1
 486.5 719 l 1,1,-1
 704.5 268 l 1,2,-1
 626.5 268 l 1,3,-1
 461.5 627 l 1,4,-1
 291.5 268 l 1,5,-1
 212.5 268 l 1,6,-1
 436.5 719 l 1,0,-1
EndSplineSet
EndChar

StartChar: underscore.beng
Encoding: 95 95 36
Width: 917
Flags: W
LayerCount: 2
Fore
SplineSet
251 -90 m 1,0,-1
 666 -90 l 1,1,-1
 666 -158 l 1,2,-1
 251 -158 l 1,3,-1
 251 -90 l 1,0,-1
EndSplineSet
EndChar

StartChar: braceleft.beng
Encoding: 123 123 37
Width: 917
Flags: W
LayerCount: 2
Fore
SplineSet
312 365 m 1,0,1
 352 365 352 365 379.5 374 c 128,-1,2
 407 383 407 383 421 403 c 128,-1,3
 435 423 435 423 435 455 c 2,4,-1
 435 651 l 2,5,6
 435 701 435 701 457 731.5 c 128,-1,7
 479 762 479 762 517.5 776.5 c 128,-1,8
 556 791 556 791 605 792 c 1,9,-1
 605 720 l 1,10,11
 578 720 578 720 558 713.5 c 128,-1,12
 538 707 538 707 527 691.5 c 128,-1,13
 516 676 516 676 516 645 c 2,14,-1
 516 450 l 2,15,16
 516 400 516 400 489 370.5 c 128,-1,17
 462 341 462 341 410 330 c 1,18,-1
 410 325 l 1,19,20
 462 315 462 315 489 286 c 128,-1,21
 516 257 516 257 516 206 c 2,22,-1
 516 13 l 2,23,24
 516 -18 516 -18 527 -34 c 128,-1,25
 538 -50 538 -50 558 -56 c 128,-1,26
 578 -62 578 -62 605 -63 c 1,27,-1
 605 -135 l 1,28,29
 556 -134 556 -134 517.5 -119.5 c 128,-1,30
 479 -105 479 -105 457 -74.5 c 128,-1,31
 435 -44 435 -44 435 6 c 2,32,-1
 435 201 l 2,33,34
 435 234 435 234 421 253.5 c 128,-1,35
 407 273 407 273 379.5 282 c 128,-1,36
 352 291 352 291 312 291 c 1,37,-1
 312 365 l 1,0,1
EndSplineSet
EndChar

StartChar: bar.beng
Encoding: 124 124 38
Width: 917
Flags: W
LayerCount: 2
Fore
SplineSet
422.5 792 m 1,0,-1
 494.5 792 l 1,1,-1
 494.5 -135 l 1,2,-1
 422.5 -135 l 1,3,-1
 422.5 792 l 1,0,-1
EndSplineSet
EndChar

StartChar: braceright.beng
Encoding: 125 125 39
Width: 917
Flags: W
LayerCount: 2
Fore
SplineSet
605 291 m 1,0,1
 565 291 565 291 538 282 c 128,-1,2
 511 273 511 273 497 253.5 c 128,-1,3
 483 234 483 234 483 201 c 2,4,-1
 483 6 l 2,5,6
 483 -44 483 -44 460.5 -74.5 c 128,-1,7
 438 -105 438 -105 399.5 -119.5 c 128,-1,8
 361 -134 361 -134 312 -135 c 1,9,-1
 312 -63 l 1,10,11
 340 -62 340 -62 360 -56 c 128,-1,12
 380 -50 380 -50 390.5 -34 c 128,-1,13
 401 -18 401 -18 401 13 c 2,14,-1
 401 206 l 2,15,16
 401 257 401 257 428 286 c 128,-1,17
 455 315 455 315 507 325 c 1,18,-1
 507 330 l 1,19,20
 455 341 455 341 428 370.5 c 128,-1,21
 401 400 401 400 401 450 c 2,22,-1
 401 645 l 2,23,24
 401 676 401 676 390.5 691.5 c 128,-1,25
 380 707 380 707 360 713.5 c 128,-1,26
 340 720 340 720 312 720 c 1,27,-1
 312 792 l 1,28,29
 361 791 361 791 399.5 776.5 c 128,-1,30
 438 762 438 762 460.5 731.5 c 128,-1,31
 483 701 483 701 483 651 c 2,32,-1
 483 455 l 2,33,34
 483 423 483 423 497 403 c 128,-1,35
 511 383 511 383 538 374 c 128,-1,36
 565 365 565 365 605 365 c 1,37,-1
 605 291 l 1,0,1
EndSplineSet
EndChar

StartChar: asciitilde.beng
Encoding: 126 126 40
Width: 917
Flags: W
LayerCount: 2
Fore
SplineSet
233 335 m 1,0,1
 258 362 258 362 288 375 c 128,-1,2
 318 388 318 388 354 388 c 0,3,4
 373 388 373 388 389 385.5 c 128,-1,5
 405 383 405 383 425 376.5 c 128,-1,6
 445 370 445 370 475 357 c 0,7,8
 512 341 512 341 532 335.5 c 128,-1,9
 552 330 552 330 573 330 c 0,10,11
 601 330 601 330 631 347 c 128,-1,12
 661 364 661 364 684 389 c 1,13,-1
 684 310 l 1,14,15
 660 284 660 284 629.5 270.5 c 128,-1,16
 599 257 599 257 563 257 c 0,17,18
 544 257 544 257 528 259.5 c 128,-1,19
 512 262 512 262 492.5 268.5 c 128,-1,20
 473 275 473 275 442 288 c 0,21,22
 406 304 406 304 386.5 309.5 c 128,-1,23
 367 315 367 315 344 315 c 0,24,25
 317 315 317 315 287 298 c 128,-1,26
 257 281 257 281 233 256 c 1,27,-1
 233 335 l 1,0,1
EndSplineSet
EndChar

StartChar: A
Encoding: 65 65 41
Width: 917
Flags: W
AnchorPoint: "Anchor-2" 458 622 basechar 0
LayerCount: 2
Fore
SplineSet
876 622 m 5,0,-1
 876 551 l 5,1,-1
 810 551 l 1,2,-1
 810 0 l 1,3,-1
 733 0 l 1,4,5
 704 59 704 59 661 103.5 c 128,-1,6
 618 148 618 148 569 180 c 1,7,-1
 594 246 l 1,8,9
 632 224 632 224 673 186 c 128,-1,10
 714 148 714 148 736 109 c 1,11,12
 735 124 735 124 734.5 137 c 128,-1,13
 734 150 734 150 733.5 164 c 128,-1,14
 733 178 733 178 733 194 c 2,15,-1
 733 551 l 1,16,-1
 49 551 l 1,17,-1
 49 622 l 1,18,-1
 876 622 l 5,0,-1
388 91 m 0,19,20
 320 91 320 91 258 123 c 128,-1,21
 196 155 196 155 141.5 231.5 c 128,-1,22
 87 308 87 308 41 442 c 1,23,-1
 114 466 l 1,24,25
 150 362 150 362 189.5 295.5 c 128,-1,26
 229 229 229 229 278 198 c 128,-1,27
 327 167 327 167 390 167 c 0,28,29
 445 167 445 167 478.5 184.5 c 128,-1,30
 512 202 512 202 527 232.5 c 128,-1,31
 542 263 542 263 542 300 c 0,32,33
 542 358 542 358 510.5 394 c 128,-1,34
 479 430 479 430 432 430 c 0,35,36
 399 430 399 430 382 415.5 c 128,-1,37
 365 401 365 401 365 372 c 0,38,39
 365 365 365 365 367 353 c 128,-1,40
 369 341 369 341 373 331 c 1,41,-1
 297 316 l 1,42,43
 290 337 290 337 286.5 354.5 c 128,-1,44
 283 372 283 372 283 388 c 0,45,46
 283 425 283 425 303.5 450 c 128,-1,47
 324 475 324 475 356.5 487.5 c 128,-1,48
 389 500 389 500 425 500 c 0,49,50
 484 500 484 500 527 473.5 c 128,-1,51
 570 447 570 447 594 401 c 128,-1,52
 618 355 618 355 618 294 c 0,53,54
 618 240 618 240 593 193.5 c 128,-1,55
 568 147 568 147 517 119 c 128,-1,56
 466 91 466 91 388 91 c 0,19,20
356 465 m 1,57,58
 351 497 351 497 326.5 521.5 c 128,-1,59
 302 546 302 546 255 556 c 1,60,-1
 279 601 l 1,61,-1
 324 589 l 1,62,63
 381 567 381 567 406 539 c 128,-1,64
 431 511 431 511 435 468 c 1,65,-1
 356 465 l 1,57,58
EndSplineSet
EndChar

StartChar: B
Encoding: 66 66 42
Width: 917
Flags: W
AnchorPoint: "Anchor-2" 455.5 622 basechar 0
AnchorPoint: "Anchor-1" 581.5 0 basechar 0
LayerCount: 2
Fore
SplineSet
396.5 638 m 5,0,1
 383.5 661 383.5 661 361.5 687.5 c 132,-1,2
 339.5 714 339.5 714 315.5 740 c 132,-1,3
 291.5 766 291.5 766 273.5 785 c 5,4,-1
 273.5 798 l 5,5,-1
 333.5 798 l 5,6,7
 359.5 781 359.5 781 387.5 757 c 132,-1,8
 415.5 733 415.5 733 440.5 706 c 5,9,10
 467.5 733 467.5 733 495.5 757 c 132,-1,11
 523.5 781 523.5 781 549.5 798 c 5,12,-1
 611.5 798 l 5,13,-1
 611.5 785 l 5,14,15
 592.5 766 592.5 766 568 740 c 132,-1,16
 543.5 714 543.5 714 521 687.5 c 132,-1,17
 498.5 661 498.5 661 486.5 638 c 5,18,-1
 396.5 638 l 5,0,1
722.5 622 m 1,19,-1
 722.5 551 l 1,20,-1
 658.5 551 l 1,21,-1
 658.5 0 l 1,22,-1
 581.5 0 l 1,23,24
 551.5 60 551.5 60 499 110.5 c 128,-1,25
 446.5 161 446.5 161 378.5 196 c 128,-1,26
 310.5 231 310.5 231 233.5 243 c 1,27,-1
 194.5 339 l 1,28,29
 290.5 397 290.5 397 393 444 c 128,-1,30
 495.5 491 495.5 491 604.5 524 c 1,31,-1
 581.5 482 l 1,32,-1
 581.5 551 l 1,33,-1
 205.5 551 l 1,34,-1
 205.5 622 l 1,35,-1
 722.5 622 l 1,19,-1
581.5 474 m 1,36,-1
 602.5 446 l 1,37,38
 526.5 421 526.5 421 442.5 384.5 c 128,-1,39
 358.5 348 358.5 348 287.5 304 c 1,40,41
 341.5 292 341.5 292 402.5 263 c 128,-1,42
 463.5 234 463.5 234 515.5 190 c 128,-1,43
 567.5 146 567.5 146 595.5 88 c 1,44,-1
 586.5 88 l 1,45,46
 584.5 111 584.5 111 583 134 c 128,-1,47
 581.5 157 581.5 157 581.5 189 c 2,48,-1
 581.5 474 l 1,36,-1
EndSplineSet
EndChar

StartChar: C
Encoding: 67 67 43
Width: 917
Flags: W
AnchorPoint: "Anchor-1" 458.5 536 basechar 0
AnchorPoint: "Anchor-0" 458.5 0 basechar 0
LayerCount: 2
Fore
SplineSet
409.5 588 m 5,0,1
 396.5 611 396.5 611 374.5 637.5 c 132,-1,2
 352.5 664 352.5 664 328.5 690 c 132,-1,3
 304.5 716 304.5 716 286.5 735 c 5,4,-1
 286.5 748 l 5,5,-1
 346.5 748 l 5,6,7
 372.5 731 372.5 731 400.5 707 c 132,-1,8
 428.5 683 428.5 683 453.5 656 c 5,9,10
 480.5 683 480.5 683 508.5 707 c 132,-1,11
 536.5 731 536.5 731 562.5 748 c 5,12,-1
 624.5 748 l 5,13,-1
 624.5 735 l 5,14,15
 605.5 716 605.5 716 581 690 c 132,-1,16
 556.5 664 556.5 664 534 637.5 c 132,-1,17
 511.5 611 511.5 611 499.5 588 c 5,18,-1
 409.5 588 l 5,0,1
514.5 -10 m 0,19,20
 396.5 -10 396.5 -10 331.5 57 c 128,-1,21
 266.5 124 266.5 124 266.5 245 c 0,22,23
 266.5 325 266.5 325 295.5 380.5 c 128,-1,24
 324.5 436 324.5 436 378.5 465 c 1,25,-1
 245.5 465 l 1,26,-1
 245.5 537 l 1,27,-1
 671.5 537 l 1,28,-1
 671.5 465 l 1,29,-1
 558.5 465 l 2,30,31
 464.5 465 464.5 465 411 411.5 c 128,-1,32
 357.5 358 357.5 358 357.5 252 c 0,33,34
 357.5 165 357.5 165 400.5 114.5 c 128,-1,35
 443.5 64 443.5 64 523.5 64 c 0,36,37
 560.5 64 560.5 64 594.5 73.5 c 128,-1,38
 628.5 83 628.5 83 660.5 99 c 1,39,-1
 660.5 21 l 1,40,41
 631.5 5 631.5 5 596.5 -2.5 c 128,-1,42
 561.5 -10 561.5 -10 514.5 -10 c 0,19,20
EndSplineSet
EndChar

StartChar: D
Encoding: 68 68 44
Width: 917
Flags: W
AnchorPoint: "Anchor-2" 458 622 basechar 0
AnchorPoint: "Anchor-1" 600 0 basechar 0
AnchorPoint: "Anchor-0" 464 622 basechar 0
LayerCount: 2
Fore
SplineSet
770 622 m 1,0,-1
 770 551 l 1,1,-1
 316 551 l 1,2,-1
 316 253 l 1,3,-1
 302 273 l 1,4,5
 342 318 342 318 393 357 c 128,-1,6
 444 396 444 396 504 428.5 c 128,-1,7
 564 461 564 461 632 486 c 1,8,-1
 697 422 l 1,9,10
 678 387 678 387 666.5 354 c 128,-1,11
 655 321 655 321 649.5 285 c 128,-1,12
 644 249 644 249 644 205 c 0,13,14
 644 156 644 156 652 111 c 128,-1,15
 660 66 660 66 679 10 c 1,16,-1
 604 -7 l 1,17,18
 586 51 586 51 576 106.5 c 128,-1,19
 566 162 566 162 566 222 c 0,20,21
 566 263 566 263 572 299 c 128,-1,22
 578 335 578 335 588.5 363.5 c 128,-1,23
 599 392 599 392 610 410 c 1,24,-1
 622 405 l 1,25,26
 565 382 565 382 511 349 c 128,-1,27
 457 316 457 316 405 273 c 128,-1,28
 353 230 353 230 298 175 c 1,29,-1
 239 215 l 1,30,-1
 239 551 l 1,31,-1
 147 551 l 1,32,-1
 147 622 l 1,33,-1
 770 622 l 1,0,-1
EndSplineSet
EndChar

StartChar: E
Encoding: 69 69 45
Width: 917
Flags: W
AnchorPoint: "Anchor-1" 459.5 766 basechar 0
LayerCount: 2
Fore
SplineSet
413.5 606 m 5,0,1
 400.5 629 400.5 629 378.5 655.5 c 132,-1,2
 356.5 682 356.5 682 332.5 708 c 132,-1,3
 308.5 734 308.5 734 290.5 753 c 5,4,-1
 290.5 766 l 5,5,-1
 350.5 766 l 5,6,7
 376.5 749 376.5 749 404.5 725 c 132,-1,8
 432.5 701 432.5 701 457.5 674 c 5,9,10
 484.5 701 484.5 701 512.5 725 c 132,-1,11
 540.5 749 540.5 749 566.5 766 c 5,12,-1
 628.5 766 l 5,13,-1
 628.5 753 l 5,14,15
 609.5 734 609.5 734 585 708 c 132,-1,16
 560.5 682 560.5 682 538 655.5 c 132,-1,17
 515.5 629 515.5 629 503.5 606 c 5,18,-1
 413.5 606 l 5,0,1
466.5 546 m 0,19,20
 535.5 546 535.5 546 585 516 c 128,-1,21
 634.5 486 634.5 486 661 431.5 c 128,-1,22
 687.5 377 687.5 377 687.5 304 c 2,23,-1
 687.5 251 l 1,24,-1
 320.5 251 l 1,25,26
 322.5 160 322.5 160 367 112.5 c 128,-1,27
 411.5 65 411.5 65 491.5 65 c 0,28,29
 542.5 65 542.5 65 582 74.5 c 128,-1,30
 621.5 84 621.5 84 663.5 102 c 1,31,-1
 663.5 25 l 1,32,33
 622.5 7 622.5 7 582.5 -1.5 c 128,-1,34
 542.5 -10 542.5 -10 487.5 -10 c 0,35,36
 411.5 -10 411.5 -10 353 21 c 128,-1,37
 294.5 52 294.5 52 262 113.5 c 128,-1,38
 229.5 175 229.5 175 229.5 264 c 0,39,40
 229.5 352 229.5 352 259 415 c 128,-1,41
 288.5 478 288.5 478 342 512 c 128,-1,42
 395.5 546 395.5 546 466.5 546 c 0,19,20
465.5 474 m 0,43,44
 402.5 474 402.5 474 366 433.5 c 128,-1,45
 329.5 393 329.5 393 322.5 321 c 1,46,-1
 595.5 321 l 1,47,48
 595.5 367 595.5 367 581.5 401 c 128,-1,49
 567.5 435 567.5 435 539 454.5 c 128,-1,50
 510.5 474 510.5 474 465.5 474 c 0,43,44
EndSplineSet
EndChar

StartChar: F
Encoding: 70 70 46
Width: 917
Flags: W
LayerCount: 2
Fore
SplineSet
253 85 m 0,0,1
 253 103 253 103 268.5 118 c 128,-1,2
 284 133 284 133 312 144.5 c 128,-1,3
 340 156 340 156 377.5 162.5 c 128,-1,4
 415 169 415 169 458 169 c 0,5,6
 502 169 502 169 539.5 162.5 c 128,-1,7
 577 156 577 156 604.5 144.5 c 128,-1,8
 632 133 632 133 648 118 c 128,-1,9
 664 103 664 103 664 85 c 0,10,11
 664 68 664 68 648 53 c 128,-1,12
 632 38 632 38 604.5 27 c 128,-1,13
 577 16 577 16 539.5 9.5 c 128,-1,14
 502 3 502 3 458 3 c 0,15,16
 415 3 415 3 377.5 9.5 c 128,-1,17
 340 16 340 16 312 27 c 128,-1,18
 284 38 284 38 268.5 53 c 128,-1,19
 253 68 253 68 253 85 c 0,0,1
253 272 m 0,20,21
 253 290 253 290 268.5 305 c 128,-1,22
 284 320 284 320 312 331.5 c 128,-1,23
 340 343 340 343 377.5 349 c 128,-1,24
 415 355 415 355 458 355 c 0,25,26
 502 355 502 355 539.5 349 c 128,-1,27
 577 343 577 343 604.5 331.5 c 128,-1,28
 632 320 632 320 648 305 c 128,-1,29
 664 290 664 290 664 272 c 0,30,31
 664 255 664 255 648 240 c 128,-1,32
 632 225 632 225 604.5 214 c 128,-1,33
 577 203 577 203 539.5 196 c 128,-1,34
 502 189 502 189 458 189 c 0,35,36
 415 189 415 189 377.5 196 c 128,-1,37
 340 203 340 203 312 214 c 128,-1,38
 284 225 284 225 268.5 240 c 128,-1,39
 253 255 253 255 253 272 c 0,20,21
253 461 m 256,40,41
 253 478 253 478 268.5 493.5 c 128,-1,42
 284 509 284 509 312 520 c 128,-1,43
 340 531 340 531 377.5 537.5 c 128,-1,44
 415 544 415 544 458 544 c 0,45,46
 502 544 502 544 539.5 537.5 c 128,-1,47
 577 531 577 531 604.5 520 c 128,-1,48
 632 509 632 509 648 493.5 c 128,-1,49
 664 478 664 478 664 461 c 256,50,51
 664 444 664 444 648 429 c 128,-1,52
 632 414 632 414 604.5 402.5 c 128,-1,53
 577 391 577 391 539.5 384.5 c 128,-1,54
 502 378 502 378 458 378 c 0,55,56
 415 378 415 378 377.5 384.5 c 128,-1,57
 340 391 340 391 312 402.5 c 128,-1,58
 284 414 284 414 268.5 429 c 128,-1,59
 253 444 253 444 253 461 c 256,40,41
253 648 m 256,60,61
 253 665 253 665 268.5 680.5 c 128,-1,62
 284 696 284 696 312 707 c 128,-1,63
 340 718 340 718 377.5 724.5 c 128,-1,64
 415 731 415 731 458 731 c 0,65,66
 502 731 502 731 539.5 724.5 c 128,-1,67
 577 718 577 718 604.5 707 c 128,-1,68
 632 696 632 696 648 680.5 c 128,-1,69
 664 665 664 665 664 648 c 256,70,71
 664 631 664 631 648 616 c 128,-1,72
 632 601 632 601 604.5 589.5 c 128,-1,73
 577 578 577 578 539.5 571.5 c 128,-1,74
 502 565 502 565 458 565 c 0,75,76
 415 565 415 565 377.5 571.5 c 128,-1,77
 340 578 340 578 312 589.5 c 128,-1,78
 284 601 284 601 268.5 616 c 128,-1,79
 253 631 253 631 253 648 c 256,60,61
EndSplineSet
EndChar

StartChar: G
Encoding: 71 71 47
Width: 917
Flags: W
AnchorPoint: "Anchor-1" 451 766 basechar 0
LayerCount: 2
Fore
SplineSet
405 637 m 5,0,1
 392 660 392 660 370 686.5 c 132,-1,2
 348 713 348 713 324 739 c 132,-1,3
 300 765 300 765 282 784 c 5,4,-1
 282 797 l 5,5,-1
 342 797 l 5,6,7
 368 780 368 780 396 756 c 132,-1,8
 424 732 424 732 449 705 c 5,9,10
 476 732 476 732 504 756 c 132,-1,11
 532 780 532 780 558 797 c 5,12,-1
 620 797 l 5,13,-1
 620 784 l 5,14,15
 601 765 601 765 576.5 739 c 132,-1,16
 552 713 552 713 529.5 686.5 c 132,-1,17
 507 660 507 660 495 637 c 5,18,-1
 405 637 l 5,0,1
441 546 m 0,19,20
 494 546 494 546 536.5 526 c 128,-1,21
 579 506 579 506 609 465 c 1,22,-1
 614 465 l 1,23,-1
 626 536 l 1,24,-1
 696 536 l 1,25,-1
 696 -9 l 2,26,27
 696 -85 696 -85 670 -136.5 c 128,-1,28
 644 -188 644 -188 591 -214 c 128,-1,29
 538 -240 538 -240 456 -240 c 0,30,31
 398 -240 398 -240 349.5 -231.5 c 128,-1,32
 301 -223 301 -223 263 -206 c 1,33,-1
 263 -125 l 1,34,35
 301 -145 301 -145 352 -156 c 128,-1,36
 403 -167 403 -167 461 -167 c 0,37,38
 530 -167 530 -167 569.5 -126.5 c 128,-1,39
 609 -86 609 -86 609 -16 c 2,40,-1
 609 5 l 2,41,42
 609 17 609 17 610 39.5 c 128,-1,43
 611 62 611 62 612 71 c 1,44,-1
 608 71 l 1,45,46
 580 30 580 30 538.5 10 c 128,-1,47
 497 -10 497 -10 442 -10 c 0,48,49
 338 -10 338 -10 279.5 63 c 128,-1,50
 221 136 221 136 221 267 c 0,51,52
 221 395 221 395 279.5 470.5 c 128,-1,53
 338 546 338 546 441 546 c 0,19,20
453 472 m 0,54,55
 408 472 408 472 376.5 448 c 128,-1,56
 345 424 345 424 328.5 378 c 128,-1,57
 312 332 312 332 312 266 c 0,58,59
 312 167 312 167 348.5 114.5 c 128,-1,60
 385 62 385 62 455 62 c 0,61,62
 496 62 496 62 525 72.5 c 128,-1,63
 554 83 554 83 573 105.5 c 128,-1,64
 592 128 592 128 601 163 c 128,-1,65
 610 198 610 198 610 246 c 2,66,-1
 610 267 l 2,67,68
 610 340 610 340 593.5 385 c 128,-1,69
 577 430 577 430 542 451 c 128,-1,70
 507 472 507 472 453 472 c 0,54,55
EndSplineSet
EndChar

StartChar: H
Encoding: 72 72 48
Width: 917
Flags: W
AnchorPoint: "Anchor-2" 446 622 basechar 0
AnchorPoint: "Anchor-1" 449 0 basechar 0
AnchorPoint: "Anchor-0" 414 622 basechar 0
LayerCount: 2
Fore
SplineSet
423 500 m 0,0,1
 502 500 502 500 550.5 473.5 c 128,-1,2
 599 447 599 447 622 406.5 c 128,-1,3
 645 366 645 366 645 325 c 0,4,5
 645 243 645 243 587.5 195 c 128,-1,6
 530 147 530 147 417 141 c 1,7,-1
 427 152 l 1,8,9
 472 139 472 139 522 115 c 128,-1,10
 572 91 572 91 623 59.5 c 128,-1,11
 674 28 674 28 721 -10 c 1,12,-1
 675 -63 l 1,13,14
 613 -17 613 -17 561.5 16.5 c 128,-1,15
 510 50 510 50 460 75 c 128,-1,16
 410 100 410 100 354 119 c 128,-1,17
 298 138 298 138 227 154 c 1,18,-1
 242 223 l 1,19,20
 277 213 277 213 309.5 208.5 c 128,-1,21
 342 204 342 204 388 204 c 0,22,23
 459 204 459 204 497.5 221 c 128,-1,24
 536 238 536 238 551 265 c 128,-1,25
 566 292 566 292 566 320 c 0,26,27
 566 373 566 373 527 401.5 c 128,-1,28
 488 430 488 430 428 430 c 0,29,30
 392 430 392 430 370 423 c 128,-1,31
 348 416 348 416 338.5 402.5 c 128,-1,32
 329 389 329 389 329 370 c 0,33,34
 329 362 329 362 331 353.5 c 128,-1,35
 333 345 333 345 335 338 c 1,36,-1
 262 323 l 1,37,38
 257 338 257 338 254 354.5 c 128,-1,39
 251 371 251 371 251 384 c 0,40,41
 251 421 251 421 273 447 c 128,-1,42
 295 473 295 473 333.5 486.5 c 128,-1,43
 372 500 372 500 423 500 c 0,0,1
356 465 m 1,44,45
 351 497 351 497 326 521.5 c 128,-1,46
 301 546 301 546 254 556 c 1,47,-1
 278 601 l 1,48,-1
 324 589 l 1,49,50
 380 567 380 567 405.5 539 c 128,-1,51
 431 511 431 511 435 468 c 1,52,-1
 356 465 l 1,44,45
667 622 m 5,53,-1
 667 551 l 5,54,-1
 196 551 l 1,55,-1
 196 622 l 1,56,-1
 667 622 l 5,53,-1
EndSplineSet
EndChar

StartChar: I
Encoding: 73 73 49
Width: 917
Flags: W
AnchorPoint: "Anchor-1" 450.471 635.345 basechar 0
LayerCount: 2
Fore
SplineSet
424.919921875 608.530273438 m 5,0,1
 415.4296875 629 415.4296875 629 399.370117188 652.584960938 c 132,-1,2
 383.309570312 676.169921875 383.309570312 676.169921875 365.790039062 699.309570312 c 132,-1,3
 348.26953125 722.450195312 348.26953125 722.450195312 335.129882812 739.360351562 c 5,4,-1
 335.129882812 750.9296875 l 5,5,-1
 378.9296875 750.9296875 l 5,6,7
 397.91015625 735.799804688 397.91015625 735.799804688 418.349609375 714.440429688 c 132,-1,8
 438.790039062 693.080078125 438.790039062 693.080078125 457.040039062 669.049804688 c 5,9,10
 476.75 693.080078125 476.75 693.080078125 497.189453125 714.440429688 c 132,-1,11
 517.629882812 735.799804688 517.629882812 735.799804688 536.609375 750.9296875 c 5,12,-1
 581.870117188 750.9296875 l 5,13,-1
 581.870117188 739.360351562 l 5,14,15
 568 722.450195312 568 722.450195312 550.114257812 699.309570312 c 132,-1,16
 532.229492188 676.169921875 532.229492188 676.169921875 515.8046875 652.584960938 c 132,-1,17
 499.379882812 629 499.379882812 629 490.620117188 608.530273438 c 5,18,-1
 424.919921875 608.530273438 l 5,0,1
503.469726562 536 m 1,19,-1
 503.469726562 0 l 1,20,-1
 415.469726562 0 l 1,21,-1
 415.469726562 536 l 1,22,-1
 503.469726562 536 l 1,19,-1
EndSplineSet
EndChar

StartChar: J
Encoding: 74 74 50
Width: 917
Flags: W
LayerCount: 2
Fore
SplineSet
253 85 m 0,0,1
 253 103 253 103 268.5 118 c 128,-1,2
 284 133 284 133 312 144.5 c 128,-1,3
 340 156 340 156 377.5 162.5 c 128,-1,4
 415 169 415 169 458 169 c 0,5,6
 502 169 502 169 539.5 162.5 c 128,-1,7
 577 156 577 156 604.5 144.5 c 128,-1,8
 632 133 632 133 648 118 c 128,-1,9
 664 103 664 103 664 85 c 0,10,11
 664 68 664 68 648 53 c 128,-1,12
 632 38 632 38 604.5 27 c 128,-1,13
 577 16 577 16 539.5 9.5 c 128,-1,14
 502 3 502 3 458 3 c 0,15,16
 415 3 415 3 377.5 9.5 c 128,-1,17
 340 16 340 16 312 27 c 128,-1,18
 284 38 284 38 268.5 53 c 128,-1,19
 253 68 253 68 253 85 c 0,0,1
253 272 m 0,20,21
 253 290 253 290 268.5 305 c 128,-1,22
 284 320 284 320 312 331.5 c 128,-1,23
 340 343 340 343 377.5 349 c 128,-1,24
 415 355 415 355 458 355 c 0,25,26
 502 355 502 355 539.5 349 c 128,-1,27
 577 343 577 343 604.5 331.5 c 128,-1,28
 632 320 632 320 648 305 c 128,-1,29
 664 290 664 290 664 272 c 0,30,31
 664 255 664 255 648 240 c 128,-1,32
 632 225 632 225 604.5 214 c 128,-1,33
 577 203 577 203 539.5 196 c 128,-1,34
 502 189 502 189 458 189 c 0,35,36
 415 189 415 189 377.5 196 c 128,-1,37
 340 203 340 203 312 214 c 128,-1,38
 284 225 284 225 268.5 240 c 128,-1,39
 253 255 253 255 253 272 c 0,20,21
253 461 m 256,40,41
 253 478 253 478 268.5 493.5 c 128,-1,42
 284 509 284 509 312 520 c 128,-1,43
 340 531 340 531 377.5 537.5 c 128,-1,44
 415 544 415 544 458 544 c 0,45,46
 502 544 502 544 539.5 537.5 c 128,-1,47
 577 531 577 531 604.5 520 c 128,-1,48
 632 509 632 509 648 493.5 c 128,-1,49
 664 478 664 478 664 461 c 256,50,51
 664 444 664 444 648 429 c 128,-1,52
 632 414 632 414 604.5 402.5 c 128,-1,53
 577 391 577 391 539.5 384.5 c 128,-1,54
 502 378 502 378 458 378 c 0,55,56
 415 378 415 378 377.5 384.5 c 128,-1,57
 340 391 340 391 312 402.5 c 128,-1,58
 284 414 284 414 268.5 429 c 128,-1,59
 253 444 253 444 253 461 c 256,40,41
333 461 m 256,60,61
 333 450 333 450 342.5 440.5 c 128,-1,62
 352 431 352 431 369 424 c 128,-1,63
 386 417 386 417 409 413 c 128,-1,64
 432 409 432 409 458 409 c 0,65,66
 485 409 485 409 507.5 413 c 128,-1,67
 530 417 530 417 547 424 c 128,-1,68
 564 431 564 431 573.5 440.5 c 128,-1,69
 583 450 583 450 583 461 c 256,70,71
 583 472 583 472 573.5 481.5 c 128,-1,72
 564 491 564 491 547 498 c 128,-1,73
 530 505 530 505 507.5 509 c 128,-1,74
 485 513 485 513 458 513 c 0,75,76
 432 513 432 513 409 509 c 128,-1,77
 386 505 386 505 369 498 c 128,-1,78
 352 491 352 491 342.5 481.5 c 128,-1,79
 333 472 333 472 333 461 c 256,60,61
253 648 m 256,80,81
 253 665 253 665 268.5 680.5 c 128,-1,82
 284 696 284 696 312 707 c 128,-1,83
 340 718 340 718 377.5 724.5 c 128,-1,84
 415 731 415 731 458 731 c 0,85,86
 502 731 502 731 539.5 724.5 c 128,-1,87
 577 718 577 718 604.5 707 c 128,-1,88
 632 696 632 696 648 680.5 c 128,-1,89
 664 665 664 665 664 648 c 256,90,91
 664 631 664 631 648 616 c 128,-1,92
 632 601 632 601 604.5 589.5 c 128,-1,93
 577 578 577 578 539.5 571.5 c 128,-1,94
 502 565 502 565 458 565 c 0,95,96
 415 565 415 565 377.5 571.5 c 128,-1,97
 340 578 340 578 312 589.5 c 128,-1,98
 284 601 284 601 268.5 616 c 128,-1,99
 253 631 253 631 253 648 c 256,80,81
EndSplineSet
EndChar

StartChar: K
Encoding: 75 75 51
Width: 917
Flags: W
AnchorPoint: "Anchor-2" 512.5 622 basechar 0
AnchorPoint: "Anchor-1" 474.5 0 basechar 0
AnchorPoint: "Anchor-0" 474.5 622 basechar 0
LayerCount: 2
Fore
SplineSet
431.5 638 m 5,0,1
 418.5 661 418.5 661 396.5 687.5 c 132,-1,2
 374.5 714 374.5 714 350.5 740 c 132,-1,3
 326.5 766 326.5 766 308.5 785 c 5,4,-1
 308.5 798 l 5,5,-1
 368.5 798 l 5,6,7
 394.5 781 394.5 781 422.5 757 c 132,-1,8
 450.5 733 450.5 733 475.5 706 c 5,9,10
 502.5 733 502.5 733 530.5 757 c 132,-1,11
 558.5 781 558.5 781 584.5 798 c 5,12,-1
 646.5 798 l 5,13,-1
 646.5 785 l 5,14,15
 627.5 766 627.5 766 603 740 c 132,-1,16
 578.5 714 578.5 714 556 687.5 c 132,-1,17
 533.5 661 533.5 661 521.5 638 c 5,18,-1
 431.5 638 l 5,0,1
789.5 622 m 1,19,-1
 789.5 551 l 1,20,-1
 551.5 551 l 1,21,-1
 551.5 489 l 1,22,-1
 551.5 473 l 1,23,-1
 551.5 0 l 1,24,-1
 474.5 0 l 1,25,26
 445.5 59 445.5 59 393.5 111 c 128,-1,27
 341.5 163 341.5 163 275 198.5 c 128,-1,28
 208.5 234 208.5 234 135.5 243 c 1,29,-1
 96.5 339 l 1,30,31
 193.5 395 193.5 395 290.5 439 c 128,-1,32
 387.5 483 387.5 483 496.5 517 c 1,33,-1
 474.5 475 l 1,34,-1
 474.5 551 l 1,35,-1
 123.5 551 l 1,36,-1
 123.5 622 l 1,37,-1
 789.5 622 l 1,19,-1
474.5 467 m 1,38,-1
 495.5 438 l 1,39,40
 444.5 424 444.5 424 390 401 c 128,-1,41
 335.5 378 335.5 378 284 353 c 128,-1,42
 232.5 328 232.5 328 189.5 304 c 1,43,44
 245.5 293 245.5 293 305 262 c 128,-1,45
 364.5 231 364.5 231 414 186.5 c 128,-1,46
 463.5 142 463.5 142 487.5 90 c 1,47,-1
 479.5 88 l 1,48,49
 477.5 111 477.5 111 476 134 c 128,-1,50
 474.5 157 474.5 157 474.5 189 c 2,51,-1
 474.5 467 l 1,38,-1
820.5 288 m 0,52,53
 820.5 255 820.5 255 807.5 225.5 c 128,-1,54
 794.5 196 794.5 196 764.5 177 c 128,-1,55
 734.5 158 734.5 158 684.5 158 c 0,56,57
 668.5 158 668.5 158 654 159 c 128,-1,58
 639.5 160 639.5 160 625.5 163 c 1,59,-1
 631.5 235 l 1,60,61
 637.5 234 637.5 234 646 233.5 c 128,-1,62
 654.5 233 654.5 233 665.5 233 c 0,63,64
 713.5 233 713.5 233 728 251.5 c 128,-1,65
 742.5 270 742.5 270 742.5 296 c 0,66,67
 742.5 349 742.5 349 691 386.5 c 128,-1,68
 639.5 424 639.5 424 538.5 438 c 1,69,-1
 541.5 513 l 1,70,71
 618.5 505 618.5 505 681.5 474.5 c 128,-1,72
 744.5 444 744.5 444 782.5 396.5 c 128,-1,73
 820.5 349 820.5 349 820.5 288 c 0,52,53
EndSplineSet
EndChar

StartChar: L
Encoding: 76 76 52
Width: 917
Flags: W
LayerCount: 2
Fore
SplineSet
253 85 m 0,0,1
 253 103 253 103 268.5 118 c 128,-1,2
 284 133 284 133 312 144.5 c 128,-1,3
 340 156 340 156 377.5 162.5 c 128,-1,4
 415 169 415 169 458 169 c 0,5,6
 502 169 502 169 539.5 162.5 c 128,-1,7
 577 156 577 156 604.5 144.5 c 128,-1,8
 632 133 632 133 648 118 c 128,-1,9
 664 103 664 103 664 85 c 0,10,11
 664 68 664 68 648 53 c 128,-1,12
 632 38 632 38 604.5 27 c 128,-1,13
 577 16 577 16 539.5 9.5 c 128,-1,14
 502 3 502 3 458 3 c 0,15,16
 415 3 415 3 377.5 9.5 c 128,-1,17
 340 16 340 16 312 27 c 128,-1,18
 284 38 284 38 268.5 53 c 128,-1,19
 253 68 253 68 253 85 c 0,0,1
333 85 m 256,20,21
 333 74 333 74 342.5 64.5 c 128,-1,22
 352 55 352 55 369 48.5 c 128,-1,23
 386 42 386 42 409 38 c 128,-1,24
 432 34 432 34 458 34 c 0,25,26
 485 34 485 34 507.5 38 c 128,-1,27
 530 42 530 42 547 48.5 c 128,-1,28
 564 55 564 55 573.5 64.5 c 128,-1,29
 583 74 583 74 583 85 c 256,30,31
 583 96 583 96 573.5 105.5 c 128,-1,32
 564 115 564 115 547 122 c 128,-1,33
 530 129 530 129 507.5 133 c 128,-1,34
 485 137 485 137 458 137 c 0,35,36
 432 137 432 137 409 133 c 128,-1,37
 386 129 386 129 369 122 c 128,-1,38
 352 115 352 115 342.5 105.5 c 128,-1,39
 333 96 333 96 333 85 c 256,20,21
253 272 m 0,40,41
 253 290 253 290 268.5 305 c 128,-1,42
 284 320 284 320 312 331.5 c 128,-1,43
 340 343 340 343 377.5 349 c 128,-1,44
 415 355 415 355 458 355 c 0,45,46
 502 355 502 355 539.5 349 c 128,-1,47
 577 343 577 343 604.5 331.5 c 128,-1,48
 632 320 632 320 648 305 c 128,-1,49
 664 290 664 290 664 272 c 0,50,51
 664 255 664 255 648 240 c 128,-1,52
 632 225 632 225 604.5 214 c 128,-1,53
 577 203 577 203 539.5 196 c 128,-1,54
 502 189 502 189 458 189 c 0,55,56
 415 189 415 189 377.5 196 c 128,-1,57
 340 203 340 203 312 214 c 128,-1,58
 284 225 284 225 268.5 240 c 128,-1,59
 253 255 253 255 253 272 c 0,40,41
253 461 m 256,60,61
 253 478 253 478 268.5 493.5 c 128,-1,62
 284 509 284 509 312 520 c 128,-1,63
 340 531 340 531 377.5 537.5 c 128,-1,64
 415 544 415 544 458 544 c 0,65,66
 502 544 502 544 539.5 537.5 c 128,-1,67
 577 531 577 531 604.5 520 c 128,-1,68
 632 509 632 509 648 493.5 c 128,-1,69
 664 478 664 478 664 461 c 256,70,71
 664 444 664 444 648 429 c 128,-1,72
 632 414 632 414 604.5 402.5 c 128,-1,73
 577 391 577 391 539.5 384.5 c 128,-1,74
 502 378 502 378 458 378 c 0,75,76
 415 378 415 378 377.5 384.5 c 128,-1,77
 340 391 340 391 312 402.5 c 128,-1,78
 284 414 284 414 268.5 429 c 128,-1,79
 253 444 253 444 253 461 c 256,60,61
333 461 m 256,80,81
 333 450 333 450 342.5 440.5 c 128,-1,82
 352 431 352 431 369 424 c 128,-1,83
 386 417 386 417 409 413 c 128,-1,84
 432 409 432 409 458 409 c 0,85,86
 485 409 485 409 507.5 413 c 128,-1,87
 530 417 530 417 547 424 c 128,-1,88
 564 431 564 431 573.5 440.5 c 128,-1,89
 583 450 583 450 583 461 c 256,90,91
 583 472 583 472 573.5 481.5 c 128,-1,92
 564 491 564 491 547 498 c 128,-1,93
 530 505 530 505 507.5 509 c 128,-1,94
 485 513 485 513 458 513 c 0,95,96
 432 513 432 513 409 509 c 128,-1,97
 386 505 386 505 369 498 c 128,-1,98
 352 491 352 491 342.5 481.5 c 128,-1,99
 333 472 333 472 333 461 c 256,80,81
253 648 m 256,100,101
 253 665 253 665 268.5 680.5 c 128,-1,102
 284 696 284 696 312 707 c 128,-1,103
 340 718 340 718 377.5 724.5 c 128,-1,104
 415 731 415 731 458 731 c 0,105,106
 502 731 502 731 539.5 724.5 c 128,-1,107
 577 718 577 718 604.5 707 c 128,-1,108
 632 696 632 696 648 680.5 c 128,-1,109
 664 665 664 665 664 648 c 256,110,111
 664 631 664 631 648 616 c 128,-1,112
 632 601 632 601 604.5 589.5 c 128,-1,113
 577 578 577 578 539.5 571.5 c 128,-1,114
 502 565 502 565 458 565 c 0,115,116
 415 565 415 565 377.5 571.5 c 128,-1,117
 340 578 340 578 312 589.5 c 128,-1,118
 284 601 284 601 268.5 616 c 128,-1,119
 253 631 253 631 253 648 c 256,100,101
EndSplineSet
EndChar

StartChar: M
Encoding: 77 77 53
Width: 917
Flags: W
AnchorPoint: "Anchor-2" 457.5 622 basechar 0
AnchorPoint: "Anchor-1" 596.5 0 basechar 0
LayerCount: 2
Fore
SplineSet
385.5 637 m 5,0,1
 372.5 660 372.5 660 350.5 686.5 c 132,-1,2
 328.5 713 328.5 713 304.5 739 c 132,-1,3
 280.5 765 280.5 765 262.5 784 c 5,4,-1
 262.5 797 l 5,5,-1
 322.5 797 l 5,6,7
 348.5 780 348.5 780 376.5 756 c 132,-1,8
 404.5 732 404.5 732 429.5 705 c 5,9,10
 456.5 732 456.5 732 484.5 756 c 132,-1,11
 512.5 780 512.5 780 538.5 797 c 5,12,-1
 600.5 797 l 5,13,-1
 600.5 784 l 5,14,15
 581.5 765 581.5 765 557 739 c 132,-1,16
 532.5 713 532.5 713 510 686.5 c 132,-1,17
 487.5 660 487.5 660 475.5 637 c 5,18,-1
 385.5 637 l 5,0,1
760.5 622 m 1,19,-1
 760.5 551 l 1,20,-1
 673.5 551 l 1,21,-1
 673.5 0 l 1,22,-1
 596.5 0 l 1,23,-1
 596.5 135 l 1,24,-1
 614.5 82 l 1,25,26
 579.5 135 579.5 135 544 180 c 128,-1,27
 508.5 225 508.5 225 469 253 c 128,-1,28
 429.5 281 429.5 281 382.5 281 c 0,29,30
 345.5 281 345.5 281 320 262 c 128,-1,31
 294.5 243 294.5 243 294.5 205 c 0,32,33
 294.5 172 294.5 172 318.5 149.5 c 128,-1,34
 342.5 127 342.5 127 389.5 111 c 1,35,-1
 364.5 34 l 1,36,37
 310.5 53 310.5 53 277 80 c 128,-1,38
 243.5 107 243.5 107 228 139.5 c 128,-1,39
 212.5 172 212.5 172 212.5 208 c 0,40,41
 212.5 256 212.5 256 236 288 c 128,-1,42
 259.5 320 259.5 320 296 336.5 c 128,-1,43
 332.5 353 332.5 353 369.5 353 c 0,44,45
 429.5 353 429.5 353 475 331 c 128,-1,46
 520.5 309 520.5 309 555 272 c 128,-1,47
 589.5 235 589.5 235 617.5 189 c 1,48,-1
 600.5 186 l 1,49,50
 598.5 209 598.5 209 597.5 232.5 c 128,-1,51
 596.5 256 596.5 256 596.5 281 c 2,52,-1
 596.5 551 l 1,53,-1
 156.5 551 l 1,54,-1
 156.5 622 l 1,55,-1
 760.5 622 l 1,19,-1
445.5 323 m 0,56,57
 445.5 317 445.5 317 445 311 c 128,-1,58
 444.5 305 444.5 305 443.5 299 c 1,59,-1
 367.5 322 l 1,60,61
 365.5 380 365.5 380 347.5 415 c 128,-1,62
 329.5 450 329.5 450 290.5 468.5 c 128,-1,63
 251.5 487 251.5 487 184.5 494 c 1,64,-1
 197.5 566 l 1,65,-1
 243.5 553 l 1,66,67
 291.5 549 291.5 549 329 533.5 c 128,-1,68
 366.5 518 366.5 518 392.5 490 c 128,-1,69
 418.5 462 418.5 462 432 420.5 c 128,-1,70
 445.5 379 445.5 379 445.5 323 c 0,56,57
EndSplineSet
EndChar

StartChar: N
Encoding: 78 78 54
Width: 917
Flags: W
AnchorPoint: "Anchor-2" 720.5 536 basechar 0
AnchorPoint: "Anchor-1" 458.5 536 basechar 0
AnchorPoint: "Anchor-0" 458.5 0 basechar 0
LayerCount: 2
Fore
SplineSet
227.5 0 m 1,0,-1
 227.5 536 l 1,1,-1
 335.5 536 l 1,2,-1
 612.5 104 l 1,3,4
 611.5 118 611.5 118 610 142 c 128,-1,5
 608.5 166 608.5 166 607.5 190 c 128,-1,6
 606.5 214 606.5 214 606.5 226 c 2,7,-1
 606.5 536 l 1,8,-1
 689.5 536 l 1,9,-1
 689.5 0 l 1,10,-1
 580.5 0 l 1,11,-1
 306.5 431 l 1,12,13
 307.5 418 307.5 418 308.5 392.5 c 128,-1,14
 309.5 367 309.5 367 310 341 c 128,-1,15
 310.5 315 310.5 315 310.5 299 c 2,16,-1
 310.5 0 l 1,17,-1
 227.5 0 l 1,0,-1
EndSplineSet
EndChar

StartChar: O
Encoding: 79 79 55
Width: 917
Flags: W
AnchorPoint: "Anchor-1" 440.5 766 basechar 0
LayerCount: 2
Fore
SplineSet
394.5 606 m 5,0,1
 381.5 629 381.5 629 359.5 655.5 c 132,-1,2
 337.5 682 337.5 682 313.5 708 c 132,-1,3
 289.5 734 289.5 734 271.5 753 c 5,4,-1
 271.5 766 l 5,5,-1
 331.5 766 l 5,6,7
 357.5 749 357.5 749 385.5 725 c 132,-1,8
 413.5 701 413.5 701 438.5 674 c 5,9,10
 465.5 701 465.5 701 493.5 725 c 132,-1,11
 521.5 749 521.5 749 547.5 766 c 5,12,-1
 609.5 766 l 5,13,-1
 609.5 753 l 5,14,15
 590.5 734 590.5 734 566 708 c 132,-1,16
 541.5 682 541.5 682 519 655.5 c 132,-1,17
 496.5 629 496.5 629 484.5 606 c 5,18,-1
 394.5 606 l 5,0,1
706.5 269 m 0,19,20
 706.5 202 706.5 202 689 150.5 c 128,-1,21
 671.5 99 671.5 99 639 63 c 128,-1,22
 606.5 27 606.5 27 560 8.5 c 128,-1,23
 513.5 -10 513.5 -10 456.5 -10 c 0,24,25
 403.5 -10 403.5 -10 358.5 8.5 c 128,-1,26
 313.5 27 313.5 27 280.5 63 c 128,-1,27
 247.5 99 247.5 99 229 150.5 c 128,-1,28
 210.5 202 210.5 202 210.5 269 c 0,29,30
 210.5 358 210.5 358 240.5 419.5 c 128,-1,31
 270.5 481 270.5 481 326.5 513.5 c 128,-1,32
 382.5 546 382.5 546 459.5 546 c 0,33,34
 532.5 546 532.5 546 588 513.5 c 128,-1,35
 643.5 481 643.5 481 675 419.5 c 128,-1,36
 706.5 358 706.5 358 706.5 269 c 0,19,20
301.5 269 m 0,37,38
 301.5 206 301.5 206 318 159.5 c 128,-1,39
 334.5 113 334.5 113 369.5 88 c 128,-1,40
 404.5 63 404.5 63 458.5 63 c 256,41,42
 512.5 63 512.5 63 547.5 88 c 128,-1,43
 582.5 113 582.5 113 599 159.5 c 128,-1,44
 615.5 206 615.5 206 615.5 269 c 0,45,46
 615.5 333 615.5 333 598.5 378 c 128,-1,47
 581.5 423 581.5 423 547 447.5 c 128,-1,48
 512.5 472 512.5 472 457.5 472 c 0,49,50
 375.5 472 375.5 472 338.5 418 c 128,-1,51
 301.5 364 301.5 364 301.5 269 c 0,37,38
EndSplineSet
EndChar

StartChar: P
Encoding: 80 80 56
Width: 917
Flags: W
AnchorPoint: "Anchor-2" 442.5 622 basechar 0
AnchorPoint: "Anchor-1" 628.5 0 basechar 0
AnchorPoint: "Anchor-0" 567.5 622 basechar 0
LayerCount: 2
Fore
SplineSet
323.5 638 m 5,0,1
 310.5 661 310.5 661 288.5 687.5 c 132,-1,2
 266.5 714 266.5 714 242.5 740 c 132,-1,3
 218.5 766 218.5 766 200.5 785 c 5,4,-1
 200.5 798 l 5,5,-1
 260.5 798 l 5,6,7
 286.5 781 286.5 781 314.5 757 c 132,-1,8
 342.5 733 342.5 733 367.5 706 c 5,9,10
 394.5 733 394.5 733 422.5 757 c 132,-1,11
 450.5 781 450.5 781 476.5 798 c 5,12,-1
 538.5 798 l 5,13,-1
 538.5 785 l 5,14,15
 519.5 766 519.5 766 495 740 c 132,-1,16
 470.5 714 470.5 714 448 687.5 c 132,-1,17
 425.5 661 425.5 661 413.5 638 c 5,18,-1
 323.5 638 l 5,0,1
810.5 622 m 1,19,-1
 810.5 551 l 1,20,-1
 705.5 551 l 1,21,-1
 705.5 0 l 1,22,-1
 628.5 0 l 1,23,-1
 628.5 396 l 1,24,-1
 650.5 332 l 1,25,26
 609.5 392 609.5 392 575.5 434.5 c 128,-1,27
 541.5 477 541.5 477 511 504 c 128,-1,28
 480.5 531 480.5 531 449.5 543.5 c 128,-1,29
 418.5 556 418.5 556 382.5 556 c 0,30,31
 342.5 556 342.5 556 310 541 c 128,-1,32
 277.5 526 277.5 526 250.5 501 c 128,-1,33
 223.5 476 223.5 476 200.5 447 c 1,34,-1
 192.5 445 l 1,35,36
 208.5 455 208.5 455 224 460 c 128,-1,37
 239.5 465 239.5 465 258.5 465 c 0,38,39
 316.5 465 316.5 465 343.5 433.5 c 128,-1,40
 370.5 402 370.5 402 370.5 356 c 0,41,42
 370.5 345 370.5 345 369.5 335 c 128,-1,43
 368.5 325 368.5 325 366.5 320 c 1,44,-1
 349.5 326 l 1,45,46
 361.5 339 361.5 339 372.5 351 c 128,-1,47
 383.5 363 383.5 363 396 375 c 128,-1,48
 408.5 387 408.5 387 421.5 400 c 2,49,-1
 545.5 516 l 1,50,-1
 594.5 463 l 1,51,-1
 310.5 195 l 1,52,-1
 251.5 250 l 1,53,-1
 333.5 328 l 1,54,-1
 297.5 285 l 1,55,-1
 267.5 262 l 1,56,57
 282.5 279 282.5 279 293 298.5 c 128,-1,58
 303.5 318 303.5 318 303.5 343 c 256,59,60
 303.5 368 303.5 368 288.5 383 c 128,-1,61
 273.5 398 273.5 398 244.5 398 c 0,62,63
 228.5 398 228.5 398 213.5 394 c 128,-1,64
 198.5 390 198.5 390 182.5 380 c 1,65,-1
 106.5 452 l 1,66,67
 146.5 505 146.5 505 188.5 544.5 c 128,-1,68
 230.5 584 230.5 584 276.5 606.5 c 128,-1,69
 322.5 629 322.5 629 375.5 629 c 0,70,71
 431.5 629 431.5 629 476.5 608 c 128,-1,72
 521.5 587 521.5 587 563.5 545.5 c 128,-1,73
 605.5 504 605.5 504 651.5 441 c 1,74,-1
 633.5 446 l 1,75,76
 630.5 470 630.5 470 629.5 498 c 128,-1,77
 628.5 526 628.5 526 628.5 558 c 2,78,-1
 628.5 688 l 1,79,-1
 681.5 688 l 1,80,-1
 704.5 622 l 1,81,-1
 810.5 622 l 1,19,-1
EndSplineSet
EndChar

StartChar: Q
Encoding: 81 81 57
Width: 917
Flags: W
LayerCount: 2
Fore
SplineSet
253 85 m 0,0,1
 253 103 253 103 268.5 118 c 128,-1,2
 284 133 284 133 312 144.5 c 128,-1,3
 340 156 340 156 377.5 162.5 c 128,-1,4
 415 169 415 169 458 169 c 0,5,6
 502 169 502 169 539.5 162.5 c 128,-1,7
 577 156 577 156 604.5 144.5 c 128,-1,8
 632 133 632 133 648 118 c 128,-1,9
 664 103 664 103 664 85 c 0,10,11
 664 68 664 68 648 53 c 128,-1,12
 632 38 632 38 604.5 27 c 128,-1,13
 577 16 577 16 539.5 9.5 c 128,-1,14
 502 3 502 3 458 3 c 0,15,16
 415 3 415 3 377.5 9.5 c 128,-1,17
 340 16 340 16 312 27 c 128,-1,18
 284 38 284 38 268.5 53 c 128,-1,19
 253 68 253 68 253 85 c 0,0,1
333 85 m 256,20,21
 333 74 333 74 342.5 64.5 c 128,-1,22
 352 55 352 55 369 48.5 c 128,-1,23
 386 42 386 42 409 38 c 128,-1,24
 432 34 432 34 458 34 c 0,25,26
 485 34 485 34 507.5 38 c 128,-1,27
 530 42 530 42 547 48.5 c 128,-1,28
 564 55 564 55 573.5 64.5 c 128,-1,29
 583 74 583 74 583 85 c 256,30,31
 583 96 583 96 573.5 105.5 c 128,-1,32
 564 115 564 115 547 122 c 128,-1,33
 530 129 530 129 507.5 133 c 128,-1,34
 485 137 485 137 458 137 c 0,35,36
 432 137 432 137 409 133 c 128,-1,37
 386 129 386 129 369 122 c 128,-1,38
 352 115 352 115 342.5 105.5 c 128,-1,39
 333 96 333 96 333 85 c 256,20,21
253 272 m 0,40,41
 253 290 253 290 268.5 305 c 128,-1,42
 284 320 284 320 312 331.5 c 128,-1,43
 340 343 340 343 377.5 349 c 128,-1,44
 415 355 415 355 458 355 c 0,45,46
 502 355 502 355 539.5 349 c 128,-1,47
 577 343 577 343 604.5 331.5 c 128,-1,48
 632 320 632 320 648 305 c 128,-1,49
 664 290 664 290 664 272 c 0,50,51
 664 255 664 255 648 240 c 128,-1,52
 632 225 632 225 604.5 214 c 128,-1,53
 577 203 577 203 539.5 196 c 128,-1,54
 502 189 502 189 458 189 c 0,55,56
 415 189 415 189 377.5 196 c 128,-1,57
 340 203 340 203 312 214 c 128,-1,58
 284 225 284 225 268.5 240 c 128,-1,59
 253 255 253 255 253 272 c 0,40,41
333 272 m 256,60,61
 333 261 333 261 342.5 251.5 c 128,-1,62
 352 242 352 242 369 235 c 128,-1,63
 386 228 386 228 409 224 c 128,-1,64
 432 220 432 220 458 220 c 0,65,66
 485 220 485 220 507.5 224 c 128,-1,67
 530 228 530 228 547 235 c 128,-1,68
 564 242 564 242 573.5 251.5 c 128,-1,69
 583 261 583 261 583 272 c 256,70,71
 583 283 583 283 573.5 292.5 c 128,-1,72
 564 302 564 302 547 309 c 128,-1,73
 530 316 530 316 507.5 320 c 128,-1,74
 485 324 485 324 458 324 c 0,75,76
 432 324 432 324 409 320 c 128,-1,77
 386 316 386 316 369 309 c 128,-1,78
 352 302 352 302 342.5 292.5 c 128,-1,79
 333 283 333 283 333 272 c 256,60,61
253 461 m 256,80,81
 253 478 253 478 268.5 493.5 c 128,-1,82
 284 509 284 509 312 520 c 128,-1,83
 340 531 340 531 377.5 537.5 c 128,-1,84
 415 544 415 544 458 544 c 0,85,86
 502 544 502 544 539.5 537.5 c 128,-1,87
 577 531 577 531 604.5 520 c 128,-1,88
 632 509 632 509 648 493.5 c 128,-1,89
 664 478 664 478 664 461 c 256,90,91
 664 444 664 444 648 429 c 128,-1,92
 632 414 632 414 604.5 402.5 c 128,-1,93
 577 391 577 391 539.5 384.5 c 128,-1,94
 502 378 502 378 458 378 c 0,95,96
 415 378 415 378 377.5 384.5 c 128,-1,97
 340 391 340 391 312 402.5 c 128,-1,98
 284 414 284 414 268.5 429 c 128,-1,99
 253 444 253 444 253 461 c 256,80,81
253 648 m 256,100,101
 253 665 253 665 268.5 680.5 c 128,-1,102
 284 696 284 696 312 707 c 128,-1,103
 340 718 340 718 377.5 724.5 c 128,-1,104
 415 731 415 731 458 731 c 0,105,106
 502 731 502 731 539.5 724.5 c 128,-1,107
 577 718 577 718 604.5 707 c 128,-1,108
 632 696 632 696 648 680.5 c 128,-1,109
 664 665 664 665 664 648 c 256,110,111
 664 631 664 631 648 616 c 128,-1,112
 632 601 632 601 604.5 589.5 c 128,-1,113
 577 578 577 578 539.5 571.5 c 128,-1,114
 502 565 502 565 458 565 c 0,115,116
 415 565 415 565 377.5 571.5 c 128,-1,117
 340 578 340 578 312 589.5 c 128,-1,118
 284 601 284 601 268.5 616 c 128,-1,119
 253 631 253 631 253 648 c 256,100,101
EndSplineSet
EndChar

StartChar: R
Encoding: 82 82 58
Width: 917
Flags: W
AnchorPoint: "Anchor-2" 452.5 622 basechar 0
AnchorPoint: "Anchor-1" 578.5 0 basechar 0
LayerCount: 2
Fore
SplineSet
393.5 638 m 5,0,1
 380.5 661 380.5 661 358.5 687.5 c 132,-1,2
 336.5 714 336.5 714 312.5 740 c 132,-1,3
 288.5 766 288.5 766 270.5 785 c 5,4,-1
 270.5 798 l 5,5,-1
 330.5 798 l 5,6,7
 356.5 781 356.5 781 384.5 757 c 132,-1,8
 412.5 733 412.5 733 437.5 706 c 5,9,10
 464.5 733 464.5 733 492.5 757 c 132,-1,11
 520.5 781 520.5 781 546.5 798 c 5,12,-1
 608.5 798 l 5,13,-1
 608.5 785 l 5,14,15
 589.5 766 589.5 766 565 740 c 132,-1,16
 540.5 714 540.5 714 518 687.5 c 132,-1,17
 495.5 661 495.5 661 483.5 638 c 5,18,-1
 393.5 638 l 5,0,1
339.5 -6 m 256,19,20
 314.5 -6 314.5 -6 297 10 c 128,-1,21
 279.5 26 279.5 26 279.5 52 c 256,22,23
 279.5 78 279.5 78 297 95 c 128,-1,24
 314.5 112 314.5 112 339.5 112 c 256,25,26
 364.5 112 364.5 112 382 95 c 128,-1,27
 399.5 78 399.5 78 399.5 52 c 256,28,29
 399.5 26 399.5 26 382 10 c 128,-1,30
 364.5 -6 364.5 -6 339.5 -6 c 256,19,20
725.5 622 m 1,31,-1
 725.5 551 l 1,32,-1
 655.5 551 l 1,33,-1
 655.5 0 l 1,34,-1
 578.5 0 l 1,35,36
 548.5 60 548.5 60 496 110.5 c 128,-1,37
 443.5 161 443.5 161 375.5 196 c 128,-1,38
 307.5 231 307.5 231 230.5 243 c 1,39,-1
 191.5 339 l 1,40,41
 287.5 397 287.5 397 390 444 c 128,-1,42
 492.5 491 492.5 491 601.5 524 c 1,43,-1
 578.5 482 l 1,44,-1
 578.5 551 l 1,45,-1
 194.5 551 l 1,46,-1
 194.5 622 l 1,47,-1
 725.5 622 l 1,31,-1
578.5 474 m 1,48,-1
 599.5 446 l 1,49,50
 523.5 421 523.5 421 439.5 384.5 c 128,-1,51
 355.5 348 355.5 348 284.5 304 c 1,52,53
 338.5 292 338.5 292 399.5 263 c 128,-1,54
 460.5 234 460.5 234 512.5 190 c 128,-1,55
 564.5 146 564.5 146 592.5 88 c 1,56,-1
 583.5 88 l 1,57,58
 581.5 111 581.5 111 580 134 c 128,-1,59
 578.5 157 578.5 157 578.5 189 c 2,60,-1
 578.5 474 l 1,48,-1
EndSplineSet
EndChar

StartChar: S
Encoding: 83 83 59
Width: 917
Flags: W
AnchorPoint: "Anchor-2" 468.5 622 basechar 0
AnchorPoint: "Anchor-1" 637.5 0 basechar 0
LayerCount: 2
Fore
SplineSet
366.5 638 m 5,0,1
 353.5 661 353.5 661 331.5 687.5 c 132,-1,2
 309.5 714 309.5 714 285.5 740 c 132,-1,3
 261.5 766 261.5 766 243.5 785 c 5,4,-1
 243.5 798 l 5,5,-1
 303.5 798 l 5,6,7
 329.5 781 329.5 781 357.5 757 c 132,-1,8
 385.5 733 385.5 733 410.5 706 c 5,9,10
 437.5 733 437.5 733 465.5 757 c 132,-1,11
 493.5 781 493.5 781 519.5 798 c 5,12,-1
 581.5 798 l 5,13,-1
 581.5 785 l 5,14,15
 562.5 766 562.5 766 538 740 c 132,-1,16
 513.5 714 513.5 714 491 687.5 c 132,-1,17
 468.5 661 468.5 661 456.5 638 c 5,18,-1
 366.5 638 l 5,0,1
785.5 622 m 1,19,-1
 785.5 551 l 1,20,-1
 714.5 551 l 1,21,-1
 714.5 0 l 1,22,-1
 637.5 0 l 1,23,-1
 637.5 353 l 1,24,-1
 660.5 290 l 1,25,26
 629.5 331 629.5 331 607 353 c 128,-1,27
 584.5 375 584.5 375 563.5 375 c 0,28,29
 549.5 375 549.5 375 537.5 367 c 128,-1,30
 525.5 359 525.5 359 510.5 336.5 c 128,-1,31
 495.5 314 495.5 314 470.5 268 c 0,32,33
 443.5 219 443.5 219 421.5 187.5 c 128,-1,34
 399.5 156 399.5 156 375 141.5 c 128,-1,35
 350.5 127 350.5 127 315.5 127 c 0,36,37
 288.5 127 288.5 127 264 138 c 128,-1,38
 239.5 149 239.5 149 215 174.5 c 128,-1,39
 190.5 200 190.5 200 162.5 244 c 1,40,-1
 223.5 281 l 1,41,42
 250.5 233 250.5 233 268.5 218 c 128,-1,43
 286.5 203 286.5 203 307.5 203 c 0,44,45
 324.5 203 324.5 203 340 213.5 c 128,-1,46
 355.5 224 355.5 224 374 250 c 128,-1,47
 392.5 276 392.5 276 416.5 321 c 1,48,-1
 439.5 354 l 1,49,50
 465.5 408 465.5 408 489.5 428.5 c 128,-1,51
 513.5 449 513.5 449 542.5 449 c 0,52,53
 575.5 449 575.5 449 602 430.5 c 128,-1,54
 628.5 412 628.5 412 663.5 374 c 1,55,-1
 643.5 373 l 1,56,57
 639.5 396 639.5 396 638.5 416.5 c 128,-1,58
 637.5 437 637.5 437 637.5 458 c 2,59,-1
 637.5 551 l 1,60,-1
 131.5 551 l 1,61,-1
 131.5 622 l 1,62,-1
 785.5 622 l 1,19,-1
398.5 271 m 1,63,64
 388.5 339 388.5 339 378 379 c 128,-1,65
 367.5 419 367.5 419 341.5 441 c 0,66,67
 316.5 464 316.5 464 273.5 475.5 c 128,-1,68
 230.5 487 230.5 487 165.5 495 c 1,69,-1
 180.5 571 l 1,70,-1
 234.5 551 l 1,71,72
 291.5 542 291.5 542 329.5 528 c 128,-1,73
 367.5 514 367.5 514 391 491.5 c 128,-1,74
 414.5 469 414.5 469 426.5 436 c 128,-1,75
 438.5 403 438.5 403 442.5 356 c 1,76,-1
 398.5 271 l 1,63,64
EndSplineSet
EndChar

StartChar: T
Encoding: 84 84 60
Width: 917
Flags: W
AnchorPoint: "Anchor-2" 461.5 622 basechar 0
AnchorPoint: "Anchor-1" 535.5 0 basechar 0
AnchorPoint: "Anchor-0" 486.5 622 basechar 0
LayerCount: 2
Fore
SplineSet
515.5 50 m 256,0,1
 433.5 50 433.5 50 362.5 90.5 c 128,-1,2
 291.5 131 291.5 131 235 222 c 128,-1,3
 178.5 313 178.5 313 137.5 466 c 1,4,-1
 213.5 486 l 1,5,6
 248.5 362 248.5 362 290 282 c 128,-1,7
 331.5 202 331.5 202 386 164 c 128,-1,8
 440.5 126 440.5 126 513.5 126 c 0,9,10
 560.5 126 560.5 126 592.5 137.5 c 128,-1,11
 624.5 149 624.5 149 644 170 c 128,-1,12
 663.5 191 663.5 191 672.5 218.5 c 128,-1,13
 681.5 246 681.5 246 681.5 278 c 0,14,15
 681.5 320 681.5 320 665.5 354.5 c 128,-1,16
 649.5 389 649.5 389 620.5 409 c 128,-1,17
 591.5 429 591.5 429 552.5 429 c 0,18,19
 512.5 429 512.5 429 495 412 c 128,-1,20
 477.5 395 477.5 395 477.5 367 c 0,21,22
 477.5 357 477.5 357 479.5 346 c 128,-1,23
 481.5 335 481.5 335 486.5 321 c 1,24,-1
 409.5 306 l 1,25,26
 403.5 325 403.5 325 400 343 c 128,-1,27
 396.5 361 396.5 361 396.5 380 c 0,28,29
 396.5 419 396.5 419 416 445.5 c 128,-1,30
 435.5 472 435.5 472 470 486 c 128,-1,31
 504.5 500 504.5 500 548.5 500 c 0,32,33
 610.5 500 610.5 500 657.5 471.5 c 128,-1,34
 704.5 443 704.5 443 731.5 392 c 128,-1,35
 758.5 341 758.5 341 758.5 274 c 0,36,37
 758.5 211 758.5 211 732 160.5 c 128,-1,38
 705.5 110 705.5 110 651.5 80 c 128,-1,39
 597.5 50 597.5 50 515.5 50 c 256,0,1
783.5 622 m 5,40,-1
 783.5 551 l 5,41,-1
 133.5 551 l 1,42,-1
 133.5 622 l 1,43,-1
 783.5 622 l 5,40,-1
EndSplineSet
EndChar

StartChar: U
Encoding: 85 85 61
Width: 917
Flags: W
LayerCount: 2
Fore
SplineSet
733.5 252 m 2,0,1
 733.5 178 733.5 178 703.5 118.5 c 128,-1,2
 673.5 59 673.5 59 612 24.5 c 128,-1,3
 550.5 -10 550.5 -10 455.5 -10 c 0,4,5
 322.5 -10 322.5 -10 253 62.5 c 128,-1,6
 183.5 135 183.5 135 183.5 254 c 2,7,-1
 183.5 714 l 1,8,-1
 273.5 714 l 1,9,-1
 273.5 251 l 2,10,11
 273.5 164 273.5 164 320 116 c 128,-1,12
 366.5 68 366.5 68 460.5 68 c 0,13,14
 525.5 68 525.5 68 566 91.5 c 128,-1,15
 606.5 115 606.5 115 625.5 156.5 c 128,-1,16
 644.5 198 644.5 198 644.5 252 c 2,17,-1
 644.5 714 l 1,18,-1
 733.5 714 l 1,19,-1
 733.5 252 l 2,0,1
EndSplineSet
EndChar

StartChar: V
Encoding: 86 86 62
Width: 917
Flags: W
AnchorPoint: "Anchor-1" 459 536 basechar 0
AnchorPoint: "Anchor-0" 459 0 basechar 0
LayerCount: 2
Fore
SplineSet
415 601 m 5,0,1
 402 624 402 624 380 650.5 c 132,-1,2
 358 677 358 677 334 703 c 132,-1,3
 310 729 310 729 292 748 c 5,4,-1
 292 761 l 5,5,-1
 352 761 l 5,6,7
 378 744 378 744 406 720 c 132,-1,8
 434 696 434 696 459 669 c 5,9,10
 486 696 486 696 514 720 c 132,-1,11
 542 744 542 744 568 761 c 5,12,-1
 630 761 l 5,13,-1
 630 748 l 5,14,15
 611 729 611 729 586.5 703 c 132,-1,16
 562 677 562 677 539.5 650.5 c 132,-1,17
 517 624 517 624 505 601 c 5,18,-1
 415 601 l 5,0,1
410 0 m 1,19,-1
 219 536 l 1,20,-1
 308 536 l 1,21,-1
 415 220 l 2,22,23
 423 198 423 198 431 171 c 128,-1,24
 439 144 439 144 446 119.5 c 128,-1,25
 453 95 453 95 455 78 c 1,26,-1
 459 78 l 1,27,28
 463 95 463 95 470 120 c 128,-1,29
 477 145 477 145 486 172 c 128,-1,30
 495 199 495 199 502 220 c 2,31,-1
 609 536 l 1,32,-1
 698 536 l 1,33,-1
 505 0 l 1,34,-1
 410 0 l 1,19,-1
EndSplineSet
EndChar

StartChar: W
Encoding: 87 87 63
Width: 917
Flags: W
LayerCount: 2
Fore
SplineSet
253 85 m 0,0,1
 253 103 253 103 268.5 118 c 128,-1,2
 284 133 284 133 312 144.5 c 128,-1,3
 340 156 340 156 377.5 162.5 c 128,-1,4
 415 169 415 169 458 169 c 0,5,6
 502 169 502 169 539.5 162.5 c 128,-1,7
 577 156 577 156 604.5 144.5 c 128,-1,8
 632 133 632 133 648 118 c 128,-1,9
 664 103 664 103 664 85 c 0,10,11
 664 68 664 68 648 53 c 128,-1,12
 632 38 632 38 604.5 27 c 128,-1,13
 577 16 577 16 539.5 9.5 c 128,-1,14
 502 3 502 3 458 3 c 0,15,16
 415 3 415 3 377.5 9.5 c 128,-1,17
 340 16 340 16 312 27 c 128,-1,18
 284 38 284 38 268.5 53 c 128,-1,19
 253 68 253 68 253 85 c 0,0,1
253 272 m 0,20,21
 253 290 253 290 268.5 305 c 128,-1,22
 284 320 284 320 312 331.5 c 128,-1,23
 340 343 340 343 377.5 349 c 128,-1,24
 415 355 415 355 458 355 c 0,25,26
 502 355 502 355 539.5 349 c 128,-1,27
 577 343 577 343 604.5 331.5 c 128,-1,28
 632 320 632 320 648 305 c 128,-1,29
 664 290 664 290 664 272 c 0,30,31
 664 255 664 255 648 240 c 128,-1,32
 632 225 632 225 604.5 214 c 128,-1,33
 577 203 577 203 539.5 196 c 128,-1,34
 502 189 502 189 458 189 c 0,35,36
 415 189 415 189 377.5 196 c 128,-1,37
 340 203 340 203 312 214 c 128,-1,38
 284 225 284 225 268.5 240 c 128,-1,39
 253 255 253 255 253 272 c 0,20,21
333 272 m 256,40,41
 333 261 333 261 342.5 251.5 c 128,-1,42
 352 242 352 242 369 235 c 128,-1,43
 386 228 386 228 409 224 c 128,-1,44
 432 220 432 220 458 220 c 0,45,46
 485 220 485 220 507.5 224 c 128,-1,47
 530 228 530 228 547 235 c 128,-1,48
 564 242 564 242 573.5 251.5 c 128,-1,49
 583 261 583 261 583 272 c 256,50,51
 583 283 583 283 573.5 292.5 c 128,-1,52
 564 302 564 302 547 309 c 128,-1,53
 530 316 530 316 507.5 320 c 128,-1,54
 485 324 485 324 458 324 c 0,55,56
 432 324 432 324 409 320 c 128,-1,57
 386 316 386 316 369 309 c 128,-1,58
 352 302 352 302 342.5 292.5 c 128,-1,59
 333 283 333 283 333 272 c 256,40,41
253 461 m 256,60,61
 253 478 253 478 268.5 493.5 c 128,-1,62
 284 509 284 509 312 520 c 128,-1,63
 340 531 340 531 377.5 537.5 c 128,-1,64
 415 544 415 544 458 544 c 0,65,66
 502 544 502 544 539.5 537.5 c 128,-1,67
 577 531 577 531 604.5 520 c 128,-1,68
 632 509 632 509 648 493.5 c 128,-1,69
 664 478 664 478 664 461 c 256,70,71
 664 444 664 444 648 429 c 128,-1,72
 632 414 632 414 604.5 402.5 c 128,-1,73
 577 391 577 391 539.5 384.5 c 128,-1,74
 502 378 502 378 458 378 c 0,75,76
 415 378 415 378 377.5 384.5 c 128,-1,77
 340 391 340 391 312 402.5 c 128,-1,78
 284 414 284 414 268.5 429 c 128,-1,79
 253 444 253 444 253 461 c 256,60,61
253 648 m 256,80,81
 253 665 253 665 268.5 680.5 c 128,-1,82
 284 696 284 696 312 707 c 128,-1,83
 340 718 340 718 377.5 724.5 c 128,-1,84
 415 731 415 731 458 731 c 0,85,86
 502 731 502 731 539.5 724.5 c 128,-1,87
 577 718 577 718 604.5 707 c 128,-1,88
 632 696 632 696 648 680.5 c 128,-1,89
 664 665 664 665 664 648 c 256,90,91
 664 631 664 631 648 616 c 128,-1,92
 632 601 632 601 604.5 589.5 c 128,-1,93
 577 578 577 578 539.5 571.5 c 128,-1,94
 502 565 502 565 458 565 c 0,95,96
 415 565 415 565 377.5 571.5 c 128,-1,97
 340 578 340 578 312 589.5 c 128,-1,98
 284 601 284 601 268.5 616 c 128,-1,99
 253 631 253 631 253 648 c 256,80,81
EndSplineSet
EndChar

StartChar: X
Encoding: 88 88 64
Width: 917
Flags: W
LayerCount: 2
Fore
SplineSet
253 85 m 0,0,1
 253 103 253 103 268.5 118 c 128,-1,2
 284 133 284 133 312 144.5 c 128,-1,3
 340 156 340 156 377.5 162.5 c 128,-1,4
 415 169 415 169 458 169 c 0,5,6
 502 169 502 169 539.5 162.5 c 128,-1,7
 577 156 577 156 604.5 144.5 c 128,-1,8
 632 133 632 133 648 118 c 128,-1,9
 664 103 664 103 664 85 c 0,10,11
 664 68 664 68 648 53 c 128,-1,12
 632 38 632 38 604.5 27 c 128,-1,13
 577 16 577 16 539.5 9.5 c 128,-1,14
 502 3 502 3 458 3 c 0,15,16
 415 3 415 3 377.5 9.5 c 128,-1,17
 340 16 340 16 312 27 c 128,-1,18
 284 38 284 38 268.5 53 c 128,-1,19
 253 68 253 68 253 85 c 0,0,1
333 85 m 256,20,21
 333 74 333 74 342.5 64.5 c 128,-1,22
 352 55 352 55 369 48.5 c 128,-1,23
 386 42 386 42 409 38 c 128,-1,24
 432 34 432 34 458 34 c 0,25,26
 485 34 485 34 507.5 38 c 128,-1,27
 530 42 530 42 547 48.5 c 128,-1,28
 564 55 564 55 573.5 64.5 c 128,-1,29
 583 74 583 74 583 85 c 256,30,31
 583 96 583 96 573.5 105.5 c 128,-1,32
 564 115 564 115 547 122 c 128,-1,33
 530 129 530 129 507.5 133 c 128,-1,34
 485 137 485 137 458 137 c 0,35,36
 432 137 432 137 409 133 c 128,-1,37
 386 129 386 129 369 122 c 128,-1,38
 352 115 352 115 342.5 105.5 c 128,-1,39
 333 96 333 96 333 85 c 256,20,21
253 272 m 0,40,41
 253 290 253 290 268.5 305 c 128,-1,42
 284 320 284 320 312 331.5 c 128,-1,43
 340 343 340 343 377.5 349 c 128,-1,44
 415 355 415 355 458 355 c 0,45,46
 502 355 502 355 539.5 349 c 128,-1,47
 577 343 577 343 604.5 331.5 c 128,-1,48
 632 320 632 320 648 305 c 128,-1,49
 664 290 664 290 664 272 c 0,50,51
 664 255 664 255 648 240 c 128,-1,52
 632 225 632 225 604.5 214 c 128,-1,53
 577 203 577 203 539.5 196 c 128,-1,54
 502 189 502 189 458 189 c 0,55,56
 415 189 415 189 377.5 196 c 128,-1,57
 340 203 340 203 312 214 c 128,-1,58
 284 225 284 225 268.5 240 c 128,-1,59
 253 255 253 255 253 272 c 0,40,41
253 461 m 256,60,61
 253 478 253 478 268.5 493.5 c 128,-1,62
 284 509 284 509 312 520 c 128,-1,63
 340 531 340 531 377.5 537.5 c 128,-1,64
 415 544 415 544 458 544 c 0,65,66
 502 544 502 544 539.5 537.5 c 128,-1,67
 577 531 577 531 604.5 520 c 128,-1,68
 632 509 632 509 648 493.5 c 128,-1,69
 664 478 664 478 664 461 c 256,70,71
 664 444 664 444 648 429 c 128,-1,72
 632 414 632 414 604.5 402.5 c 128,-1,73
 577 391 577 391 539.5 384.5 c 128,-1,74
 502 378 502 378 458 378 c 0,75,76
 415 378 415 378 377.5 384.5 c 128,-1,77
 340 391 340 391 312 402.5 c 128,-1,78
 284 414 284 414 268.5 429 c 128,-1,79
 253 444 253 444 253 461 c 256,60,61
253 648 m 256,80,81
 253 665 253 665 268.5 680.5 c 128,-1,82
 284 696 284 696 312 707 c 128,-1,83
 340 718 340 718 377.5 724.5 c 128,-1,84
 415 731 415 731 458 731 c 0,85,86
 502 731 502 731 539.5 724.5 c 128,-1,87
 577 718 577 718 604.5 707 c 128,-1,88
 632 696 632 696 648 680.5 c 128,-1,89
 664 665 664 665 664 648 c 256,90,91
 664 631 664 631 648 616 c 128,-1,92
 632 601 632 601 604.5 589.5 c 128,-1,93
 577 578 577 578 539.5 571.5 c 128,-1,94
 502 565 502 565 458 565 c 0,95,96
 415 565 415 565 377.5 571.5 c 128,-1,97
 340 578 340 578 312 589.5 c 128,-1,98
 284 601 284 601 268.5 616 c 128,-1,99
 253 631 253 631 253 648 c 256,80,81
EndSplineSet
EndChar

StartChar: Y
Encoding: 89 89 65
Width: 917
Flags: W
AnchorPoint: "Anchor-2" 461.5 622 basechar 0
AnchorPoint: "Anchor-1" 602.5 0 basechar 0
LayerCount: 2
Fore
SplineSet
387.5 638 m 5,0,1
 374.5 661 374.5 661 352.5 687.5 c 132,-1,2
 330.5 714 330.5 714 306.5 740 c 132,-1,3
 282.5 766 282.5 766 264.5 785 c 5,4,-1
 264.5 798 l 5,5,-1
 324.5 798 l 5,6,7
 350.5 781 350.5 781 378.5 757 c 132,-1,8
 406.5 733 406.5 733 431.5 706 c 5,9,10
 458.5 733 458.5 733 486.5 757 c 132,-1,11
 514.5 781 514.5 781 540.5 798 c 5,12,-1
 602.5 798 l 5,13,-1
 602.5 785 l 5,14,15
 583.5 766 583.5 766 559 740 c 132,-1,16
 534.5 714 534.5 714 512 687.5 c 132,-1,17
 489.5 661 489.5 661 477.5 638 c 5,18,-1
 387.5 638 l 5,0,1
751.5 622 m 1,19,-1
 751.5 551 l 1,20,-1
 679.5 551 l 1,21,-1
 679.5 0 l 1,22,-1
 602.5 0 l 1,23,24
 560.5 56 560.5 56 509.5 98.5 c 128,-1,25
 458.5 141 458.5 141 391.5 170 c 128,-1,26
 324.5 199 324.5 199 232.5 212 c 1,27,-1
 196.5 303 l 1,28,29
 227.5 324 227.5 324 261.5 343 c 128,-1,30
 295.5 362 295.5 362 331 380 c 128,-1,31
 366.5 398 366.5 398 400.5 414 c 1,32,33
 362.5 443 362.5 443 313 465.5 c 128,-1,34
 263.5 488 263.5 488 196.5 502 c 1,35,-1
 227.5 570 l 1,36,-1
 229.5 551 l 1,37,-1
 165.5 551 l 1,38,-1
 165.5 622 l 1,39,-1
 751.5 622 l 1,19,-1
602.5 551 m 1,40,-1
 283.5 551 l 1,41,-1
 262.5 560 l 1,42,43
 304.5 550 304.5 550 347 528 c 128,-1,44
 389.5 506 389.5 506 426 480.5 c 128,-1,45
 462.5 455 462.5 455 484.5 432 c 1,46,-1
 489.5 376 l 1,47,48
 453.5 360 453.5 360 414 341 c 128,-1,49
 374.5 322 374.5 322 338 303 c 128,-1,50
 301.5 284 301.5 284 273.5 265 c 1,51,-1
 261.5 280 l 1,52,53
 347.5 268 347.5 268 412 240 c 128,-1,54
 476.5 212 476.5 212 526.5 172 c 128,-1,55
 576.5 132 576.5 132 618.5 83 c 1,56,-1
 605.5 79 l 1,57,58
 604.5 100 604.5 100 603.5 124.5 c 128,-1,59
 602.5 149 602.5 149 602.5 171 c 2,60,-1
 602.5 551 l 1,40,-1
EndSplineSet
EndChar

StartChar: Z
Encoding: 90 90 66
Width: 917
Flags: W
AnchorPoint: "Anchor-2" 466.5 622 basechar 0
AnchorPoint: "Anchor-1" 765.5 0 basechar 0
AnchorPoint: "Anchor-0" 680.5 622 basechar 0
LayerCount: 2
Fore
SplineSet
295.5 637 m 5,0,1
 282.5 660 282.5 660 260.5 686.5 c 132,-1,2
 238.5 713 238.5 713 214.5 739 c 132,-1,3
 190.5 765 190.5 765 172.5 784 c 5,4,-1
 172.5 797 l 5,5,-1
 232.5 797 l 5,6,7
 258.5 780 258.5 780 286.5 756 c 132,-1,8
 314.5 732 314.5 732 339.5 705 c 5,9,10
 366.5 732 366.5 732 394.5 756 c 132,-1,11
 422.5 780 422.5 780 448.5 797 c 5,12,-1
 510.5 797 l 5,13,-1
 510.5 784 l 5,14,15
 491.5 765 491.5 765 467 739 c 132,-1,16
 442.5 713 442.5 713 420 686.5 c 132,-1,17
 397.5 660 397.5 660 385.5 637 c 5,18,-1
 295.5 637 l 5,0,1
409.5 63 m 0,19,20
 350.5 63 350.5 63 296.5 84 c 128,-1,21
 242.5 105 242.5 105 195 151.5 c 128,-1,22
 147.5 198 147.5 198 108 275.5 c 128,-1,23
 68.5 353 68.5 353 37.5 465 c 1,24,-1
 113.5 485 l 1,25,26
 147.5 362 147.5 362 189.5 285.5 c 128,-1,27
 231.5 209 231.5 209 286.5 174 c 128,-1,28
 341.5 139 341.5 139 412.5 139 c 0,29,30
 486.5 139 486.5 139 524.5 171 c 128,-1,31
 562.5 203 562.5 203 562.5 268 c 0,32,33
 562.5 299 562.5 299 554.5 321 c 128,-1,34
 546.5 343 546.5 343 538.5 358 c 1,35,-1
 598.5 358 l 1,36,37
 570.5 329 570.5 329 540 306 c 128,-1,38
 509.5 283 509.5 283 475 270 c 128,-1,39
 440.5 257 440.5 257 399.5 257 c 0,40,41
 360.5 257 360.5 257 330.5 272 c 128,-1,42
 300.5 287 300.5 287 283.5 315.5 c 128,-1,43
 266.5 344 266.5 344 266.5 384 c 0,44,45
 266.5 428 266.5 428 297.5 473.5 c 128,-1,46
 328.5 519 328.5 519 402.5 553 c 1,47,48
 382.5 552 382.5 552 357 551.5 c 128,-1,49
 331.5 551 331.5 551 306.5 551 c 2,50,-1
 65.5 551 l 1,51,-1
 65.5 622 l 1,52,-1
 879.5 622 l 1,53,-1
 879.5 551 l 1,54,-1
 622.5 551 l 2,55,56
 598.5 551 598.5 551 579.5 552 c 128,-1,57
 560.5 553 560.5 553 543.5 554 c 1,58,59
 459.5 516 459.5 516 416.5 485 c 128,-1,60
 373.5 454 373.5 454 358.5 428.5 c 128,-1,61
 343.5 403 343.5 403 343.5 380 c 0,62,63
 343.5 352 343.5 352 359.5 340 c 128,-1,64
 375.5 328 375.5 328 395.5 328 c 0,65,66
 433.5 328 433.5 328 463.5 345.5 c 128,-1,67
 493.5 363 493.5 363 531.5 396 c 1,68,-1
 617.5 365 l 1,69,70
 626.5 345 626.5 345 632.5 315.5 c 128,-1,71
 638.5 286 638.5 286 638.5 254 c 0,72,73
 638.5 204 638.5 204 616 160.5 c 128,-1,74
 593.5 117 593.5 117 543 90 c 128,-1,75
 492.5 63 492.5 63 409.5 63 c 0,19,20
809.5 205 m 0,76,77
 809.5 156 809.5 156 817.5 111 c 128,-1,78
 825.5 66 825.5 66 844.5 10 c 1,79,-1
 769.5 -7 l 1,80,81
 751.5 51 751.5 51 741.5 106.5 c 128,-1,82
 731.5 162 731.5 162 731.5 222 c 0,83,84
 731.5 275 731.5 275 741 317 c 128,-1,85
 750.5 359 750.5 359 763.5 388 c 1,86,87
 687.5 389 687.5 389 634 407.5 c 128,-1,88
 580.5 426 580.5 426 544.5 460.5 c 128,-1,89
 508.5 495 508.5 495 483.5 543 c 1,90,-1
 559.5 559 l 1,91,92
 575.5 530 575.5 530 600 507.5 c 128,-1,93
 624.5 485 624.5 485 663.5 472 c 128,-1,94
 702.5 459 702.5 459 759.5 459 c 0,95,96
 773.5 459 773.5 459 786.5 460 c 128,-1,97
 799.5 461 799.5 461 814.5 462 c 1,98,-1
 853.5 392 l 1,99,100
 829.5 347 829.5 347 819.5 304 c 128,-1,101
 809.5 261 809.5 261 809.5 205 c 0,76,77
EndSplineSet
EndChar

StartChar: a
Encoding: 97 97 67
Width: 917
Flags: W
LayerCount: 2
Fore
SplineSet
483.5 545 m 0,0,1
 581.5 545 581.5 545 628.5 502 c 128,-1,2
 675.5 459 675.5 459 675.5 365 c 2,3,-1
 675.5 0 l 1,4,-1
 611.5 0 l 1,5,-1
 594.5 76 l 1,6,-1
 590.5 76 l 1,7,8
 567.5 47 567.5 47 543 27.5 c 128,-1,9
 518.5 8 518.5 8 487 -1 c 128,-1,10
 455.5 -10 455.5 -10 410.5 -10 c 0,11,12
 362.5 -10 362.5 -10 324 7 c 128,-1,13
 285.5 24 285.5 24 263.5 59.5 c 128,-1,14
 241.5 95 241.5 95 241.5 149 c 0,15,16
 241.5 229 241.5 229 304.5 272.5 c 128,-1,17
 367.5 316 367.5 316 498.5 320 c 2,18,-1
 589.5 323 l 1,19,-1
 589.5 355 l 2,20,21
 589.5 422 589.5 422 560.5 448 c 128,-1,22
 531.5 474 531.5 474 478.5 474 c 0,23,24
 436.5 474 436.5 474 398.5 461.5 c 128,-1,25
 360.5 449 360.5 449 327.5 433 c 1,26,-1
 300.5 499 l 1,27,28
 335.5 518 335.5 518 383.5 531.5 c 128,-1,29
 431.5 545 431.5 545 483.5 545 c 0,0,1
509.5 259 m 2,30,31
 409.5 255 409.5 255 371 227 c 128,-1,32
 332.5 199 332.5 199 332.5 148 c 0,33,34
 332.5 103 332.5 103 360 82 c 128,-1,35
 387.5 61 387.5 61 430.5 61 c 0,36,37
 498.5 61 498.5 61 543.5 98.5 c 128,-1,38
 588.5 136 588.5 136 588.5 214 c 2,39,-1
 588.5 262 l 1,40,-1
 509.5 259 l 2,30,31
EndSplineSet
EndChar

StartChar: b
Encoding: 98 98 68
Width: 917
Flags: W
AnchorPoint: "Anchor-2" 455.5 622 basechar 0
AnchorPoint: "Anchor-1" 581.5 0 basechar 0
LayerCount: 2
Fore
SplineSet
722.5 622 m 5,0,-1
 722.5 551 l 5,1,-1
 658.5 551 l 1,2,-1
 658.5 0 l 1,3,-1
 581.5 0 l 1,4,5
 551.5 60 551.5 60 499 110.5 c 128,-1,6
 446.5 161 446.5 161 378.5 196 c 128,-1,7
 310.5 231 310.5 231 233.5 243 c 1,8,-1
 194.5 339 l 1,9,10
 290.5 397 290.5 397 393 444 c 128,-1,11
 495.5 491 495.5 491 604.5 524 c 1,12,-1
 581.5 482 l 1,13,-1
 581.5 551 l 1,14,-1
 205.5 551 l 1,15,-1
 205.5 622 l 1,16,-1
 722.5 622 l 5,0,-1
581.5 474 m 1,17,-1
 602.5 446 l 1,18,19
 526.5 421 526.5 421 442.5 384.5 c 128,-1,20
 358.5 348 358.5 348 287.5 304 c 1,21,22
 341.5 292 341.5 292 402.5 263 c 128,-1,23
 463.5 234 463.5 234 515.5 190 c 128,-1,24
 567.5 146 567.5 146 595.5 88 c 1,25,-1
 586.5 88 l 1,26,27
 584.5 111 584.5 111 583 134 c 128,-1,28
 581.5 157 581.5 157 581.5 189 c 2,29,-1
 581.5 474 l 1,17,-1
EndSplineSet
EndChar

StartChar: c
Encoding: 99 99 69
Width: 917
Flags: W
AnchorPoint: "Anchor-1" 458.5 536 basechar 0
AnchorPoint: "Anchor-0" 458.5 0 basechar 0
LayerCount: 2
Fore
SplineSet
514.5 -10 m 0,0,1
 396.5 -10 396.5 -10 331.5 57 c 128,-1,2
 266.5 124 266.5 124 266.5 245 c 0,3,4
 266.5 325 266.5 325 295.5 380.5 c 128,-1,5
 324.5 436 324.5 436 378.5 465 c 1,6,-1
 245.5 465 l 1,7,-1
 245.5 537 l 1,8,-1
 671.5 537 l 1,9,-1
 671.5 465 l 1,10,-1
 558.5 465 l 2,11,12
 464.5 465 464.5 465 411 411.5 c 128,-1,13
 357.5 358 357.5 358 357.5 252 c 0,14,15
 357.5 165 357.5 165 400.5 114.5 c 128,-1,16
 443.5 64 443.5 64 523.5 64 c 0,17,18
 560.5 64 560.5 64 594.5 73.5 c 128,-1,19
 628.5 83 628.5 83 660.5 99 c 1,20,-1
 660.5 21 l 1,21,22
 631.5 5 631.5 5 596.5 -2.5 c 128,-1,23
 561.5 -10 561.5 -10 514.5 -10 c 0,0,1
EndSplineSet
EndChar

StartChar: d
Encoding: 100 100 70
Width: 917
Flags: W
AnchorPoint: "Anchor-2" 459.5 622 basechar 0
AnchorPoint: "Anchor-1" 537.5 0 basechar 0
AnchorPoint: "Anchor-0" 469.5 622 basechar 0
LayerCount: 2
Fore
SplineSet
784.5 622 m 1,0,-1
 784.5 551 l 1,1,-1
 459.5 551 l 1,2,-1
 459.5 372 l 2,3,4
 459.5 343 459.5 343 468.5 329.5 c 128,-1,5
 477.5 316 477.5 316 496.5 316 c 256,6,7
 515.5 316 515.5 316 536 328 c 128,-1,8
 556.5 340 556.5 340 580.5 366 c 128,-1,9
 604.5 392 604.5 392 632.5 433 c 1,10,-1
 692.5 442 l 1,11,12
 724.5 395 724.5 395 742 345 c 128,-1,13
 759.5 295 759.5 295 759.5 245 c 0,14,15
 759.5 182 759.5 182 732 132 c 128,-1,16
 704.5 82 704.5 82 651 53 c 128,-1,17
 597.5 24 597.5 24 520.5 24 c 0,18,19
 454.5 24 454.5 24 397.5 47 c 128,-1,20
 340.5 70 340.5 70 292.5 121.5 c 128,-1,21
 244.5 173 244.5 173 204.5 257.5 c 128,-1,22
 164.5 342 164.5 342 132.5 465 c 1,23,-1
 208.5 485 l 1,24,25
 244.5 346 244.5 346 288 261.5 c 128,-1,26
 331.5 177 331.5 177 387.5 138.5 c 128,-1,27
 443.5 100 443.5 100 516.5 100 c 0,28,29
 596.5 100 596.5 100 640 140 c 128,-1,30
 683.5 180 683.5 180 683.5 243 c 0,31,32
 683.5 288 683.5 288 671 320 c 128,-1,33
 658.5 352 658.5 352 638.5 373 c 1,34,-1
 684.5 392 l 1,35,36
 654.5 341 654.5 341 623 308 c 128,-1,37
 591.5 275 591.5 275 560 258.5 c 128,-1,38
 528.5 242 528.5 242 497.5 242 c 0,39,40
 474.5 242 474.5 242 454.5 248.5 c 128,-1,41
 434.5 255 434.5 255 420.5 268 c 0,42,43
 404.5 282 404.5 282 393.5 307.5 c 128,-1,44
 382.5 333 382.5 333 382.5 393 c 2,45,-1
 382.5 551 l 1,46,-1
 137.5 551 l 5,47,-1
 137.5 622 l 5,48,-1
 784.5 622 l 1,0,-1
EndSplineSet
EndChar

StartChar: e
Encoding: 101 101 71
Width: 917
Flags: W
LayerCount: 2
Fore
SplineSet
466.5 546 m 0,0,1
 535.5 546 535.5 546 585 516 c 128,-1,2
 634.5 486 634.5 486 661 431.5 c 128,-1,3
 687.5 377 687.5 377 687.5 304 c 2,4,-1
 687.5 251 l 1,5,-1
 320.5 251 l 1,6,7
 322.5 160 322.5 160 367 112.5 c 128,-1,8
 411.5 65 411.5 65 491.5 65 c 0,9,10
 542.5 65 542.5 65 582 74.5 c 128,-1,11
 621.5 84 621.5 84 663.5 102 c 1,12,-1
 663.5 25 l 1,13,14
 622.5 7 622.5 7 582.5 -1.5 c 128,-1,15
 542.5 -10 542.5 -10 487.5 -10 c 0,16,17
 411.5 -10 411.5 -10 353 21 c 128,-1,18
 294.5 52 294.5 52 262 113.5 c 128,-1,19
 229.5 175 229.5 175 229.5 264 c 0,20,21
 229.5 352 229.5 352 259 415 c 128,-1,22
 288.5 478 288.5 478 342 512 c 128,-1,23
 395.5 546 395.5 546 466.5 546 c 0,0,1
465.5 474 m 0,24,25
 402.5 474 402.5 474 366 433.5 c 128,-1,26
 329.5 393 329.5 393 322.5 321 c 1,27,-1
 595.5 321 l 1,28,29
 595.5 367 595.5 367 581.5 401 c 128,-1,30
 567.5 435 567.5 435 539 454.5 c 128,-1,31
 510.5 474 510.5 474 465.5 474 c 0,24,25
EndSplineSet
EndChar

StartChar: f
Encoding: 102 102 72
Width: 917
Flags: W
AnchorPoint: "Anchor-2" 475.5 622 basechar 0
AnchorPoint: "Anchor-1" 501.5 0 basechar 0
AnchorPoint: "Anchor-0" 501.5 622 basechar 0
LayerCount: 2
Fore
SplineSet
818.5 622 m 1,0,-1
 818.5 551 l 1,1,-1
 186.5 551 l 1,2,-1
 170.5 560 l 1,3,4
 212.5 550 212.5 550 255 528 c 128,-1,5
 297.5 506 297.5 506 334 480.5 c 128,-1,6
 370.5 455 370.5 455 392.5 432 c 1,7,-1
 397.5 376 l 1,8,9
 361.5 360 361.5 360 322 341 c 128,-1,10
 282.5 322 282.5 322 246 303 c 128,-1,11
 209.5 284 209.5 284 181.5 265 c 1,12,-1
 170.5 282 l 1,13,14
 248.5 266 248.5 266 307.5 241 c 128,-1,15
 366.5 216 366.5 216 413.5 181 c 128,-1,16
 460.5 146 460.5 146 503.5 99 c 1,17,18
 502.5 116 502.5 116 502 134 c 128,-1,19
 501.5 152 501.5 152 501.5 171 c 2,20,-1
 501.5 510 l 1,21,-1
 514.5 510 l 2,22,23
 569.5 510 569.5 510 621 501 c 128,-1,24
 672.5 492 672.5 492 717 471 c 128,-1,25
 761.5 450 761.5 450 795.5 414 c 0,26,27
 819.5 389 819.5 389 834 357.5 c 128,-1,28
 848.5 326 848.5 326 848.5 288 c 0,29,30
 848.5 255 848.5 255 835 225.5 c 128,-1,31
 821.5 196 821.5 196 791.5 177 c 128,-1,32
 761.5 158 761.5 158 711.5 158 c 0,33,34
 696.5 158 696.5 158 682 159 c 128,-1,35
 667.5 160 667.5 160 653.5 163 c 1,36,-1
 658.5 234 l 1,37,38
 664.5 233 664.5 233 673.5 232.5 c 128,-1,39
 682.5 232 682.5 232 692.5 232 c 0,40,41
 741.5 232 741.5 232 756 251 c 128,-1,42
 770.5 270 770.5 270 770.5 296 c 0,43,44
 770.5 347 770.5 347 719 386 c 128,-1,45
 667.5 425 667.5 425 578.5 434 c 1,46,-1
 578.5 0 l 1,47,-1
 501.5 0 l 1,48,49
 460.5 56 460.5 56 411 98 c 128,-1,50
 361.5 140 361.5 140 296 168.5 c 128,-1,51
 230.5 197 230.5 197 140.5 212 c 1,52,-1
 104.5 303 l 1,53,54
 135.5 324 135.5 324 169.5 343 c 128,-1,55
 203.5 362 203.5 362 239 380 c 128,-1,56
 274.5 398 274.5 398 308.5 414 c 1,57,58
 270.5 443 270.5 443 221 465.5 c 128,-1,59
 171.5 488 171.5 488 104.5 502 c 1,60,-1
 135.5 570 l 1,61,-1
 137.5 551 l 1,62,-1
 68.5 551 l 5,63,-1
 68.5 622 l 5,64,-1
 818.5 622 l 1,0,-1
EndSplineSet
EndChar

StartChar: g
Encoding: 103 103 73
Width: 917
Flags: W
LayerCount: 2
Fore
SplineSet
441 546 m 0,0,1
 494 546 494 546 536.5 526 c 128,-1,2
 579 506 579 506 609 465 c 1,3,-1
 614 465 l 1,4,-1
 626 536 l 1,5,-1
 696 536 l 1,6,-1
 696 -9 l 2,7,8
 696 -85 696 -85 670 -136.5 c 128,-1,9
 644 -188 644 -188 591 -214 c 128,-1,10
 538 -240 538 -240 456 -240 c 0,11,12
 398 -240 398 -240 349.5 -231.5 c 128,-1,13
 301 -223 301 -223 263 -206 c 1,14,-1
 263 -125 l 1,15,16
 301 -145 301 -145 352 -156 c 128,-1,17
 403 -167 403 -167 461 -167 c 0,18,19
 530 -167 530 -167 569.5 -126.5 c 128,-1,20
 609 -86 609 -86 609 -16 c 2,21,-1
 609 5 l 2,22,23
 609 17 609 17 610 39.5 c 128,-1,24
 611 62 611 62 612 71 c 1,25,-1
 608 71 l 1,26,27
 580 30 580 30 538.5 10 c 128,-1,28
 497 -10 497 -10 442 -10 c 0,29,30
 338 -10 338 -10 279.5 63 c 128,-1,31
 221 136 221 136 221 267 c 0,32,33
 221 395 221 395 279.5 470.5 c 128,-1,34
 338 546 338 546 441 546 c 0,0,1
453 472 m 0,35,36
 386 472 386 472 349 418.5 c 128,-1,37
 312 365 312 365 312 266 c 256,38,39
 312 167 312 167 348.5 114.5 c 128,-1,40
 385 62 385 62 455 62 c 0,41,42
 496 62 496 62 525 72.5 c 128,-1,43
 554 83 554 83 573 105.5 c 128,-1,44
 592 128 592 128 601 163 c 128,-1,45
 610 198 610 198 610 246 c 2,46,-1
 610 267 l 2,47,48
 610 340 610 340 593.5 385 c 128,-1,49
 577 430 577 430 542 451 c 128,-1,50
 507 472 507 472 453 472 c 0,35,36
EndSplineSet
EndChar

StartChar: h
Encoding: 104 104 74
Width: 917
Flags: W
LayerCount: 2
Fore
SplineSet
320.5 537 m 2,0,1
 320.5 518 320.5 518 319 498 c 128,-1,2
 317.5 478 317.5 478 315.5 462 c 1,3,-1
 321.5 462 l 1,4,5
 338.5 490 338.5 490 364.5 508 c 128,-1,6
 390.5 526 390.5 526 422.5 535.5 c 128,-1,7
 454.5 545 454.5 545 488.5 545 c 0,8,9
 553.5 545 553.5 545 597 524.5 c 128,-1,10
 640.5 504 640.5 504 662.5 461 c 128,-1,11
 684.5 418 684.5 418 684.5 349 c 2,12,-1
 684.5 0 l 1,13,-1
 597.5 0 l 1,14,-1
 597.5 343 l 2,15,16
 597.5 408 597.5 408 568.5 440 c 128,-1,17
 539.5 472 539.5 472 477.5 472 c 0,18,19
 387.5 472 387.5 472 354 421.5 c 128,-1,20
 320.5 371 320.5 371 320.5 277 c 2,21,-1
 320.5 0 l 1,22,-1
 232.5 0 l 1,23,-1
 232.5 760 l 1,24,-1
 320.5 760 l 1,25,-1
 320.5 537 l 2,0,1
EndSplineSet
EndChar

StartChar: i
Encoding: 105 105 75
Width: 917
Flags: W
LayerCount: 2
Fore
SplineSet
502 536 m 1,0,-1
 502 0 l 1,1,-1
 414 0 l 1,2,-1
 414 536 l 1,3,-1
 502 536 l 1,0,-1
459 737 m 0,4,5
 479 737 479 737 494.5 723.5 c 128,-1,6
 510 710 510 710 510 681 c 0,7,8
 510 653 510 653 494.5 639 c 128,-1,9
 479 625 479 625 459 625 c 0,10,11
 437 625 437 625 422 639 c 128,-1,12
 407 653 407 653 407 681 c 0,13,14
 407 710 407 710 422 723.5 c 128,-1,15
 437 737 437 737 459 737 c 0,4,5
EndSplineSet
Substitution2: "Single Substitution lookup 63 subtable" dotlessi
Substitution2: "Single Substitution lookup 62 subtable" dotlessi
EndChar

StartChar: j
Encoding: 106 106 76
Width: 917
Flags: W
AnchorPoint: "Anchor-1" 458.5 536 basechar 0
AnchorPoint: "Anchor-0" 458.5 0 basechar 0
LayerCount: 2
Fore
SplineSet
647.5 536 m 1,0,-1
 647.5 470 l 1,1,-1
 536.5 313 l 1,2,-1
 637.5 313 l 1,3,-1
 637.5 243 l 1,4,-1
 486.5 243 l 1,5,-1
 363.5 68 l 1,6,-1
 654.5 68 l 1,7,-1
 654.5 0 l 1,8,-1
 262.5 0 l 1,9,-1
 262.5 58 l 1,10,-1
 392.5 243 l 1,11,-1
 280.5 243 l 1,12,-1
 280.5 313 l 1,13,-1
 441.5 313 l 1,14,-1
 550.5 468 l 1,15,-1
 279.5 468 l 1,16,-1
 279.5 536 l 1,17,-1
 647.5 536 l 1,0,-1
EndSplineSet
Substitution2: "Single Substitution lookup 63 subtable" uni0237
Substitution2: "Single Substitution lookup 62 subtable" uni0237
EndChar

StartChar: k
Encoding: 107 107 77
Width: 917
Flags: W
AnchorPoint: "Anchor-2" 512.5 622 basechar 0
AnchorPoint: "Anchor-1" 474.5 0 basechar 0
AnchorPoint: "Anchor-0" 474.5 622 basechar 0
LayerCount: 2
Fore
SplineSet
789.5 622 m 5,0,-1
 789.5 551 l 5,1,-1
 551.5 551 l 1,2,-1
 551.5 489 l 1,3,-1
 551.5 473 l 1,4,-1
 551.5 0 l 1,5,-1
 474.5 0 l 1,6,7
 445.5 59 445.5 59 393.5 111 c 128,-1,8
 341.5 163 341.5 163 275 198.5 c 128,-1,9
 208.5 234 208.5 234 135.5 243 c 1,10,-1
 96.5 339 l 1,11,12
 193.5 395 193.5 395 290.5 439 c 128,-1,13
 387.5 483 387.5 483 496.5 517 c 1,14,-1
 474.5 475 l 1,15,-1
 474.5 551 l 1,16,-1
 123.5 551 l 1,17,-1
 123.5 622 l 1,18,-1
 789.5 622 l 5,0,-1
474.5 467 m 1,19,-1
 495.5 438 l 1,20,21
 444.5 424 444.5 424 390 401 c 128,-1,22
 335.5 378 335.5 378 284 353 c 128,-1,23
 232.5 328 232.5 328 189.5 304 c 1,24,25
 245.5 293 245.5 293 305 262 c 128,-1,26
 364.5 231 364.5 231 414 186.5 c 128,-1,27
 463.5 142 463.5 142 487.5 90 c 1,28,-1
 479.5 88 l 1,29,30
 477.5 111 477.5 111 476 134 c 128,-1,31
 474.5 157 474.5 157 474.5 189 c 2,32,-1
 474.5 467 l 1,19,-1
820.5 288 m 0,33,34
 820.5 255 820.5 255 807.5 225.5 c 128,-1,35
 794.5 196 794.5 196 764.5 177 c 128,-1,36
 734.5 158 734.5 158 684.5 158 c 0,37,38
 668.5 158 668.5 158 654 159 c 128,-1,39
 639.5 160 639.5 160 625.5 163 c 1,40,-1
 631.5 235 l 1,41,42
 637.5 234 637.5 234 646 233.5 c 128,-1,43
 654.5 233 654.5 233 665.5 233 c 0,44,45
 713.5 233 713.5 233 728 251.5 c 128,-1,46
 742.5 270 742.5 270 742.5 296 c 0,47,48
 742.5 349 742.5 349 691 386.5 c 128,-1,49
 639.5 424 639.5 424 538.5 438 c 1,50,-1
 541.5 513 l 1,51,52
 618.5 505 618.5 505 681.5 474.5 c 128,-1,53
 744.5 444 744.5 444 782.5 396.5 c 128,-1,54
 820.5 349 820.5 349 820.5 288 c 0,33,34
EndSplineSet
EndChar

StartChar: l
Encoding: 108 108 78
Width: 917
Flags: W
AnchorPoint: "Anchor-2" 447.5 622 basechar 0
AnchorPoint: "Anchor-1" 641.5 0 basechar 0
LayerCount: 2
Fore
SplineSet
789.5 622 m 5,0,-1
 789.5 551 l 5,1,-1
 718.5 551 l 1,2,-1
 718.5 0 l 1,3,-1
 641.5 0 l 1,4,-1
 641.5 335 l 1,5,-1
 647.5 309 l 1,6,7
 625.5 341 625.5 341 601 360 c 128,-1,8
 576.5 379 576.5 379 547.5 379 c 0,9,10
 532.5 379 532.5 379 517 373.5 c 128,-1,11
 501.5 368 501.5 368 491 353 c 128,-1,12
 480.5 338 480.5 338 480.5 307 c 0,13,14
 480.5 296 480.5 296 481 287.5 c 128,-1,15
 481.5 279 481.5 279 482.5 271 c 1,16,-1
 417.5 266 l 1,17,18
 413.5 307 413.5 307 395.5 335.5 c 128,-1,19
 377.5 364 377.5 364 351.5 379 c 128,-1,20
 325.5 394 325.5 394 295.5 394 c 0,21,22
 268.5 394 268.5 394 249.5 383.5 c 128,-1,23
 230.5 373 230.5 373 220.5 355.5 c 128,-1,24
 210.5 338 210.5 338 210.5 316 c 0,25,26
 210.5 276 210.5 276 240 248 c 128,-1,27
 269.5 220 269.5 220 323.5 201 c 1,28,-1
 296.5 127 l 1,29,30
 248.5 142 248.5 142 210.5 168 c 128,-1,31
 172.5 194 172.5 194 150.5 232 c 128,-1,32
 128.5 270 128.5 270 128.5 320 c 0,33,34
 128.5 365 128.5 365 150.5 397.5 c 128,-1,35
 172.5 430 172.5 430 209.5 448 c 128,-1,36
 246.5 466 246.5 466 290.5 466 c 0,37,38
 343.5 466 343.5 466 381.5 446.5 c 128,-1,39
 419.5 427 419.5 427 451.5 384 c 1,40,-1
 436.5 383 l 1,41,42
 446.5 416 446.5 416 475 433.5 c 128,-1,43
 503.5 451 503.5 451 534.5 451 c 0,44,45
 570.5 451 570.5 451 596.5 437 c 128,-1,46
 622.5 423 622.5 423 653.5 397 c 1,47,-1
 644.5 382 l 1,48,49
 643.5 403 643.5 403 642.5 424 c 128,-1,50
 641.5 445 641.5 445 641.5 467 c 2,51,-1
 641.5 551 l 1,52,-1
 127.5 551 l 1,53,-1
 127.5 622 l 1,54,-1
 789.5 622 l 5,0,-1
EndSplineSet
EndChar

StartChar: m
Encoding: 109 109 79
Width: 917
Flags: W
AnchorPoint: "Anchor-2" 457.5 622 basechar 0
AnchorPoint: "Anchor-1" 596.5 0 basechar 0
LayerCount: 2
Fore
SplineSet
760.5 622 m 1,0,-1
 760.5 551 l 1,1,-1
 673.5 551 l 1,2,-1
 673.5 0 l 1,3,-1
 596.5 0 l 1,4,-1
 596.5 135 l 1,5,-1
 614.5 82 l 1,6,7
 579.5 135 579.5 135 544 180 c 128,-1,8
 508.5 225 508.5 225 469 253 c 128,-1,9
 429.5 281 429.5 281 382.5 281 c 0,10,11
 345.5 281 345.5 281 320 262 c 128,-1,12
 294.5 243 294.5 243 294.5 205 c 0,13,14
 294.5 172 294.5 172 318.5 149.5 c 128,-1,15
 342.5 127 342.5 127 389.5 111 c 1,16,-1
 364.5 34 l 1,17,18
 310.5 53 310.5 53 277 80 c 128,-1,19
 243.5 107 243.5 107 228 139.5 c 128,-1,20
 212.5 172 212.5 172 212.5 208 c 0,21,22
 212.5 256 212.5 256 236 288 c 128,-1,23
 259.5 320 259.5 320 296 336.5 c 128,-1,24
 332.5 353 332.5 353 369.5 353 c 0,25,26
 429.5 353 429.5 353 475 331 c 128,-1,27
 520.5 309 520.5 309 555 272 c 128,-1,28
 589.5 235 589.5 235 617.5 189 c 1,29,-1
 600.5 186 l 1,30,31
 598.5 209 598.5 209 597.5 232.5 c 128,-1,32
 596.5 256 596.5 256 596.5 281 c 2,33,-1
 596.5 551 l 1,34,-1
 156.5 551 l 5,35,-1
 156.5 622 l 5,36,-1
 760.5 622 l 1,0,-1
445.5 323 m 0,37,38
 445.5 317 445.5 317 445 311 c 128,-1,39
 444.5 305 444.5 305 443.5 299 c 1,40,-1
 367.5 322 l 1,41,42
 365.5 380 365.5 380 347.5 415 c 128,-1,43
 329.5 450 329.5 450 290.5 468.5 c 128,-1,44
 251.5 487 251.5 487 184.5 494 c 1,45,-1
 197.5 566 l 1,46,-1
 243.5 553 l 1,47,48
 291.5 549 291.5 549 329 533.5 c 128,-1,49
 366.5 518 366.5 518 392.5 490 c 128,-1,50
 418.5 462 418.5 462 432 420.5 c 128,-1,51
 445.5 379 445.5 379 445.5 323 c 0,37,38
EndSplineSet
EndChar

StartChar: n
Encoding: 110 110 80
Width: 917
Flags: W
AnchorPoint: "Anchor-2" 449.5 622 basechar 0
AnchorPoint: "Anchor-1" 579.5 0 basechar 0
LayerCount: 2
Fore
SplineSet
723.5 622 m 5,0,-1
 723.5 551 l 5,1,-1
 656.5 551 l 1,2,-1
 656.5 0 l 1,3,-1
 579.5 0 l 1,4,-1
 579.5 243 l 1,5,-1
 595.5 187 l 1,6,7
 562.5 233 562.5 233 523.5 270 c 128,-1,8
 484.5 307 484.5 307 443.5 329 c 128,-1,9
 402.5 351 402.5 351 363.5 351 c 0,10,11
 326.5 351 326.5 351 301 331.5 c 128,-1,12
 275.5 312 275.5 312 275.5 274 c 0,13,14
 275.5 244 275.5 244 296.5 222.5 c 128,-1,15
 317.5 201 317.5 201 361.5 184 c 1,16,-1
 323.5 113 l 1,17,18
 262.5 138 262.5 138 228 180.5 c 128,-1,19
 193.5 223 193.5 223 193.5 277 c 0,20,21
 193.5 326 193.5 326 217 358.5 c 128,-1,22
 240.5 391 240.5 391 277 407 c 128,-1,23
 313.5 423 313.5 423 351.5 423 c 0,24,25
 403.5 423 403.5 423 446.5 405 c 128,-1,26
 489.5 387 489.5 387 527 356 c 128,-1,27
 564.5 325 564.5 325 598.5 284 c 1,28,-1
 584.5 280 l 1,29,30
 581.5 303 581.5 303 580.5 325.5 c 128,-1,31
 579.5 348 579.5 348 579.5 371 c 2,32,-1
 579.5 551 l 1,33,-1
 218.5 551 l 1,34,-1
 218.5 622 l 1,35,-1
 723.5 622 l 5,0,-1
EndSplineSet
EndChar

StartChar: o
Encoding: 111 111 81
Width: 917
Flags: W
LayerCount: 2
Fore
SplineSet
706.5 269 m 256,0,1
 706.5 180 706.5 180 676 117.5 c 128,-1,2
 645.5 55 645.5 55 589.5 22.5 c 128,-1,3
 533.5 -10 533.5 -10 456.5 -10 c 0,4,5
 385.5 -10 385.5 -10 330 22.5 c 128,-1,6
 274.5 55 274.5 55 242.5 117.5 c 128,-1,7
 210.5 180 210.5 180 210.5 269 c 0,8,9
 210.5 402 210.5 402 277.5 474 c 128,-1,10
 344.5 546 344.5 546 459.5 546 c 0,11,12
 532.5 546 532.5 546 588 513.5 c 128,-1,13
 643.5 481 643.5 481 675 419.5 c 128,-1,14
 706.5 358 706.5 358 706.5 269 c 256,0,1
301.5 269 m 0,15,16
 301.5 206 301.5 206 318 159.5 c 128,-1,17
 334.5 113 334.5 113 369.5 88 c 128,-1,18
 404.5 63 404.5 63 458.5 63 c 256,19,20
 512.5 63 512.5 63 547.5 88 c 128,-1,21
 582.5 113 582.5 113 599 159.5 c 128,-1,22
 615.5 206 615.5 206 615.5 269 c 0,23,24
 615.5 333 615.5 333 598.5 378 c 128,-1,25
 581.5 423 581.5 423 547 447.5 c 128,-1,26
 512.5 472 512.5 472 457.5 472 c 0,27,28
 375.5 472 375.5 472 338.5 418 c 128,-1,29
 301.5 364 301.5 364 301.5 269 c 0,15,16
EndSplineSet
EndChar

StartChar: p
Encoding: 112 112 82
Width: 917
Flags: W
AnchorPoint: "Anchor-2" 442.5 622 basechar 0
AnchorPoint: "Anchor-1" 628.5 0 basechar 0
AnchorPoint: "Anchor-0" 567.5 622 basechar 0
LayerCount: 2
Fore
SplineSet
810.5 622 m 1,0,-1
 810.5 551 l 1,1,-1
 705.5 551 l 1,2,-1
 705.5 0 l 1,3,-1
 628.5 0 l 1,4,-1
 628.5 396 l 1,5,-1
 650.5 332 l 1,6,7
 609.5 392 609.5 392 575.5 434.5 c 128,-1,8
 541.5 477 541.5 477 511 504 c 128,-1,9
 480.5 531 480.5 531 449.5 543.5 c 128,-1,10
 418.5 556 418.5 556 382.5 556 c 0,11,12
 342.5 556 342.5 556 310 541 c 128,-1,13
 277.5 526 277.5 526 250.5 501 c 128,-1,14
 223.5 476 223.5 476 200.5 447 c 1,15,-1
 192.5 445 l 1,16,17
 208.5 455 208.5 455 224 460 c 128,-1,18
 239.5 465 239.5 465 258.5 465 c 0,19,20
 316.5 465 316.5 465 343.5 433.5 c 128,-1,21
 370.5 402 370.5 402 370.5 356 c 0,22,23
 370.5 345 370.5 345 369.5 335 c 128,-1,24
 368.5 325 368.5 325 366.5 320 c 1,25,-1
 349.5 326 l 1,26,27
 361.5 339 361.5 339 372.5 351 c 128,-1,28
 383.5 363 383.5 363 396 375 c 128,-1,29
 408.5 387 408.5 387 421.5 400 c 2,30,-1
 545.5 516 l 1,31,-1
 594.5 463 l 1,32,-1
 310.5 195 l 1,33,-1
 251.5 250 l 1,34,-1
 333.5 328 l 1,35,-1
 297.5 285 l 1,36,-1
 267.5 262 l 1,37,38
 282.5 279 282.5 279 293 298.5 c 128,-1,39
 303.5 318 303.5 318 303.5 343 c 256,40,41
 303.5 368 303.5 368 288.5 383 c 128,-1,42
 273.5 398 273.5 398 244.5 398 c 0,43,44
 228.5 398 228.5 398 213.5 394 c 128,-1,45
 198.5 390 198.5 390 182.5 380 c 1,46,-1
 106.5 452 l 1,47,48
 146.5 505 146.5 505 188.5 544.5 c 128,-1,49
 230.5 584 230.5 584 276.5 606.5 c 128,-1,50
 322.5 629 322.5 629 375.5 629 c 0,51,52
 431.5 629 431.5 629 476.5 608 c 128,-1,53
 521.5 587 521.5 587 563.5 545.5 c 128,-1,54
 605.5 504 605.5 504 651.5 441 c 1,55,-1
 633.5 446 l 1,56,57
 630.5 470 630.5 470 629.5 498 c 128,-1,58
 628.5 526 628.5 526 628.5 558 c 2,59,-1
 628.5 688 l 1,60,-1
 681.5 688 l 1,61,-1
 704.5 622 l 1,62,-1
 810.5 622 l 1,0,-1
EndSplineSet
EndChar

StartChar: q
Encoding: 113 113 83
Width: 917
Flags: W
AnchorPoint: "Anchor-1" 420.5 765 basechar 0
AnchorPoint: "Anchor-0" 420.5 0 basechar 0
LayerCount: 2
Fore
SplineSet
359.5 765 m 0,0,1
 378.5 765 378.5 765 396.5 761 c 128,-1,2
 414.5 757 414.5 757 424.5 752 c 1,3,-1
 424.5 679 l 1,4,5
 417.5 682 417.5 682 403.5 685.5 c 128,-1,6
 389.5 689 389.5 689 372.5 689 c 0,7,8
 350.5 689 350.5 689 338 676 c 128,-1,9
 325.5 663 325.5 663 325.5 631 c 2,10,-1
 325.5 363 l 2,11,12
 325.5 347 325.5 347 324.5 321 c 128,-1,13
 323.5 295 323.5 295 321.5 276 c 1,14,-1
 325.5 276 l 1,15,16
 331.5 285 331.5 285 343.5 299.5 c 128,-1,17
 355.5 314 355.5 314 368 329.5 c 128,-1,18
 380.5 345 380.5 345 389.5 355 c 2,19,-1
 560.5 536 l 1,20,-1
 663.5 536 l 1,21,-1
 446.5 307 l 1,22,-1
 678.5 0 l 1,23,-1
 572.5 0 l 1,24,-1
 386.5 250 l 1,25,-1
 325.5 197 l 1,26,-1
 325.5 0 l 1,27,-1
 238.5 0 l 1,28,-1
 238.5 625 l 2,29,30
 238.5 765 238.5 765 359.5 765 c 0,0,1
EndSplineSet
EndChar

StartChar: r
Encoding: 114 114 84
Width: 917
Flags: W
AnchorPoint: "Anchor-2" 452.5 622 basechar 0
AnchorPoint: "Anchor-1" 578.5 0 basechar 0
LayerCount: 2
Fore
SplineSet
339.5 -6 m 256,0,1
 314.5 -6 314.5 -6 297 10 c 128,-1,2
 279.5 26 279.5 26 279.5 52 c 256,3,4
 279.5 78 279.5 78 297 95 c 128,-1,5
 314.5 112 314.5 112 339.5 112 c 256,6,7
 364.5 112 364.5 112 382 95 c 128,-1,8
 399.5 78 399.5 78 399.5 52 c 256,9,10
 399.5 26 399.5 26 382 10 c 128,-1,11
 364.5 -6 364.5 -6 339.5 -6 c 256,0,1
725.5 622 m 1,12,-1
 725.5 551 l 1,13,-1
 655.5 551 l 1,14,-1
 655.5 0 l 1,15,-1
 578.5 0 l 1,16,17
 548.5 60 548.5 60 496 110.5 c 128,-1,18
 443.5 161 443.5 161 375.5 196 c 128,-1,19
 307.5 231 307.5 231 230.5 243 c 1,20,-1
 191.5 339 l 1,21,22
 287.5 397 287.5 397 390 444 c 128,-1,23
 492.5 491 492.5 491 601.5 524 c 1,24,-1
 578.5 482 l 1,25,-1
 578.5 551 l 1,26,-1
 194.5 551 l 1,27,-1
 194.5 622 l 1,28,-1
 725.5 622 l 1,12,-1
578.5 474 m 1,29,-1
 599.5 446 l 1,30,31
 523.5 421 523.5 421 439.5 384.5 c 128,-1,32
 355.5 348 355.5 348 284.5 304 c 1,33,34
 338.5 292 338.5 292 399.5 263 c 128,-1,35
 460.5 234 460.5 234 512.5 190 c 128,-1,36
 564.5 146 564.5 146 592.5 88 c 1,37,-1
 583.5 88 l 1,38,39
 581.5 111 581.5 111 580 134 c 128,-1,40
 578.5 157 578.5 157 578.5 189 c 2,41,-1
 578.5 474 l 1,29,-1
EndSplineSet
EndChar

StartChar: s
Encoding: 115 115 85
Width: 917
Flags: W
AnchorPoint: "Anchor-2" 468.5 622 basechar 0
AnchorPoint: "Anchor-1" 637.5 0 basechar 0
LayerCount: 2
Fore
SplineSet
785.5 622 m 1,0,-1
 785.5 551 l 1,1,-1
 714.5 551 l 1,2,-1
 714.5 0 l 1,3,-1
 637.5 0 l 1,4,-1
 637.5 353 l 1,5,-1
 660.5 290 l 1,6,7
 629.5 331 629.5 331 607 353 c 128,-1,8
 584.5 375 584.5 375 563.5 375 c 0,9,10
 549.5 375 549.5 375 537.5 367 c 128,-1,11
 525.5 359 525.5 359 510.5 336.5 c 128,-1,12
 495.5 314 495.5 314 470.5 268 c 0,13,14
 443.5 219 443.5 219 421.5 187.5 c 128,-1,15
 399.5 156 399.5 156 375 141.5 c 128,-1,16
 350.5 127 350.5 127 315.5 127 c 0,17,18
 288.5 127 288.5 127 264 138 c 128,-1,19
 239.5 149 239.5 149 215 174.5 c 128,-1,20
 190.5 200 190.5 200 162.5 244 c 1,21,-1
 223.5 281 l 1,22,23
 250.5 233 250.5 233 268.5 218 c 128,-1,24
 286.5 203 286.5 203 307.5 203 c 0,25,26
 324.5 203 324.5 203 340 213.5 c 128,-1,27
 355.5 224 355.5 224 374 250 c 128,-1,28
 392.5 276 392.5 276 416.5 321 c 1,29,-1
 439.5 354 l 1,30,31
 465.5 408 465.5 408 489.5 428.5 c 128,-1,32
 513.5 449 513.5 449 542.5 449 c 0,33,34
 575.5 449 575.5 449 602 430.5 c 128,-1,35
 628.5 412 628.5 412 663.5 374 c 1,36,-1
 643.5 373 l 1,37,38
 639.5 396 639.5 396 638.5 416.5 c 128,-1,39
 637.5 437 637.5 437 637.5 458 c 2,40,-1
 637.5 551 l 1,41,-1
 131.5 551 l 5,42,-1
 131.5 622 l 5,43,-1
 785.5 622 l 1,0,-1
398.5 271 m 1,44,45
 388.5 339 388.5 339 378 379 c 128,-1,46
 367.5 419 367.5 419 341.5 441 c 0,47,48
 316.5 464 316.5 464 273.5 475.5 c 128,-1,49
 230.5 487 230.5 487 165.5 495 c 1,50,-1
 180.5 571 l 1,51,-1
 234.5 551 l 1,52,53
 291.5 542 291.5 542 329.5 528 c 128,-1,54
 367.5 514 367.5 514 391 491.5 c 128,-1,55
 414.5 469 414.5 469 426.5 436 c 128,-1,56
 438.5 403 438.5 403 442.5 356 c 1,57,-1
 398.5 271 l 1,44,45
EndSplineSet
EndChar

StartChar: t
Encoding: 116 116 86
Width: 917
Flags: W
AnchorPoint: "Anchor-2" 461.5 622 basechar 0
AnchorPoint: "Anchor-1" 490.5 0 basechar 0
LayerCount: 2
Fore
SplineSet
732.5 622 m 1,0,-1
 732.5 551 l 1,1,-1
 350.5 551 l 1,2,-1
 350.5 205 l 2,3,4
 350.5 161 350.5 161 355.5 143 c 128,-1,5
 360.5 125 360.5 125 367.5 117 c 0,6,7
 385.5 96 385.5 96 422.5 96 c 0,8,9
 461.5 96 461.5 96 496.5 115 c 128,-1,10
 531.5 134 531.5 134 557.5 162 c 0,11,12
 586.5 193 586.5 193 602 228 c 128,-1,13
 617.5 263 617.5 263 617.5 299 c 0,14,15
 617.5 331 617.5 331 601.5 347.5 c 128,-1,16
 585.5 364 585.5 364 548.5 364 c 0,17,18
 536.5 364 536.5 364 522.5 362 c 128,-1,19
 508.5 360 508.5 360 495.5 357 c 1,20,-1
 484.5 428 l 1,21,22
 503.5 433 503.5 433 524 436 c 128,-1,23
 544.5 439 544.5 439 567.5 439 c 0,24,25
 604.5 439 604.5 439 633.5 425 c 128,-1,26
 662.5 411 662.5 411 679 381 c 128,-1,27
 695.5 351 695.5 351 695.5 303 c 0,28,29
 695.5 244 695.5 244 666.5 188.5 c 128,-1,30
 637.5 133 637.5 133 593.5 95 c 0,31,32
 556.5 63 556.5 63 513 43.5 c 128,-1,33
 469.5 24 469.5 24 417.5 24 c 0,34,35
 380.5 24 380.5 24 354 35 c 0,36,37
 323.5 48 323.5 48 310.5 63 c 0,38,39
 294.5 82 294.5 82 284 109 c 128,-1,40
 273.5 136 273.5 136 273.5 191 c 2,41,-1
 273.5 551 l 1,42,-1
 189.5 551 l 5,43,-1
 189.5 622 l 5,44,-1
 732.5 622 l 1,0,-1
573.5 622 m 1,45,46
 572.5 663 572.5 663 554 681 c 128,-1,47
 535.5 699 535.5 699 493.5 699 c 2,48,-1
 399.5 699 l 2,49,50
 334.5 699 334.5 699 299 708 c 128,-1,51
 263.5 717 263.5 717 238.5 736 c 0,52,53
 211.5 756 211.5 756 198 787.5 c 128,-1,54
 184.5 819 184.5 819 184.5 859 c 0,55,56
 184.5 872 184.5 872 186 884.5 c 128,-1,57
 187.5 897 187.5 897 189.5 912 c 1,58,-1
 263.5 907 l 1,59,60
 261.5 896 261.5 896 260.5 887.5 c 128,-1,61
 259.5 879 259.5 879 259.5 869 c 0,62,63
 259.5 847 259.5 847 264 830 c 128,-1,64
 268.5 813 268.5 813 278.5 802 c 0,65,66
 292.5 786 292.5 786 319 778.5 c 128,-1,67
 345.5 771 345.5 771 394.5 771 c 2,68,-1
 472.5 771 l 2,69,70
 525.5 771 525.5 771 556.5 763 c 128,-1,71
 587.5 755 587.5 755 609.5 734 c 0,72,73
 626.5 718 626.5 718 635.5 690.5 c 128,-1,74
 644.5 663 644.5 663 645.5 622 c 1,75,-1
 573.5 622 l 1,45,46
EndSplineSet
EndChar

StartChar: u
Encoding: 117 117 87
Width: 917
Flags: W
LayerCount: 2
Fore
SplineSet
685.5 536 m 1,0,-1
 685.5 0 l 1,1,-1
 613.5 0 l 1,2,-1
 600.5 71 l 1,3,-1
 596.5 71 l 1,4,5
 579.5 43 579.5 43 552.5 25 c 128,-1,6
 525.5 7 525.5 7 493.5 -1.5 c 128,-1,7
 461.5 -10 461.5 -10 426.5 -10 c 0,8,9
 362.5 -10 362.5 -10 319 10.5 c 128,-1,10
 275.5 31 275.5 31 253.5 74 c 128,-1,11
 231.5 117 231.5 117 231.5 185 c 2,12,-1
 231.5 536 l 1,13,-1
 320.5 536 l 1,14,-1
 320.5 191 l 2,15,16
 320.5 127 320.5 127 349.5 95 c 128,-1,17
 378.5 63 378.5 63 439.5 63 c 0,18,19
 528.5 63 528.5 63 563 113 c 128,-1,20
 597.5 163 597.5 163 597.5 257 c 2,21,-1
 597.5 536 l 1,22,-1
 685.5 536 l 1,0,-1
EndSplineSet
EndChar

StartChar: v
Encoding: 118 118 88
Width: 917
Flags: W
LayerCount: 2
Fore
SplineSet
407.5 0 m 1,0,-1
 204.5 536 l 1,1,-1
 298.5 536 l 1,2,-1
 412.5 220 l 2,3,4
 420.5 198 420.5 198 429.5 171 c 128,-1,5
 438.5 144 438.5 144 445.5 119.5 c 128,-1,6
 452.5 95 452.5 95 455.5 78 c 1,7,-1
 459.5 78 l 1,8,9
 463.5 95 463.5 95 471 120 c 128,-1,10
 478.5 145 478.5 145 488 172 c 128,-1,11
 497.5 199 497.5 199 504.5 220 c 2,12,-1
 618.5 536 l 1,13,-1
 712.5 536 l 1,14,-1
 508.5 0 l 1,15,-1
 407.5 0 l 1,0,-1
EndSplineSet
EndChar

StartChar: w
Encoding: 119 119 89
Width: 917
Flags: W
AnchorPoint: "Anchor-1" 449 536 basechar 0
AnchorPoint: "Anchor-0" 448 0 basechar 0
LayerCount: 2
Fore
SplineSet
449 682 m 4,0,1
 469 682 469 682 484.5 668.5 c 132,-1,2
 500 655 500 655 500 626 c 4,3,4
 500 598 500 598 484.5 584 c 132,-1,5
 469 570 469 570 449 570 c 4,6,7
 427 570 427 570 412 584 c 132,-1,8
 397 598 397 598 397 626 c 4,9,10
 397 655 397 655 412 668.5 c 132,-1,11
 427 682 427 682 449 682 c 4,0,1
686 541 m 0,12,13
 698 541 698 541 708 539 c 128,-1,14
 718 537 718 537 727 535 c 1,15,-1
 727 467 l 1,16,17
 714 472 714 472 693 472 c 0,18,19
 671 472 671 472 657 452 c 128,-1,20
 643 432 643 432 629 390 c 2,21,-1
 506 0 l 1,22,-1
 389 0 l 1,23,-1
 190 536 l 1,24,-1
 282 536 l 1,25,-1
 409 181 l 2,26,27
 424 139 424 139 434 107.5 c 128,-1,28
 444 76 444 76 446 62 c 1,29,-1
 450 62 l 1,30,31
 454 83 454 83 462 119 c 128,-1,32
 470 155 470 155 481 189 c 2,33,-1
 551 407 l 2,34,35
 568 459 568 459 584.5 488 c 128,-1,36
 601 517 601 517 624.5 529 c 128,-1,37
 648 541 648 541 686 541 c 0,12,13
EndSplineSet
EndChar

StartChar: x
Encoding: 120 120 90
Width: 917
Flags: W
LayerCount: 2
Fore
SplineSet
406 274 m 1,0,-1
 221 536 l 1,1,-1
 321 536 l 1,2,-1
 459 334 l 1,3,-1
 596 536 l 1,4,-1
 695 536 l 1,5,-1
 510 274 l 1,6,-1
 705 0 l 1,7,-1
 605 0 l 1,8,-1
 459 214 l 1,9,-1
 311 0 l 1,10,-1
 212 0 l 1,11,-1
 406 274 l 1,0,-1
EndSplineSet
EndChar

StartChar: y
Encoding: 121 121 91
Width: 917
Flags: W
AnchorPoint: "Anchor-2" 461.5 622 basechar 0
AnchorPoint: "Anchor-1" 602.5 0 basechar 0
LayerCount: 2
Fore
SplineSet
751.5 622 m 1,0,-1
 751.5 551 l 1,1,-1
 679.5 551 l 1,2,-1
 679.5 0 l 1,3,-1
 602.5 0 l 1,4,5
 560.5 56 560.5 56 509.5 98.5 c 128,-1,6
 458.5 141 458.5 141 391.5 170 c 128,-1,7
 324.5 199 324.5 199 232.5 212 c 1,8,-1
 196.5 303 l 1,9,10
 227.5 324 227.5 324 261.5 343 c 128,-1,11
 295.5 362 295.5 362 331 380 c 128,-1,12
 366.5 398 366.5 398 400.5 414 c 1,13,14
 362.5 443 362.5 443 313 465.5 c 128,-1,15
 263.5 488 263.5 488 196.5 502 c 1,16,-1
 227.5 570 l 1,17,-1
 229.5 551 l 1,18,-1
 165.5 551 l 5,19,-1
 165.5 622 l 5,20,-1
 751.5 622 l 1,0,-1
602.5 551 m 1,21,-1
 283.5 551 l 1,22,-1
 262.5 560 l 1,23,24
 304.5 550 304.5 550 347 528 c 128,-1,25
 389.5 506 389.5 506 426 480.5 c 128,-1,26
 462.5 455 462.5 455 484.5 432 c 1,27,-1
 489.5 376 l 1,28,29
 453.5 360 453.5 360 414 341 c 128,-1,30
 374.5 322 374.5 322 338 303 c 128,-1,31
 301.5 284 301.5 284 273.5 265 c 1,32,-1
 261.5 280 l 1,33,34
 347.5 268 347.5 268 412 240 c 128,-1,35
 476.5 212 476.5 212 526.5 172 c 128,-1,36
 576.5 132 576.5 132 618.5 83 c 1,37,-1
 605.5 79 l 1,38,39
 604.5 100 604.5 100 603.5 124.5 c 128,-1,40
 602.5 149 602.5 149 602.5 171 c 2,41,-1
 602.5 551 l 1,21,-1
EndSplineSet
EndChar

StartChar: z
Encoding: 122 122 92
Width: 917
Flags: W
AnchorPoint: "Anchor-2" 466.5 622 basechar 0
AnchorPoint: "Anchor-1" 765.5 0 basechar 0
AnchorPoint: "Anchor-0" 680.5 622 basechar 0
LayerCount: 2
Fore
SplineSet
409.5 63 m 0,0,1
 350.5 63 350.5 63 296.5 84 c 128,-1,2
 242.5 105 242.5 105 195 151.5 c 128,-1,3
 147.5 198 147.5 198 108 275.5 c 128,-1,4
 68.5 353 68.5 353 37.5 465 c 1,5,-1
 113.5 485 l 1,6,7
 147.5 362 147.5 362 189.5 285.5 c 128,-1,8
 231.5 209 231.5 209 286.5 174 c 128,-1,9
 341.5 139 341.5 139 412.5 139 c 0,10,11
 486.5 139 486.5 139 524.5 171 c 128,-1,12
 562.5 203 562.5 203 562.5 268 c 0,13,14
 562.5 299 562.5 299 554.5 321 c 128,-1,15
 546.5 343 546.5 343 538.5 358 c 1,16,-1
 598.5 358 l 1,17,18
 570.5 329 570.5 329 540 306 c 128,-1,19
 509.5 283 509.5 283 475 270 c 128,-1,20
 440.5 257 440.5 257 399.5 257 c 0,21,22
 360.5 257 360.5 257 330.5 272 c 128,-1,23
 300.5 287 300.5 287 283.5 315.5 c 128,-1,24
 266.5 344 266.5 344 266.5 384 c 0,25,26
 266.5 428 266.5 428 297.5 473.5 c 128,-1,27
 328.5 519 328.5 519 402.5 553 c 1,28,29
 382.5 552 382.5 552 357 551.5 c 128,-1,30
 331.5 551 331.5 551 306.5 551 c 2,31,-1
 65.5 551 l 1,32,-1
 65.5 622 l 1,33,-1
 879.5 622 l 5,34,-1
 879.5 551 l 5,35,-1
 622.5 551 l 2,36,37
 598.5 551 598.5 551 579.5 552 c 128,-1,38
 560.5 553 560.5 553 543.5 554 c 1,39,40
 459.5 516 459.5 516 416.5 485 c 128,-1,41
 373.5 454 373.5 454 358.5 428.5 c 128,-1,42
 343.5 403 343.5 403 343.5 380 c 0,43,44
 343.5 352 343.5 352 359.5 340 c 128,-1,45
 375.5 328 375.5 328 395.5 328 c 0,46,47
 433.5 328 433.5 328 463.5 345.5 c 128,-1,48
 493.5 363 493.5 363 531.5 396 c 1,49,-1
 617.5 365 l 1,50,51
 626.5 345 626.5 345 632.5 315.5 c 128,-1,52
 638.5 286 638.5 286 638.5 254 c 0,53,54
 638.5 204 638.5 204 616 160.5 c 128,-1,55
 593.5 117 593.5 117 543 90 c 128,-1,56
 492.5 63 492.5 63 409.5 63 c 0,0,1
809.5 205 m 0,57,58
 809.5 156 809.5 156 817.5 111 c 128,-1,59
 825.5 66 825.5 66 844.5 10 c 1,60,-1
 769.5 -7 l 1,61,62
 751.5 51 751.5 51 741.5 106.5 c 128,-1,63
 731.5 162 731.5 162 731.5 222 c 0,64,65
 731.5 275 731.5 275 741 317 c 128,-1,66
 750.5 359 750.5 359 763.5 388 c 1,67,68
 687.5 389 687.5 389 634 407.5 c 128,-1,69
 580.5 426 580.5 426 544.5 460.5 c 128,-1,70
 508.5 495 508.5 495 483.5 543 c 1,71,-1
 559.5 559 l 1,72,73
 575.5 530 575.5 530 600 507.5 c 128,-1,74
 624.5 485 624.5 485 663.5 472 c 128,-1,75
 702.5 459 702.5 459 759.5 459 c 0,76,77
 773.5 459 773.5 459 786.5 460 c 128,-1,78
 799.5 461 799.5 461 814.5 462 c 1,79,-1
 853.5 392 l 1,80,81
 829.5 347 829.5 347 819.5 304 c 128,-1,82
 809.5 261 809.5 261 809.5 205 c 0,57,58
EndSplineSet
EndChar

StartChar: at
Encoding: 64 64 93
Width: 917
Flags: W
LayerCount: 2
Fore
SplineSet
850 357 m 0,0,1
 850 311 850 311 839.5 267 c 128,-1,2
 829 223 829 223 807 187.5 c 128,-1,3
 785 152 785 152 753 130.5 c 128,-1,4
 721 109 721 109 677 109 c 0,5,6
 631 109 631 109 604.5 135.5 c 128,-1,7
 578 162 578 162 572 196 c 1,8,-1
 567 196 l 1,9,10
 549 159 549 159 514 134 c 128,-1,11
 479 109 479 109 426 109 c 0,12,13
 350 109 350 109 308.5 160 c 128,-1,14
 267 211 267 211 267 295 c 0,15,16
 267 361 267 361 293 411.5 c 128,-1,17
 319 462 319 462 366.5 491 c 128,-1,18
 414 520 414 520 479 520 c 0,19,20
 523 520 523 520 565.5 512.5 c 128,-1,21
 608 505 608 505 632 496 c 1,22,-1
 622 293 l 2,23,24
 621 275 621 275 621 267.5 c 128,-1,25
 621 260 621 260 621 257 c 0,26,27
 621 205 621 205 639.5 188 c 128,-1,28
 658 171 658 171 683 171 c 0,29,30
 714 171 714 171 735.5 196.5 c 128,-1,31
 757 222 757 222 768.5 264.5 c 128,-1,32
 780 307 780 307 780 358 c 0,33,34
 780 451 780 451 742.5 515.5 c 128,-1,35
 705 580 705 580 639.5 614 c 128,-1,36
 574 648 574 648 491 648 c 0,37,38
 406 648 406 648 340 621 c 128,-1,39
 274 594 274 594 229.5 545 c 128,-1,40
 185 496 185 496 162 429.5 c 128,-1,41
 139 363 139 363 139 283 c 0,42,43
 139 185 139 185 174 116.5 c 128,-1,44
 209 48 209 48 276.5 12.5 c 128,-1,45
 344 -23 344 -23 442 -23 c 0,46,47
 503 -23 503 -23 558.5 -9.5 c 128,-1,48
 614 4 614 4 657 20 c 1,49,-1
 657 -48 l 1,50,51
 614 -66 614 -66 560.5 -77.5 c 128,-1,52
 507 -89 507 -89 442 -89 c 0,53,54
 324 -89 324 -89 240 -45 c 128,-1,55
 156 -1 156 -1 111.5 81.5 c 128,-1,56
 67 164 67 164 67 280 c 0,57,58
 67 373 67 373 96 452.5 c 128,-1,59
 125 532 125 532 180 590.5 c 128,-1,60
 235 649 235 649 313.5 681.5 c 128,-1,61
 392 714 392 714 491 714 c 0,62,63
 569 714 569 714 634.5 689.5 c 128,-1,64
 700 665 700 665 748.5 618.5 c 128,-1,65
 797 572 797 572 823.5 506 c 128,-1,66
 850 440 850 440 850 357 c 0,0,1
345 293 m 0,67,68
 345 229 345 229 370.5 200 c 128,-1,69
 396 171 396 171 439 171 c 0,70,71
 495 171 495 171 519.5 213 c 128,-1,72
 544 255 544 255 548 322 c 2,73,-1
 554 447 l 1,74,75
 541 451 541 451 521 454 c 128,-1,76
 501 457 501 457 480 457 c 0,77,78
 431 457 431 457 401 433 c 128,-1,79
 371 409 371 409 358 371.5 c 128,-1,80
 345 334 345 334 345 293 c 0,67,68
EndSplineSet
EndChar

StartChar: ampersand
Encoding: 38 38 94
Width: 917
Flags: W
LayerCount: 2
Fore
SplineSet
371 725 m 0,0,1
 425 725 425 725 463.5 706.5 c 128,-1,2
 502 688 502 688 523 654 c 128,-1,3
 544 620 544 620 544 571 c 0,4,5
 544 508 544 508 503.5 464 c 128,-1,6
 463 420 463 420 401 384 c 1,7,-1
 594 198 l 1,8,9
 620 229 620 229 636.5 269.5 c 128,-1,10
 653 310 653 310 664 357 c 1,11,-1
 753 357 l 1,12,13
 737 293 737 293 713 238 c 128,-1,14
 689 183 689 183 651 142 c 1,15,-1
 797 0 l 1,16,-1
 678 0 l 1,17,-1
 591 84 l 1,18,19
 560 56 560 56 524 35 c 128,-1,20
 488 14 488 14 444.5 2 c 128,-1,21
 401 -10 401 -10 345 -10 c 0,22,23
 276 -10 276 -10 225.5 12.5 c 128,-1,24
 175 35 175 35 147.5 79 c 128,-1,25
 120 123 120 123 120 186 c 0,26,27
 120 237 120 237 138.5 274 c 128,-1,28
 157 311 157 311 192 340 c 128,-1,29
 227 369 227 369 274 396 c 1,30,31
 253 420 253 420 233 446 c 128,-1,32
 213 472 213 472 200 502.5 c 128,-1,33
 187 533 187 533 187 569 c 0,34,35
 187 618 187 618 209 653 c 128,-1,36
 231 688 231 688 272.5 706.5 c 128,-1,37
 314 725 314 725 371 725 c 0,0,1
327 341 m 1,38,39
 291 320 291 320 265.5 298.5 c 128,-1,40
 240 277 240 277 226 251 c 128,-1,41
 212 225 212 225 212 189 c 0,42,43
 212 134 212 134 249 101 c 128,-1,44
 286 68 286 68 348 68 c 0,45,46
 412 68 412 68 458 89 c 128,-1,47
 504 110 504 110 535 139 c 1,48,-1
 327 341 l 1,38,39
368 653 m 0,49,50
 326 653 326 653 299.5 631 c 128,-1,51
 273 609 273 609 273 570 c 0,52,53
 273 534 273 534 292 503.5 c 128,-1,54
 311 473 311 473 347 436 c 1,55,56
 406 470 406 470 431.5 500.5 c 128,-1,57
 457 531 457 531 457 571 c 0,58,59
 457 607 457 607 433 630 c 128,-1,60
 409 653 409 653 368 653 c 0,49,50
EndSplineSet
EndChar

StartChar: dollar
Encoding: 36 36 95
Width: 917
Flags: W
LayerCount: 2
Fore
SplineSet
422.5 49 m 1,0,1
 367.5 50 367.5 50 315.5 58.5 c 128,-1,2
 263.5 67 263.5 67 231.5 82 c 1,3,-1
 231.5 167 l 1,4,5
 265.5 151 265.5 151 318.5 139 c 128,-1,6
 371.5 127 371.5 127 422.5 126 c 1,7,-1
 422.5 328 l 1,8,9
 356.5 346 356.5 346 314.5 369.5 c 128,-1,10
 272.5 393 272.5 393 252 427 c 128,-1,11
 231.5 461 231.5 461 231.5 508 c 0,12,13
 231.5 557 231.5 557 255 592 c 128,-1,14
 278.5 627 278.5 627 321.5 647.5 c 128,-1,15
 364.5 668 364.5 668 422.5 671 c 1,16,-1
 422.5 759 l 1,17,-1
 486.5 759 l 1,18,-1
 486.5 672 l 1,19,20
 539.5 671 539.5 671 583 660.5 c 128,-1,21
 626.5 650 626.5 650 662.5 635 c 1,22,-1
 635.5 561 l 1,23,24
 603.5 574 603.5 574 565 583.5 c 128,-1,25
 526.5 593 526.5 593 486.5 596 c 1,26,-1
 486.5 395 l 1,27,28
 552.5 376 552.5 376 596.5 354.5 c 128,-1,29
 640.5 333 640.5 333 663 301.5 c 128,-1,30
 685.5 270 685.5 270 685.5 220 c 0,31,32
 685.5 150 685.5 150 633.5 106.5 c 128,-1,33
 581.5 63 581.5 63 486.5 53 c 1,34,-1
 486.5 -58 l 1,35,-1
 422.5 -58 l 1,36,-1
 422.5 49 l 1,0,1
486.5 131 m 1,37,38
 545.5 137 545.5 137 572.5 158.5 c 128,-1,39
 599.5 180 599.5 180 599.5 214 c 0,40,41
 599.5 239 599.5 239 589.5 255.5 c 128,-1,42
 579.5 272 579.5 272 555 284 c 128,-1,43
 530.5 296 530.5 296 486.5 307 c 1,44,-1
 486.5 131 l 1,37,38
422.5 594 m 1,45,46
 386.5 592 386.5 592 363.5 581.5 c 128,-1,47
 340.5 571 340.5 571 329 554 c 128,-1,48
 317.5 537 317.5 537 317.5 515 c 0,49,50
 317.5 489 317.5 489 327 470.5 c 128,-1,51
 336.5 452 336.5 452 359.5 439.5 c 128,-1,52
 382.5 427 382.5 427 422.5 417 c 1,53,-1
 422.5 594 l 1,45,46
EndSplineSet
EndChar

StartChar: grave
Encoding: 96 96 96
Width: 917
Flags: W
LayerCount: 2
Fore
SplineSet
463 766 m 1,0,1
 474 744 474 744 490.5 716.5 c 128,-1,2
 507 689 507 689 525.5 663 c 128,-1,3
 544 637 544 637 559 618 c 1,4,-1
 559 606 l 1,5,-1
 500 606 l 1,6,7
 483 620 483 620 462 639.5 c 128,-1,8
 441 659 441 659 420.5 680.5 c 128,-1,9
 400 702 400 702 383.5 722 c 128,-1,10
 367 742 367 742 358 756 c 1,11,-1
 358 766 l 1,12,-1
 463 766 l 1,0,1
EndSplineSet
EndChar

StartChar: uni0080
Encoding: 128 128 97
Width: 917
Flags: W
LayerCount: 2
Fore
SplineSet
253 85 m 0,0,1
 253 103 253 103 268.5 118 c 128,-1,2
 284 133 284 133 312 144.5 c 128,-1,3
 340 156 340 156 377.5 162.5 c 128,-1,4
 415 169 415 169 458 169 c 0,5,6
 502 169 502 169 539.5 162.5 c 128,-1,7
 577 156 577 156 604.5 144.5 c 128,-1,8
 632 133 632 133 648 118 c 128,-1,9
 664 103 664 103 664 85 c 0,10,11
 664 68 664 68 648 53 c 128,-1,12
 632 38 632 38 604.5 27 c 128,-1,13
 577 16 577 16 539.5 9.5 c 128,-1,14
 502 3 502 3 458 3 c 0,15,16
 415 3 415 3 377.5 9.5 c 128,-1,17
 340 16 340 16 312 27 c 128,-1,18
 284 38 284 38 268.5 53 c 128,-1,19
 253 68 253 68 253 85 c 0,0,1
333 85 m 256,20,21
 333 74 333 74 342.5 64.5 c 128,-1,22
 352 55 352 55 369 48.5 c 128,-1,23
 386 42 386 42 409 38 c 128,-1,24
 432 34 432 34 458 34 c 0,25,26
 485 34 485 34 507.5 38 c 128,-1,27
 530 42 530 42 547 48.5 c 128,-1,28
 564 55 564 55 573.5 64.5 c 128,-1,29
 583 74 583 74 583 85 c 256,30,31
 583 96 583 96 573.5 105.5 c 128,-1,32
 564 115 564 115 547 122 c 128,-1,33
 530 129 530 129 507.5 133 c 128,-1,34
 485 137 485 137 458 137 c 0,35,36
 432 137 432 137 409 133 c 128,-1,37
 386 129 386 129 369 122 c 128,-1,38
 352 115 352 115 342.5 105.5 c 128,-1,39
 333 96 333 96 333 85 c 256,20,21
253 272 m 0,40,41
 253 290 253 290 268.5 305 c 128,-1,42
 284 320 284 320 312 331.5 c 128,-1,43
 340 343 340 343 377.5 349 c 128,-1,44
 415 355 415 355 458 355 c 0,45,46
 502 355 502 355 539.5 349 c 128,-1,47
 577 343 577 343 604.5 331.5 c 128,-1,48
 632 320 632 320 648 305 c 128,-1,49
 664 290 664 290 664 272 c 0,50,51
 664 255 664 255 648 240 c 128,-1,52
 632 225 632 225 604.5 214 c 128,-1,53
 577 203 577 203 539.5 196 c 128,-1,54
 502 189 502 189 458 189 c 0,55,56
 415 189 415 189 377.5 196 c 128,-1,57
 340 203 340 203 312 214 c 128,-1,58
 284 225 284 225 268.5 240 c 128,-1,59
 253 255 253 255 253 272 c 0,40,41
333 272 m 256,60,61
 333 261 333 261 342.5 251.5 c 128,-1,62
 352 242 352 242 369 235 c 128,-1,63
 386 228 386 228 409 224 c 128,-1,64
 432 220 432 220 458 220 c 0,65,66
 485 220 485 220 507.5 224 c 128,-1,67
 530 228 530 228 547 235 c 128,-1,68
 564 242 564 242 573.5 251.5 c 128,-1,69
 583 261 583 261 583 272 c 256,70,71
 583 283 583 283 573.5 292.5 c 128,-1,72
 564 302 564 302 547 309 c 128,-1,73
 530 316 530 316 507.5 320 c 128,-1,74
 485 324 485 324 458 324 c 0,75,76
 432 324 432 324 409 320 c 128,-1,77
 386 316 386 316 369 309 c 128,-1,78
 352 302 352 302 342.5 292.5 c 128,-1,79
 333 283 333 283 333 272 c 256,60,61
253 461 m 256,80,81
 253 478 253 478 268.5 493.5 c 128,-1,82
 284 509 284 509 312 520 c 128,-1,83
 340 531 340 531 377.5 537.5 c 128,-1,84
 415 544 415 544 458 544 c 0,85,86
 502 544 502 544 539.5 537.5 c 128,-1,87
 577 531 577 531 604.5 520 c 128,-1,88
 632 509 632 509 648 493.5 c 128,-1,89
 664 478 664 478 664 461 c 256,90,91
 664 444 664 444 648 429 c 128,-1,92
 632 414 632 414 604.5 402.5 c 128,-1,93
 577 391 577 391 539.5 384.5 c 128,-1,94
 502 378 502 378 458 378 c 0,95,96
 415 378 415 378 377.5 384.5 c 128,-1,97
 340 391 340 391 312 402.5 c 128,-1,98
 284 414 284 414 268.5 429 c 128,-1,99
 253 444 253 444 253 461 c 256,80,81
333 461 m 256,100,101
 333 450 333 450 342.5 440.5 c 128,-1,102
 352 431 352 431 369 424 c 128,-1,103
 386 417 386 417 409 413 c 128,-1,104
 432 409 432 409 458 409 c 0,105,106
 485 409 485 409 507.5 413 c 128,-1,107
 530 417 530 417 547 424 c 128,-1,108
 564 431 564 431 573.5 440.5 c 128,-1,109
 583 450 583 450 583 461 c 256,110,111
 583 472 583 472 573.5 481.5 c 128,-1,112
 564 491 564 491 547 498 c 128,-1,113
 530 505 530 505 507.5 509 c 128,-1,114
 485 513 485 513 458 513 c 0,115,116
 432 513 432 513 409 509 c 128,-1,117
 386 505 386 505 369 498 c 128,-1,118
 352 491 352 491 342.5 481.5 c 128,-1,119
 333 472 333 472 333 461 c 256,100,101
253 648 m 256,120,121
 253 665 253 665 268.5 680.5 c 128,-1,122
 284 696 284 696 312 707 c 128,-1,123
 340 718 340 718 377.5 724.5 c 128,-1,124
 415 731 415 731 458 731 c 0,125,126
 502 731 502 731 539.5 724.5 c 128,-1,127
 577 718 577 718 604.5 707 c 128,-1,128
 632 696 632 696 648 680.5 c 128,-1,129
 664 665 664 665 664 648 c 256,130,131
 664 631 664 631 648 616 c 128,-1,132
 632 601 632 601 604.5 589.5 c 128,-1,133
 577 578 577 578 539.5 571.5 c 128,-1,134
 502 565 502 565 458 565 c 0,135,136
 415 565 415 565 377.5 571.5 c 128,-1,137
 340 578 340 578 312 589.5 c 128,-1,138
 284 601 284 601 268.5 616 c 128,-1,139
 253 631 253 631 253 648 c 256,120,121
333 648 m 0,140,141
 333 637 333 637 342.5 627.5 c 128,-1,142
 352 618 352 618 369 611 c 128,-1,143
 386 604 386 604 409 600 c 128,-1,144
 432 596 432 596 458 596 c 0,145,146
 485 596 485 596 507.5 600 c 128,-1,147
 530 604 530 604 547 611 c 128,-1,148
 564 618 564 618 573.5 627.5 c 128,-1,149
 583 637 583 637 583 648 c 0,150,151
 583 658 583 658 573.5 668 c 128,-1,152
 564 678 564 678 547 685 c 128,-1,153
 530 692 530 692 507.5 696 c 128,-1,154
 485 700 485 700 458 700 c 0,155,156
 432 700 432 700 409 696 c 128,-1,157
 386 692 386 692 369 685 c 128,-1,158
 352 678 352 678 342.5 668 c 128,-1,159
 333 658 333 658 333 648 c 0,140,141
EndSplineSet
EndChar

StartChar: uni0081
Encoding: 129 129 98
Width: 917
Flags: W
LayerCount: 2
Fore
SplineSet
253 85 m 0,0,1
 253 103 253 103 268.5 118 c 128,-1,2
 284 133 284 133 312 144.5 c 128,-1,3
 340 156 340 156 377.5 162.5 c 128,-1,4
 415 169 415 169 458 169 c 0,5,6
 502 169 502 169 539.5 162.5 c 128,-1,7
 577 156 577 156 604.5 144.5 c 128,-1,8
 632 133 632 133 648 118 c 128,-1,9
 664 103 664 103 664 85 c 0,10,11
 664 68 664 68 648 53 c 128,-1,12
 632 38 632 38 604.5 27 c 128,-1,13
 577 16 577 16 539.5 9.5 c 128,-1,14
 502 3 502 3 458 3 c 0,15,16
 415 3 415 3 377.5 9.5 c 128,-1,17
 340 16 340 16 312 27 c 128,-1,18
 284 38 284 38 268.5 53 c 128,-1,19
 253 68 253 68 253 85 c 0,0,1
253 272 m 0,20,21
 253 290 253 290 268.5 305 c 128,-1,22
 284 320 284 320 312 331.5 c 128,-1,23
 340 343 340 343 377.5 349 c 128,-1,24
 415 355 415 355 458 355 c 0,25,26
 502 355 502 355 539.5 349 c 128,-1,27
 577 343 577 343 604.5 331.5 c 128,-1,28
 632 320 632 320 648 305 c 128,-1,29
 664 290 664 290 664 272 c 0,30,31
 664 255 664 255 648 240 c 128,-1,32
 632 225 632 225 604.5 214 c 128,-1,33
 577 203 577 203 539.5 196 c 128,-1,34
 502 189 502 189 458 189 c 0,35,36
 415 189 415 189 377.5 196 c 128,-1,37
 340 203 340 203 312 214 c 128,-1,38
 284 225 284 225 268.5 240 c 128,-1,39
 253 255 253 255 253 272 c 0,20,21
333 272 m 256,40,41
 333 261 333 261 342.5 251.5 c 128,-1,42
 352 242 352 242 369 235 c 128,-1,43
 386 228 386 228 409 224 c 128,-1,44
 432 220 432 220 458 220 c 0,45,46
 485 220 485 220 507.5 224 c 128,-1,47
 530 228 530 228 547 235 c 128,-1,48
 564 242 564 242 573.5 251.5 c 128,-1,49
 583 261 583 261 583 272 c 256,50,51
 583 283 583 283 573.5 292.5 c 128,-1,52
 564 302 564 302 547 309 c 128,-1,53
 530 316 530 316 507.5 320 c 128,-1,54
 485 324 485 324 458 324 c 0,55,56
 432 324 432 324 409 320 c 128,-1,57
 386 316 386 316 369 309 c 128,-1,58
 352 302 352 302 342.5 292.5 c 128,-1,59
 333 283 333 283 333 272 c 256,40,41
253 461 m 256,60,61
 253 478 253 478 268.5 493.5 c 128,-1,62
 284 509 284 509 312 520 c 128,-1,63
 340 531 340 531 377.5 537.5 c 128,-1,64
 415 544 415 544 458 544 c 0,65,66
 502 544 502 544 539.5 537.5 c 128,-1,67
 577 531 577 531 604.5 520 c 128,-1,68
 632 509 632 509 648 493.5 c 128,-1,69
 664 478 664 478 664 461 c 256,70,71
 664 444 664 444 648 429 c 128,-1,72
 632 414 632 414 604.5 402.5 c 128,-1,73
 577 391 577 391 539.5 384.5 c 128,-1,74
 502 378 502 378 458 378 c 0,75,76
 415 378 415 378 377.5 384.5 c 128,-1,77
 340 391 340 391 312 402.5 c 128,-1,78
 284 414 284 414 268.5 429 c 128,-1,79
 253 444 253 444 253 461 c 256,60,61
333 461 m 256,80,81
 333 450 333 450 342.5 440.5 c 128,-1,82
 352 431 352 431 369 424 c 128,-1,83
 386 417 386 417 409 413 c 128,-1,84
 432 409 432 409 458 409 c 0,85,86
 485 409 485 409 507.5 413 c 128,-1,87
 530 417 530 417 547 424 c 128,-1,88
 564 431 564 431 573.5 440.5 c 128,-1,89
 583 450 583 450 583 461 c 256,90,91
 583 472 583 472 573.5 481.5 c 128,-1,92
 564 491 564 491 547 498 c 128,-1,93
 530 505 530 505 507.5 509 c 128,-1,94
 485 513 485 513 458 513 c 0,95,96
 432 513 432 513 409 509 c 128,-1,97
 386 505 386 505 369 498 c 128,-1,98
 352 491 352 491 342.5 481.5 c 128,-1,99
 333 472 333 472 333 461 c 256,80,81
253 648 m 256,100,101
 253 665 253 665 268.5 680.5 c 128,-1,102
 284 696 284 696 312 707 c 128,-1,103
 340 718 340 718 377.5 724.5 c 128,-1,104
 415 731 415 731 458 731 c 0,105,106
 502 731 502 731 539.5 724.5 c 128,-1,107
 577 718 577 718 604.5 707 c 128,-1,108
 632 696 632 696 648 680.5 c 128,-1,109
 664 665 664 665 664 648 c 256,110,111
 664 631 664 631 648 616 c 128,-1,112
 632 601 632 601 604.5 589.5 c 128,-1,113
 577 578 577 578 539.5 571.5 c 128,-1,114
 502 565 502 565 458 565 c 0,115,116
 415 565 415 565 377.5 571.5 c 128,-1,117
 340 578 340 578 312 589.5 c 128,-1,118
 284 601 284 601 268.5 616 c 128,-1,119
 253 631 253 631 253 648 c 256,100,101
333 648 m 0,120,121
 333 637 333 637 342.5 627.5 c 128,-1,122
 352 618 352 618 369 611 c 128,-1,123
 386 604 386 604 409 600 c 128,-1,124
 432 596 432 596 458 596 c 0,125,126
 485 596 485 596 507.5 600 c 128,-1,127
 530 604 530 604 547 611 c 128,-1,128
 564 618 564 618 573.5 627.5 c 128,-1,129
 583 637 583 637 583 648 c 0,130,131
 583 658 583 658 573.5 668 c 128,-1,132
 564 678 564 678 547 685 c 128,-1,133
 530 692 530 692 507.5 696 c 128,-1,134
 485 700 485 700 458 700 c 0,135,136
 432 700 432 700 409 696 c 128,-1,137
 386 692 386 692 369 685 c 128,-1,138
 352 678 352 678 342.5 668 c 128,-1,139
 333 658 333 658 333 648 c 0,120,121
EndSplineSet
EndChar

StartChar: uni0082
Encoding: 130 130 99
Width: 917
Flags: W
LayerCount: 2
Fore
SplineSet
253 85 m 0,0,1
 253 103 253 103 268.5 118 c 128,-1,2
 284 133 284 133 312 144.5 c 128,-1,3
 340 156 340 156 377.5 162.5 c 128,-1,4
 415 169 415 169 458 169 c 0,5,6
 502 169 502 169 539.5 162.5 c 128,-1,7
 577 156 577 156 604.5 144.5 c 128,-1,8
 632 133 632 133 648 118 c 128,-1,9
 664 103 664 103 664 85 c 0,10,11
 664 68 664 68 648 53 c 128,-1,12
 632 38 632 38 604.5 27 c 128,-1,13
 577 16 577 16 539.5 9.5 c 128,-1,14
 502 3 502 3 458 3 c 0,15,16
 415 3 415 3 377.5 9.5 c 128,-1,17
 340 16 340 16 312 27 c 128,-1,18
 284 38 284 38 268.5 53 c 128,-1,19
 253 68 253 68 253 85 c 0,0,1
333 85 m 256,20,21
 333 74 333 74 342.5 64.5 c 128,-1,22
 352 55 352 55 369 48.5 c 128,-1,23
 386 42 386 42 409 38 c 128,-1,24
 432 34 432 34 458 34 c 0,25,26
 485 34 485 34 507.5 38 c 128,-1,27
 530 42 530 42 547 48.5 c 128,-1,28
 564 55 564 55 573.5 64.5 c 128,-1,29
 583 74 583 74 583 85 c 256,30,31
 583 96 583 96 573.5 105.5 c 128,-1,32
 564 115 564 115 547 122 c 128,-1,33
 530 129 530 129 507.5 133 c 128,-1,34
 485 137 485 137 458 137 c 0,35,36
 432 137 432 137 409 133 c 128,-1,37
 386 129 386 129 369 122 c 128,-1,38
 352 115 352 115 342.5 105.5 c 128,-1,39
 333 96 333 96 333 85 c 256,20,21
253 272 m 0,40,41
 253 290 253 290 268.5 305 c 128,-1,42
 284 320 284 320 312 331.5 c 128,-1,43
 340 343 340 343 377.5 349 c 128,-1,44
 415 355 415 355 458 355 c 0,45,46
 502 355 502 355 539.5 349 c 128,-1,47
 577 343 577 343 604.5 331.5 c 128,-1,48
 632 320 632 320 648 305 c 128,-1,49
 664 290 664 290 664 272 c 0,50,51
 664 255 664 255 648 240 c 128,-1,52
 632 225 632 225 604.5 214 c 128,-1,53
 577 203 577 203 539.5 196 c 128,-1,54
 502 189 502 189 458 189 c 0,55,56
 415 189 415 189 377.5 196 c 128,-1,57
 340 203 340 203 312 214 c 128,-1,58
 284 225 284 225 268.5 240 c 128,-1,59
 253 255 253 255 253 272 c 0,40,41
253 461 m 256,60,61
 253 478 253 478 268.5 493.5 c 128,-1,62
 284 509 284 509 312 520 c 128,-1,63
 340 531 340 531 377.5 537.5 c 128,-1,64
 415 544 415 544 458 544 c 0,65,66
 502 544 502 544 539.5 537.5 c 128,-1,67
 577 531 577 531 604.5 520 c 128,-1,68
 632 509 632 509 648 493.5 c 128,-1,69
 664 478 664 478 664 461 c 256,70,71
 664 444 664 444 648 429 c 128,-1,72
 632 414 632 414 604.5 402.5 c 128,-1,73
 577 391 577 391 539.5 384.5 c 128,-1,74
 502 378 502 378 458 378 c 0,75,76
 415 378 415 378 377.5 384.5 c 128,-1,77
 340 391 340 391 312 402.5 c 128,-1,78
 284 414 284 414 268.5 429 c 128,-1,79
 253 444 253 444 253 461 c 256,60,61
333 461 m 256,80,81
 333 450 333 450 342.5 440.5 c 128,-1,82
 352 431 352 431 369 424 c 128,-1,83
 386 417 386 417 409 413 c 128,-1,84
 432 409 432 409 458 409 c 0,85,86
 485 409 485 409 507.5 413 c 128,-1,87
 530 417 530 417 547 424 c 128,-1,88
 564 431 564 431 573.5 440.5 c 128,-1,89
 583 450 583 450 583 461 c 256,90,91
 583 472 583 472 573.5 481.5 c 128,-1,92
 564 491 564 491 547 498 c 128,-1,93
 530 505 530 505 507.5 509 c 128,-1,94
 485 513 485 513 458 513 c 0,95,96
 432 513 432 513 409 509 c 128,-1,97
 386 505 386 505 369 498 c 128,-1,98
 352 491 352 491 342.5 481.5 c 128,-1,99
 333 472 333 472 333 461 c 256,80,81
253 648 m 256,100,101
 253 665 253 665 268.5 680.5 c 128,-1,102
 284 696 284 696 312 707 c 128,-1,103
 340 718 340 718 377.5 724.5 c 128,-1,104
 415 731 415 731 458 731 c 0,105,106
 502 731 502 731 539.5 724.5 c 128,-1,107
 577 718 577 718 604.5 707 c 128,-1,108
 632 696 632 696 648 680.5 c 128,-1,109
 664 665 664 665 664 648 c 256,110,111
 664 631 664 631 648 616 c 128,-1,112
 632 601 632 601 604.5 589.5 c 128,-1,113
 577 578 577 578 539.5 571.5 c 128,-1,114
 502 565 502 565 458 565 c 0,115,116
 415 565 415 565 377.5 571.5 c 128,-1,117
 340 578 340 578 312 589.5 c 128,-1,118
 284 601 284 601 268.5 616 c 128,-1,119
 253 631 253 631 253 648 c 256,100,101
333 648 m 0,120,121
 333 637 333 637 342.5 627.5 c 128,-1,122
 352 618 352 618 369 611 c 128,-1,123
 386 604 386 604 409 600 c 128,-1,124
 432 596 432 596 458 596 c 0,125,126
 485 596 485 596 507.5 600 c 128,-1,127
 530 604 530 604 547 611 c 128,-1,128
 564 618 564 618 573.5 627.5 c 128,-1,129
 583 637 583 637 583 648 c 0,130,131
 583 658 583 658 573.5 668 c 128,-1,132
 564 678 564 678 547 685 c 128,-1,133
 530 692 530 692 507.5 696 c 128,-1,134
 485 700 485 700 458 700 c 0,135,136
 432 700 432 700 409 696 c 128,-1,137
 386 692 386 692 369 685 c 128,-1,138
 352 678 352 678 342.5 668 c 128,-1,139
 333 658 333 658 333 648 c 0,120,121
EndSplineSet
EndChar

StartChar: uni0083
Encoding: 131 131 100
Width: 917
Flags: W
LayerCount: 2
Fore
SplineSet
253 85 m 0,0,1
 253 103 253 103 268.5 118 c 128,-1,2
 284 133 284 133 312 144.5 c 128,-1,3
 340 156 340 156 377.5 162.5 c 128,-1,4
 415 169 415 169 458 169 c 0,5,6
 502 169 502 169 539.5 162.5 c 128,-1,7
 577 156 577 156 604.5 144.5 c 128,-1,8
 632 133 632 133 648 118 c 128,-1,9
 664 103 664 103 664 85 c 0,10,11
 664 68 664 68 648 53 c 128,-1,12
 632 38 632 38 604.5 27 c 128,-1,13
 577 16 577 16 539.5 9.5 c 128,-1,14
 502 3 502 3 458 3 c 0,15,16
 415 3 415 3 377.5 9.5 c 128,-1,17
 340 16 340 16 312 27 c 128,-1,18
 284 38 284 38 268.5 53 c 128,-1,19
 253 68 253 68 253 85 c 0,0,1
253 272 m 0,20,21
 253 290 253 290 268.5 305 c 128,-1,22
 284 320 284 320 312 331.5 c 128,-1,23
 340 343 340 343 377.5 349 c 128,-1,24
 415 355 415 355 458 355 c 0,25,26
 502 355 502 355 539.5 349 c 128,-1,27
 577 343 577 343 604.5 331.5 c 128,-1,28
 632 320 632 320 648 305 c 128,-1,29
 664 290 664 290 664 272 c 0,30,31
 664 255 664 255 648 240 c 128,-1,32
 632 225 632 225 604.5 214 c 128,-1,33
 577 203 577 203 539.5 196 c 128,-1,34
 502 189 502 189 458 189 c 0,35,36
 415 189 415 189 377.5 196 c 128,-1,37
 340 203 340 203 312 214 c 128,-1,38
 284 225 284 225 268.5 240 c 128,-1,39
 253 255 253 255 253 272 c 0,20,21
253 461 m 256,40,41
 253 478 253 478 268.5 493.5 c 128,-1,42
 284 509 284 509 312 520 c 128,-1,43
 340 531 340 531 377.5 537.5 c 128,-1,44
 415 544 415 544 458 544 c 0,45,46
 502 544 502 544 539.5 537.5 c 128,-1,47
 577 531 577 531 604.5 520 c 128,-1,48
 632 509 632 509 648 493.5 c 128,-1,49
 664 478 664 478 664 461 c 256,50,51
 664 444 664 444 648 429 c 128,-1,52
 632 414 632 414 604.5 402.5 c 128,-1,53
 577 391 577 391 539.5 384.5 c 128,-1,54
 502 378 502 378 458 378 c 0,55,56
 415 378 415 378 377.5 384.5 c 128,-1,57
 340 391 340 391 312 402.5 c 128,-1,58
 284 414 284 414 268.5 429 c 128,-1,59
 253 444 253 444 253 461 c 256,40,41
333 461 m 256,60,61
 333 450 333 450 342.5 440.5 c 128,-1,62
 352 431 352 431 369 424 c 128,-1,63
 386 417 386 417 409 413 c 128,-1,64
 432 409 432 409 458 409 c 0,65,66
 485 409 485 409 507.5 413 c 128,-1,67
 530 417 530 417 547 424 c 128,-1,68
 564 431 564 431 573.5 440.5 c 128,-1,69
 583 450 583 450 583 461 c 256,70,71
 583 472 583 472 573.5 481.5 c 128,-1,72
 564 491 564 491 547 498 c 128,-1,73
 530 505 530 505 507.5 509 c 128,-1,74
 485 513 485 513 458 513 c 0,75,76
 432 513 432 513 409 509 c 128,-1,77
 386 505 386 505 369 498 c 128,-1,78
 352 491 352 491 342.5 481.5 c 128,-1,79
 333 472 333 472 333 461 c 256,60,61
253 648 m 256,80,81
 253 665 253 665 268.5 680.5 c 128,-1,82
 284 696 284 696 312 707 c 128,-1,83
 340 718 340 718 377.5 724.5 c 128,-1,84
 415 731 415 731 458 731 c 0,85,86
 502 731 502 731 539.5 724.5 c 128,-1,87
 577 718 577 718 604.5 707 c 128,-1,88
 632 696 632 696 648 680.5 c 128,-1,89
 664 665 664 665 664 648 c 256,90,91
 664 631 664 631 648 616 c 128,-1,92
 632 601 632 601 604.5 589.5 c 128,-1,93
 577 578 577 578 539.5 571.5 c 128,-1,94
 502 565 502 565 458 565 c 0,95,96
 415 565 415 565 377.5 571.5 c 128,-1,97
 340 578 340 578 312 589.5 c 128,-1,98
 284 601 284 601 268.5 616 c 128,-1,99
 253 631 253 631 253 648 c 256,80,81
333 648 m 0,100,101
 333 637 333 637 342.5 627.5 c 128,-1,102
 352 618 352 618 369 611 c 128,-1,103
 386 604 386 604 409 600 c 128,-1,104
 432 596 432 596 458 596 c 0,105,106
 485 596 485 596 507.5 600 c 128,-1,107
 530 604 530 604 547 611 c 128,-1,108
 564 618 564 618 573.5 627.5 c 128,-1,109
 583 637 583 637 583 648 c 0,110,111
 583 658 583 658 573.5 668 c 128,-1,112
 564 678 564 678 547 685 c 128,-1,113
 530 692 530 692 507.5 696 c 128,-1,114
 485 700 485 700 458 700 c 0,115,116
 432 700 432 700 409 696 c 128,-1,117
 386 692 386 692 369 685 c 128,-1,118
 352 678 352 678 342.5 668 c 128,-1,119
 333 658 333 658 333 648 c 0,100,101
EndSplineSet
EndChar

StartChar: uni0084
Encoding: 132 132 101
Width: 917
Flags: W
LayerCount: 2
Fore
SplineSet
253 85 m 0,0,1
 253 103 253 103 268.5 118 c 128,-1,2
 284 133 284 133 312 144.5 c 128,-1,3
 340 156 340 156 377.5 162.5 c 128,-1,4
 415 169 415 169 458 169 c 0,5,6
 502 169 502 169 539.5 162.5 c 128,-1,7
 577 156 577 156 604.5 144.5 c 128,-1,8
 632 133 632 133 648 118 c 128,-1,9
 664 103 664 103 664 85 c 0,10,11
 664 68 664 68 648 53 c 128,-1,12
 632 38 632 38 604.5 27 c 128,-1,13
 577 16 577 16 539.5 9.5 c 128,-1,14
 502 3 502 3 458 3 c 0,15,16
 415 3 415 3 377.5 9.5 c 128,-1,17
 340 16 340 16 312 27 c 128,-1,18
 284 38 284 38 268.5 53 c 128,-1,19
 253 68 253 68 253 85 c 0,0,1
333 85 m 256,20,21
 333 74 333 74 342.5 64.5 c 128,-1,22
 352 55 352 55 369 48.5 c 128,-1,23
 386 42 386 42 409 38 c 128,-1,24
 432 34 432 34 458 34 c 0,25,26
 485 34 485 34 507.5 38 c 128,-1,27
 530 42 530 42 547 48.5 c 128,-1,28
 564 55 564 55 573.5 64.5 c 128,-1,29
 583 74 583 74 583 85 c 256,30,31
 583 96 583 96 573.5 105.5 c 128,-1,32
 564 115 564 115 547 122 c 128,-1,33
 530 129 530 129 507.5 133 c 128,-1,34
 485 137 485 137 458 137 c 0,35,36
 432 137 432 137 409 133 c 128,-1,37
 386 129 386 129 369 122 c 128,-1,38
 352 115 352 115 342.5 105.5 c 128,-1,39
 333 96 333 96 333 85 c 256,20,21
253 272 m 0,40,41
 253 290 253 290 268.5 305 c 128,-1,42
 284 320 284 320 312 331.5 c 128,-1,43
 340 343 340 343 377.5 349 c 128,-1,44
 415 355 415 355 458 355 c 0,45,46
 502 355 502 355 539.5 349 c 128,-1,47
 577 343 577 343 604.5 331.5 c 128,-1,48
 632 320 632 320 648 305 c 128,-1,49
 664 290 664 290 664 272 c 0,50,51
 664 255 664 255 648 240 c 128,-1,52
 632 225 632 225 604.5 214 c 128,-1,53
 577 203 577 203 539.5 196 c 128,-1,54
 502 189 502 189 458 189 c 0,55,56
 415 189 415 189 377.5 196 c 128,-1,57
 340 203 340 203 312 214 c 128,-1,58
 284 225 284 225 268.5 240 c 128,-1,59
 253 255 253 255 253 272 c 0,40,41
333 272 m 256,60,61
 333 261 333 261 342.5 251.5 c 128,-1,62
 352 242 352 242 369 235 c 128,-1,63
 386 228 386 228 409 224 c 128,-1,64
 432 220 432 220 458 220 c 0,65,66
 485 220 485 220 507.5 224 c 128,-1,67
 530 228 530 228 547 235 c 128,-1,68
 564 242 564 242 573.5 251.5 c 128,-1,69
 583 261 583 261 583 272 c 256,70,71
 583 283 583 283 573.5 292.5 c 128,-1,72
 564 302 564 302 547 309 c 128,-1,73
 530 316 530 316 507.5 320 c 128,-1,74
 485 324 485 324 458 324 c 0,75,76
 432 324 432 324 409 320 c 128,-1,77
 386 316 386 316 369 309 c 128,-1,78
 352 302 352 302 342.5 292.5 c 128,-1,79
 333 283 333 283 333 272 c 256,60,61
253 461 m 256,80,81
 253 478 253 478 268.5 493.5 c 128,-1,82
 284 509 284 509 312 520 c 128,-1,83
 340 531 340 531 377.5 537.5 c 128,-1,84
 415 544 415 544 458 544 c 0,85,86
 502 544 502 544 539.5 537.5 c 128,-1,87
 577 531 577 531 604.5 520 c 128,-1,88
 632 509 632 509 648 493.5 c 128,-1,89
 664 478 664 478 664 461 c 256,90,91
 664 444 664 444 648 429 c 128,-1,92
 632 414 632 414 604.5 402.5 c 128,-1,93
 577 391 577 391 539.5 384.5 c 128,-1,94
 502 378 502 378 458 378 c 0,95,96
 415 378 415 378 377.5 384.5 c 128,-1,97
 340 391 340 391 312 402.5 c 128,-1,98
 284 414 284 414 268.5 429 c 128,-1,99
 253 444 253 444 253 461 c 256,80,81
253 648 m 256,100,101
 253 665 253 665 268.5 680.5 c 128,-1,102
 284 696 284 696 312 707 c 128,-1,103
 340 718 340 718 377.5 724.5 c 128,-1,104
 415 731 415 731 458 731 c 0,105,106
 502 731 502 731 539.5 724.5 c 128,-1,107
 577 718 577 718 604.5 707 c 128,-1,108
 632 696 632 696 648 680.5 c 128,-1,109
 664 665 664 665 664 648 c 256,110,111
 664 631 664 631 648 616 c 128,-1,112
 632 601 632 601 604.5 589.5 c 128,-1,113
 577 578 577 578 539.5 571.5 c 128,-1,114
 502 565 502 565 458 565 c 0,115,116
 415 565 415 565 377.5 571.5 c 128,-1,117
 340 578 340 578 312 589.5 c 128,-1,118
 284 601 284 601 268.5 616 c 128,-1,119
 253 631 253 631 253 648 c 256,100,101
333 648 m 0,120,121
 333 637 333 637 342.5 627.5 c 128,-1,122
 352 618 352 618 369 611 c 128,-1,123
 386 604 386 604 409 600 c 128,-1,124
 432 596 432 596 458 596 c 0,125,126
 485 596 485 596 507.5 600 c 128,-1,127
 530 604 530 604 547 611 c 128,-1,128
 564 618 564 618 573.5 627.5 c 128,-1,129
 583 637 583 637 583 648 c 0,130,131
 583 658 583 658 573.5 668 c 128,-1,132
 564 678 564 678 547 685 c 128,-1,133
 530 692 530 692 507.5 696 c 128,-1,134
 485 700 485 700 458 700 c 0,135,136
 432 700 432 700 409 696 c 128,-1,137
 386 692 386 692 369 685 c 128,-1,138
 352 678 352 678 342.5 668 c 128,-1,139
 333 658 333 658 333 648 c 0,120,121
EndSplineSet
EndChar

StartChar: uni0085
Encoding: 133 133 102
Width: 917
Flags: W
LayerCount: 2
Fore
SplineSet
253 85 m 0,0,1
 253 103 253 103 268.5 118 c 128,-1,2
 284 133 284 133 312 144.5 c 128,-1,3
 340 156 340 156 377.5 162.5 c 128,-1,4
 415 169 415 169 458 169 c 0,5,6
 502 169 502 169 539.5 162.5 c 128,-1,7
 577 156 577 156 604.5 144.5 c 128,-1,8
 632 133 632 133 648 118 c 128,-1,9
 664 103 664 103 664 85 c 0,10,11
 664 68 664 68 648 53 c 128,-1,12
 632 38 632 38 604.5 27 c 128,-1,13
 577 16 577 16 539.5 9.5 c 128,-1,14
 502 3 502 3 458 3 c 0,15,16
 415 3 415 3 377.5 9.5 c 128,-1,17
 340 16 340 16 312 27 c 128,-1,18
 284 38 284 38 268.5 53 c 128,-1,19
 253 68 253 68 253 85 c 0,0,1
253 272 m 0,20,21
 253 290 253 290 268.5 305 c 128,-1,22
 284 320 284 320 312 331.5 c 128,-1,23
 340 343 340 343 377.5 349 c 128,-1,24
 415 355 415 355 458 355 c 0,25,26
 502 355 502 355 539.5 349 c 128,-1,27
 577 343 577 343 604.5 331.5 c 128,-1,28
 632 320 632 320 648 305 c 128,-1,29
 664 290 664 290 664 272 c 0,30,31
 664 255 664 255 648 240 c 128,-1,32
 632 225 632 225 604.5 214 c 128,-1,33
 577 203 577 203 539.5 196 c 128,-1,34
 502 189 502 189 458 189 c 0,35,36
 415 189 415 189 377.5 196 c 128,-1,37
 340 203 340 203 312 214 c 128,-1,38
 284 225 284 225 268.5 240 c 128,-1,39
 253 255 253 255 253 272 c 0,20,21
333 272 m 256,40,41
 333 261 333 261 342.5 251.5 c 128,-1,42
 352 242 352 242 369 235 c 128,-1,43
 386 228 386 228 409 224 c 128,-1,44
 432 220 432 220 458 220 c 0,45,46
 485 220 485 220 507.5 224 c 128,-1,47
 530 228 530 228 547 235 c 128,-1,48
 564 242 564 242 573.5 251.5 c 128,-1,49
 583 261 583 261 583 272 c 256,50,51
 583 283 583 283 573.5 292.5 c 128,-1,52
 564 302 564 302 547 309 c 128,-1,53
 530 316 530 316 507.5 320 c 128,-1,54
 485 324 485 324 458 324 c 0,55,56
 432 324 432 324 409 320 c 128,-1,57
 386 316 386 316 369 309 c 128,-1,58
 352 302 352 302 342.5 292.5 c 128,-1,59
 333 283 333 283 333 272 c 256,40,41
253 461 m 256,60,61
 253 478 253 478 268.5 493.5 c 128,-1,62
 284 509 284 509 312 520 c 128,-1,63
 340 531 340 531 377.5 537.5 c 128,-1,64
 415 544 415 544 458 544 c 0,65,66
 502 544 502 544 539.5 537.5 c 128,-1,67
 577 531 577 531 604.5 520 c 128,-1,68
 632 509 632 509 648 493.5 c 128,-1,69
 664 478 664 478 664 461 c 256,70,71
 664 444 664 444 648 429 c 128,-1,72
 632 414 632 414 604.5 402.5 c 128,-1,73
 577 391 577 391 539.5 384.5 c 128,-1,74
 502 378 502 378 458 378 c 0,75,76
 415 378 415 378 377.5 384.5 c 128,-1,77
 340 391 340 391 312 402.5 c 128,-1,78
 284 414 284 414 268.5 429 c 128,-1,79
 253 444 253 444 253 461 c 256,60,61
253 648 m 256,80,81
 253 665 253 665 268.5 680.5 c 128,-1,82
 284 696 284 696 312 707 c 128,-1,83
 340 718 340 718 377.5 724.5 c 128,-1,84
 415 731 415 731 458 731 c 0,85,86
 502 731 502 731 539.5 724.5 c 128,-1,87
 577 718 577 718 604.5 707 c 128,-1,88
 632 696 632 696 648 680.5 c 128,-1,89
 664 665 664 665 664 648 c 256,90,91
 664 631 664 631 648 616 c 128,-1,92
 632 601 632 601 604.5 589.5 c 128,-1,93
 577 578 577 578 539.5 571.5 c 128,-1,94
 502 565 502 565 458 565 c 0,95,96
 415 565 415 565 377.5 571.5 c 128,-1,97
 340 578 340 578 312 589.5 c 128,-1,98
 284 601 284 601 268.5 616 c 128,-1,99
 253 631 253 631 253 648 c 256,80,81
333 648 m 0,100,101
 333 637 333 637 342.5 627.5 c 128,-1,102
 352 618 352 618 369 611 c 128,-1,103
 386 604 386 604 409 600 c 128,-1,104
 432 596 432 596 458 596 c 0,105,106
 485 596 485 596 507.5 600 c 128,-1,107
 530 604 530 604 547 611 c 128,-1,108
 564 618 564 618 573.5 627.5 c 128,-1,109
 583 637 583 637 583 648 c 0,110,111
 583 658 583 658 573.5 668 c 128,-1,112
 564 678 564 678 547 685 c 128,-1,113
 530 692 530 692 507.5 696 c 128,-1,114
 485 700 485 700 458 700 c 0,115,116
 432 700 432 700 409 696 c 128,-1,117
 386 692 386 692 369 685 c 128,-1,118
 352 678 352 678 342.5 668 c 128,-1,119
 333 658 333 658 333 648 c 0,100,101
EndSplineSet
EndChar

StartChar: uni0086
Encoding: 134 134 103
Width: 917
Flags: W
LayerCount: 2
Fore
SplineSet
253 85 m 0,0,1
 253 103 253 103 268.5 118 c 128,-1,2
 284 133 284 133 312 144.5 c 128,-1,3
 340 156 340 156 377.5 162.5 c 128,-1,4
 415 169 415 169 458 169 c 0,5,6
 502 169 502 169 539.5 162.5 c 128,-1,7
 577 156 577 156 604.5 144.5 c 128,-1,8
 632 133 632 133 648 118 c 128,-1,9
 664 103 664 103 664 85 c 0,10,11
 664 68 664 68 648 53 c 128,-1,12
 632 38 632 38 604.5 27 c 128,-1,13
 577 16 577 16 539.5 9.5 c 128,-1,14
 502 3 502 3 458 3 c 0,15,16
 415 3 415 3 377.5 9.5 c 128,-1,17
 340 16 340 16 312 27 c 128,-1,18
 284 38 284 38 268.5 53 c 128,-1,19
 253 68 253 68 253 85 c 0,0,1
333 85 m 256,20,21
 333 74 333 74 342.5 64.5 c 128,-1,22
 352 55 352 55 369 48.5 c 128,-1,23
 386 42 386 42 409 38 c 128,-1,24
 432 34 432 34 458 34 c 0,25,26
 485 34 485 34 507.5 38 c 128,-1,27
 530 42 530 42 547 48.5 c 128,-1,28
 564 55 564 55 573.5 64.5 c 128,-1,29
 583 74 583 74 583 85 c 256,30,31
 583 96 583 96 573.5 105.5 c 128,-1,32
 564 115 564 115 547 122 c 128,-1,33
 530 129 530 129 507.5 133 c 128,-1,34
 485 137 485 137 458 137 c 0,35,36
 432 137 432 137 409 133 c 128,-1,37
 386 129 386 129 369 122 c 128,-1,38
 352 115 352 115 342.5 105.5 c 128,-1,39
 333 96 333 96 333 85 c 256,20,21
253 272 m 0,40,41
 253 290 253 290 268.5 305 c 128,-1,42
 284 320 284 320 312 331.5 c 128,-1,43
 340 343 340 343 377.5 349 c 128,-1,44
 415 355 415 355 458 355 c 0,45,46
 502 355 502 355 539.5 349 c 128,-1,47
 577 343 577 343 604.5 331.5 c 128,-1,48
 632 320 632 320 648 305 c 128,-1,49
 664 290 664 290 664 272 c 0,50,51
 664 255 664 255 648 240 c 128,-1,52
 632 225 632 225 604.5 214 c 128,-1,53
 577 203 577 203 539.5 196 c 128,-1,54
 502 189 502 189 458 189 c 0,55,56
 415 189 415 189 377.5 196 c 128,-1,57
 340 203 340 203 312 214 c 128,-1,58
 284 225 284 225 268.5 240 c 128,-1,59
 253 255 253 255 253 272 c 0,40,41
253 461 m 256,60,61
 253 478 253 478 268.5 493.5 c 128,-1,62
 284 509 284 509 312 520 c 128,-1,63
 340 531 340 531 377.5 537.5 c 128,-1,64
 415 544 415 544 458 544 c 0,65,66
 502 544 502 544 539.5 537.5 c 128,-1,67
 577 531 577 531 604.5 520 c 128,-1,68
 632 509 632 509 648 493.5 c 128,-1,69
 664 478 664 478 664 461 c 256,70,71
 664 444 664 444 648 429 c 128,-1,72
 632 414 632 414 604.5 402.5 c 128,-1,73
 577 391 577 391 539.5 384.5 c 128,-1,74
 502 378 502 378 458 378 c 0,75,76
 415 378 415 378 377.5 384.5 c 128,-1,77
 340 391 340 391 312 402.5 c 128,-1,78
 284 414 284 414 268.5 429 c 128,-1,79
 253 444 253 444 253 461 c 256,60,61
253 648 m 256,80,81
 253 665 253 665 268.5 680.5 c 128,-1,82
 284 696 284 696 312 707 c 128,-1,83
 340 718 340 718 377.5 724.5 c 128,-1,84
 415 731 415 731 458 731 c 0,85,86
 502 731 502 731 539.5 724.5 c 128,-1,87
 577 718 577 718 604.5 707 c 128,-1,88
 632 696 632 696 648 680.5 c 128,-1,89
 664 665 664 665 664 648 c 256,90,91
 664 631 664 631 648 616 c 128,-1,92
 632 601 632 601 604.5 589.5 c 128,-1,93
 577 578 577 578 539.5 571.5 c 128,-1,94
 502 565 502 565 458 565 c 0,95,96
 415 565 415 565 377.5 571.5 c 128,-1,97
 340 578 340 578 312 589.5 c 128,-1,98
 284 601 284 601 268.5 616 c 128,-1,99
 253 631 253 631 253 648 c 256,80,81
333 648 m 0,100,101
 333 637 333 637 342.5 627.5 c 128,-1,102
 352 618 352 618 369 611 c 128,-1,103
 386 604 386 604 409 600 c 128,-1,104
 432 596 432 596 458 596 c 0,105,106
 485 596 485 596 507.5 600 c 128,-1,107
 530 604 530 604 547 611 c 128,-1,108
 564 618 564 618 573.5 627.5 c 128,-1,109
 583 637 583 637 583 648 c 0,110,111
 583 658 583 658 573.5 668 c 128,-1,112
 564 678 564 678 547 685 c 128,-1,113
 530 692 530 692 507.5 696 c 128,-1,114
 485 700 485 700 458 700 c 0,115,116
 432 700 432 700 409 696 c 128,-1,117
 386 692 386 692 369 685 c 128,-1,118
 352 678 352 678 342.5 668 c 128,-1,119
 333 658 333 658 333 648 c 0,100,101
EndSplineSet
EndChar

StartChar: uni0087
Encoding: 135 135 104
Width: 917
Flags: W
LayerCount: 2
Fore
SplineSet
253 85 m 0,0,1
 253 103 253 103 268.5 118 c 128,-1,2
 284 133 284 133 312 144.5 c 128,-1,3
 340 156 340 156 377.5 162.5 c 128,-1,4
 415 169 415 169 458 169 c 0,5,6
 502 169 502 169 539.5 162.5 c 128,-1,7
 577 156 577 156 604.5 144.5 c 128,-1,8
 632 133 632 133 648 118 c 128,-1,9
 664 103 664 103 664 85 c 0,10,11
 664 68 664 68 648 53 c 128,-1,12
 632 38 632 38 604.5 27 c 128,-1,13
 577 16 577 16 539.5 9.5 c 128,-1,14
 502 3 502 3 458 3 c 0,15,16
 415 3 415 3 377.5 9.5 c 128,-1,17
 340 16 340 16 312 27 c 128,-1,18
 284 38 284 38 268.5 53 c 128,-1,19
 253 68 253 68 253 85 c 0,0,1
253 272 m 0,20,21
 253 290 253 290 268.5 305 c 128,-1,22
 284 320 284 320 312 331.5 c 128,-1,23
 340 343 340 343 377.5 349 c 128,-1,24
 415 355 415 355 458 355 c 0,25,26
 502 355 502 355 539.5 349 c 128,-1,27
 577 343 577 343 604.5 331.5 c 128,-1,28
 632 320 632 320 648 305 c 128,-1,29
 664 290 664 290 664 272 c 0,30,31
 664 255 664 255 648 240 c 128,-1,32
 632 225 632 225 604.5 214 c 128,-1,33
 577 203 577 203 539.5 196 c 128,-1,34
 502 189 502 189 458 189 c 0,35,36
 415 189 415 189 377.5 196 c 128,-1,37
 340 203 340 203 312 214 c 128,-1,38
 284 225 284 225 268.5 240 c 128,-1,39
 253 255 253 255 253 272 c 0,20,21
253 461 m 256,40,41
 253 478 253 478 268.5 493.5 c 128,-1,42
 284 509 284 509 312 520 c 128,-1,43
 340 531 340 531 377.5 537.5 c 128,-1,44
 415 544 415 544 458 544 c 0,45,46
 502 544 502 544 539.5 537.5 c 128,-1,47
 577 531 577 531 604.5 520 c 128,-1,48
 632 509 632 509 648 493.5 c 128,-1,49
 664 478 664 478 664 461 c 256,50,51
 664 444 664 444 648 429 c 128,-1,52
 632 414 632 414 604.5 402.5 c 128,-1,53
 577 391 577 391 539.5 384.5 c 128,-1,54
 502 378 502 378 458 378 c 0,55,56
 415 378 415 378 377.5 384.5 c 128,-1,57
 340 391 340 391 312 402.5 c 128,-1,58
 284 414 284 414 268.5 429 c 128,-1,59
 253 444 253 444 253 461 c 256,40,41
253 648 m 256,60,61
 253 665 253 665 268.5 680.5 c 128,-1,62
 284 696 284 696 312 707 c 128,-1,63
 340 718 340 718 377.5 724.5 c 128,-1,64
 415 731 415 731 458 731 c 0,65,66
 502 731 502 731 539.5 724.5 c 128,-1,67
 577 718 577 718 604.5 707 c 128,-1,68
 632 696 632 696 648 680.5 c 128,-1,69
 664 665 664 665 664 648 c 256,70,71
 664 631 664 631 648 616 c 128,-1,72
 632 601 632 601 604.5 589.5 c 128,-1,73
 577 578 577 578 539.5 571.5 c 128,-1,74
 502 565 502 565 458 565 c 0,75,76
 415 565 415 565 377.5 571.5 c 128,-1,77
 340 578 340 578 312 589.5 c 128,-1,78
 284 601 284 601 268.5 616 c 128,-1,79
 253 631 253 631 253 648 c 256,60,61
333 648 m 0,80,81
 333 637 333 637 342.5 627.5 c 128,-1,82
 352 618 352 618 369 611 c 128,-1,83
 386 604 386 604 409 600 c 128,-1,84
 432 596 432 596 458 596 c 0,85,86
 485 596 485 596 507.5 600 c 128,-1,87
 530 604 530 604 547 611 c 128,-1,88
 564 618 564 618 573.5 627.5 c 128,-1,89
 583 637 583 637 583 648 c 0,90,91
 583 658 583 658 573.5 668 c 128,-1,92
 564 678 564 678 547 685 c 128,-1,93
 530 692 530 692 507.5 696 c 128,-1,94
 485 700 485 700 458 700 c 0,95,96
 432 700 432 700 409 696 c 128,-1,97
 386 692 386 692 369 685 c 128,-1,98
 352 678 352 678 342.5 668 c 128,-1,99
 333 658 333 658 333 648 c 0,80,81
EndSplineSet
EndChar

StartChar: uni0088
Encoding: 136 136 105
Width: 917
Flags: W
LayerCount: 2
Fore
SplineSet
253 85 m 0,0,1
 253 103 253 103 268.5 118 c 128,-1,2
 284 133 284 133 312 144.5 c 128,-1,3
 340 156 340 156 377.5 162.5 c 128,-1,4
 415 169 415 169 458 169 c 0,5,6
 502 169 502 169 539.5 162.5 c 128,-1,7
 577 156 577 156 604.5 144.5 c 128,-1,8
 632 133 632 133 648 118 c 128,-1,9
 664 103 664 103 664 85 c 0,10,11
 664 68 664 68 648 53 c 128,-1,12
 632 38 632 38 604.5 27 c 128,-1,13
 577 16 577 16 539.5 9.5 c 128,-1,14
 502 3 502 3 458 3 c 0,15,16
 415 3 415 3 377.5 9.5 c 128,-1,17
 340 16 340 16 312 27 c 128,-1,18
 284 38 284 38 268.5 53 c 128,-1,19
 253 68 253 68 253 85 c 0,0,1
333 85 m 256,20,21
 333 74 333 74 342.5 64.5 c 128,-1,22
 352 55 352 55 369 48.5 c 128,-1,23
 386 42 386 42 409 38 c 128,-1,24
 432 34 432 34 458 34 c 0,25,26
 485 34 485 34 507.5 38 c 128,-1,27
 530 42 530 42 547 48.5 c 128,-1,28
 564 55 564 55 573.5 64.5 c 128,-1,29
 583 74 583 74 583 85 c 256,30,31
 583 96 583 96 573.5 105.5 c 128,-1,32
 564 115 564 115 547 122 c 128,-1,33
 530 129 530 129 507.5 133 c 128,-1,34
 485 137 485 137 458 137 c 0,35,36
 432 137 432 137 409 133 c 128,-1,37
 386 129 386 129 369 122 c 128,-1,38
 352 115 352 115 342.5 105.5 c 128,-1,39
 333 96 333 96 333 85 c 256,20,21
253 272 m 0,40,41
 253 290 253 290 268.5 305 c 128,-1,42
 284 320 284 320 312 331.5 c 128,-1,43
 340 343 340 343 377.5 349 c 128,-1,44
 415 355 415 355 458 355 c 0,45,46
 502 355 502 355 539.5 349 c 128,-1,47
 577 343 577 343 604.5 331.5 c 128,-1,48
 632 320 632 320 648 305 c 128,-1,49
 664 290 664 290 664 272 c 0,50,51
 664 255 664 255 648 240 c 128,-1,52
 632 225 632 225 604.5 214 c 128,-1,53
 577 203 577 203 539.5 196 c 128,-1,54
 502 189 502 189 458 189 c 0,55,56
 415 189 415 189 377.5 196 c 128,-1,57
 340 203 340 203 312 214 c 128,-1,58
 284 225 284 225 268.5 240 c 128,-1,59
 253 255 253 255 253 272 c 0,40,41
333 272 m 256,60,61
 333 261 333 261 342.5 251.5 c 128,-1,62
 352 242 352 242 369 235 c 128,-1,63
 386 228 386 228 409 224 c 128,-1,64
 432 220 432 220 458 220 c 0,65,66
 485 220 485 220 507.5 224 c 128,-1,67
 530 228 530 228 547 235 c 128,-1,68
 564 242 564 242 573.5 251.5 c 128,-1,69
 583 261 583 261 583 272 c 256,70,71
 583 283 583 283 573.5 292.5 c 128,-1,72
 564 302 564 302 547 309 c 128,-1,73
 530 316 530 316 507.5 320 c 128,-1,74
 485 324 485 324 458 324 c 0,75,76
 432 324 432 324 409 320 c 128,-1,77
 386 316 386 316 369 309 c 128,-1,78
 352 302 352 302 342.5 292.5 c 128,-1,79
 333 283 333 283 333 272 c 256,60,61
253 461 m 256,80,81
 253 478 253 478 268.5 493.5 c 128,-1,82
 284 509 284 509 312 520 c 128,-1,83
 340 531 340 531 377.5 537.5 c 128,-1,84
 415 544 415 544 458 544 c 0,85,86
 502 544 502 544 539.5 537.5 c 128,-1,87
 577 531 577 531 604.5 520 c 128,-1,88
 632 509 632 509 648 493.5 c 128,-1,89
 664 478 664 478 664 461 c 256,90,91
 664 444 664 444 648 429 c 128,-1,92
 632 414 632 414 604.5 402.5 c 128,-1,93
 577 391 577 391 539.5 384.5 c 128,-1,94
 502 378 502 378 458 378 c 0,95,96
 415 378 415 378 377.5 384.5 c 128,-1,97
 340 391 340 391 312 402.5 c 128,-1,98
 284 414 284 414 268.5 429 c 128,-1,99
 253 444 253 444 253 461 c 256,80,81
333 461 m 256,100,101
 333 450 333 450 342.5 440.5 c 128,-1,102
 352 431 352 431 369 424 c 128,-1,103
 386 417 386 417 409 413 c 128,-1,104
 432 409 432 409 458 409 c 0,105,106
 485 409 485 409 507.5 413 c 128,-1,107
 530 417 530 417 547 424 c 128,-1,108
 564 431 564 431 573.5 440.5 c 128,-1,109
 583 450 583 450 583 461 c 256,110,111
 583 472 583 472 573.5 481.5 c 128,-1,112
 564 491 564 491 547 498 c 128,-1,113
 530 505 530 505 507.5 509 c 128,-1,114
 485 513 485 513 458 513 c 0,115,116
 432 513 432 513 409 509 c 128,-1,117
 386 505 386 505 369 498 c 128,-1,118
 352 491 352 491 342.5 481.5 c 128,-1,119
 333 472 333 472 333 461 c 256,100,101
253 648 m 256,120,121
 253 665 253 665 268.5 680.5 c 128,-1,122
 284 696 284 696 312 707 c 128,-1,123
 340 718 340 718 377.5 724.5 c 128,-1,124
 415 731 415 731 458 731 c 0,125,126
 502 731 502 731 539.5 724.5 c 128,-1,127
 577 718 577 718 604.5 707 c 128,-1,128
 632 696 632 696 648 680.5 c 128,-1,129
 664 665 664 665 664 648 c 256,130,131
 664 631 664 631 648 616 c 128,-1,132
 632 601 632 601 604.5 589.5 c 128,-1,133
 577 578 577 578 539.5 571.5 c 128,-1,134
 502 565 502 565 458 565 c 0,135,136
 415 565 415 565 377.5 571.5 c 128,-1,137
 340 578 340 578 312 589.5 c 128,-1,138
 284 601 284 601 268.5 616 c 128,-1,139
 253 631 253 631 253 648 c 256,120,121
EndSplineSet
EndChar

StartChar: uni0089
Encoding: 137 137 106
Width: 917
Flags: W
LayerCount: 2
Fore
SplineSet
253 85 m 0,0,1
 253 103 253 103 268.5 118 c 128,-1,2
 284 133 284 133 312 144.5 c 128,-1,3
 340 156 340 156 377.5 162.5 c 128,-1,4
 415 169 415 169 458 169 c 0,5,6
 502 169 502 169 539.5 162.5 c 128,-1,7
 577 156 577 156 604.5 144.5 c 128,-1,8
 632 133 632 133 648 118 c 128,-1,9
 664 103 664 103 664 85 c 0,10,11
 664 68 664 68 648 53 c 128,-1,12
 632 38 632 38 604.5 27 c 128,-1,13
 577 16 577 16 539.5 9.5 c 128,-1,14
 502 3 502 3 458 3 c 0,15,16
 415 3 415 3 377.5 9.5 c 128,-1,17
 340 16 340 16 312 27 c 128,-1,18
 284 38 284 38 268.5 53 c 128,-1,19
 253 68 253 68 253 85 c 0,0,1
253 272 m 0,20,21
 253 290 253 290 268.5 305 c 128,-1,22
 284 320 284 320 312 331.5 c 128,-1,23
 340 343 340 343 377.5 349 c 128,-1,24
 415 355 415 355 458 355 c 0,25,26
 502 355 502 355 539.5 349 c 128,-1,27
 577 343 577 343 604.5 331.5 c 128,-1,28
 632 320 632 320 648 305 c 128,-1,29
 664 290 664 290 664 272 c 0,30,31
 664 255 664 255 648 240 c 128,-1,32
 632 225 632 225 604.5 214 c 128,-1,33
 577 203 577 203 539.5 196 c 128,-1,34
 502 189 502 189 458 189 c 0,35,36
 415 189 415 189 377.5 196 c 128,-1,37
 340 203 340 203 312 214 c 128,-1,38
 284 225 284 225 268.5 240 c 128,-1,39
 253 255 253 255 253 272 c 0,20,21
333 272 m 256,40,41
 333 261 333 261 342.5 251.5 c 128,-1,42
 352 242 352 242 369 235 c 128,-1,43
 386 228 386 228 409 224 c 128,-1,44
 432 220 432 220 458 220 c 0,45,46
 485 220 485 220 507.5 224 c 128,-1,47
 530 228 530 228 547 235 c 128,-1,48
 564 242 564 242 573.5 251.5 c 128,-1,49
 583 261 583 261 583 272 c 256,50,51
 583 283 583 283 573.5 292.5 c 128,-1,52
 564 302 564 302 547 309 c 128,-1,53
 530 316 530 316 507.5 320 c 128,-1,54
 485 324 485 324 458 324 c 0,55,56
 432 324 432 324 409 320 c 128,-1,57
 386 316 386 316 369 309 c 128,-1,58
 352 302 352 302 342.5 292.5 c 128,-1,59
 333 283 333 283 333 272 c 256,40,41
253 461 m 256,60,61
 253 478 253 478 268.5 493.5 c 128,-1,62
 284 509 284 509 312 520 c 128,-1,63
 340 531 340 531 377.5 537.5 c 128,-1,64
 415 544 415 544 458 544 c 0,65,66
 502 544 502 544 539.5 537.5 c 128,-1,67
 577 531 577 531 604.5 520 c 128,-1,68
 632 509 632 509 648 493.5 c 128,-1,69
 664 478 664 478 664 461 c 256,70,71
 664 444 664 444 648 429 c 128,-1,72
 632 414 632 414 604.5 402.5 c 128,-1,73
 577 391 577 391 539.5 384.5 c 128,-1,74
 502 378 502 378 458 378 c 0,75,76
 415 378 415 378 377.5 384.5 c 128,-1,77
 340 391 340 391 312 402.5 c 128,-1,78
 284 414 284 414 268.5 429 c 128,-1,79
 253 444 253 444 253 461 c 256,60,61
333 461 m 256,80,81
 333 450 333 450 342.5 440.5 c 128,-1,82
 352 431 352 431 369 424 c 128,-1,83
 386 417 386 417 409 413 c 128,-1,84
 432 409 432 409 458 409 c 0,85,86
 485 409 485 409 507.5 413 c 128,-1,87
 530 417 530 417 547 424 c 128,-1,88
 564 431 564 431 573.5 440.5 c 128,-1,89
 583 450 583 450 583 461 c 256,90,91
 583 472 583 472 573.5 481.5 c 128,-1,92
 564 491 564 491 547 498 c 128,-1,93
 530 505 530 505 507.5 509 c 128,-1,94
 485 513 485 513 458 513 c 0,95,96
 432 513 432 513 409 509 c 128,-1,97
 386 505 386 505 369 498 c 128,-1,98
 352 491 352 491 342.5 481.5 c 128,-1,99
 333 472 333 472 333 461 c 256,80,81
253 648 m 256,100,101
 253 665 253 665 268.5 680.5 c 128,-1,102
 284 696 284 696 312 707 c 128,-1,103
 340 718 340 718 377.5 724.5 c 128,-1,104
 415 731 415 731 458 731 c 0,105,106
 502 731 502 731 539.5 724.5 c 128,-1,107
 577 718 577 718 604.5 707 c 128,-1,108
 632 696 632 696 648 680.5 c 128,-1,109
 664 665 664 665 664 648 c 256,110,111
 664 631 664 631 648 616 c 128,-1,112
 632 601 632 601 604.5 589.5 c 128,-1,113
 577 578 577 578 539.5 571.5 c 128,-1,114
 502 565 502 565 458 565 c 0,115,116
 415 565 415 565 377.5 571.5 c 128,-1,117
 340 578 340 578 312 589.5 c 128,-1,118
 284 601 284 601 268.5 616 c 128,-1,119
 253 631 253 631 253 648 c 256,100,101
EndSplineSet
EndChar

StartChar: uni008A
Encoding: 138 138 107
Width: 917
Flags: W
LayerCount: 2
Fore
SplineSet
253 85 m 0,0,1
 253 103 253 103 268.5 118 c 128,-1,2
 284 133 284 133 312 144.5 c 128,-1,3
 340 156 340 156 377.5 162.5 c 128,-1,4
 415 169 415 169 458 169 c 0,5,6
 502 169 502 169 539.5 162.5 c 128,-1,7
 577 156 577 156 604.5 144.5 c 128,-1,8
 632 133 632 133 648 118 c 128,-1,9
 664 103 664 103 664 85 c 0,10,11
 664 68 664 68 648 53 c 128,-1,12
 632 38 632 38 604.5 27 c 128,-1,13
 577 16 577 16 539.5 9.5 c 128,-1,14
 502 3 502 3 458 3 c 0,15,16
 415 3 415 3 377.5 9.5 c 128,-1,17
 340 16 340 16 312 27 c 128,-1,18
 284 38 284 38 268.5 53 c 128,-1,19
 253 68 253 68 253 85 c 0,0,1
333 85 m 256,20,21
 333 74 333 74 342.5 64.5 c 128,-1,22
 352 55 352 55 369 48.5 c 128,-1,23
 386 42 386 42 409 38 c 128,-1,24
 432 34 432 34 458 34 c 0,25,26
 485 34 485 34 507.5 38 c 128,-1,27
 530 42 530 42 547 48.5 c 128,-1,28
 564 55 564 55 573.5 64.5 c 128,-1,29
 583 74 583 74 583 85 c 256,30,31
 583 96 583 96 573.5 105.5 c 128,-1,32
 564 115 564 115 547 122 c 128,-1,33
 530 129 530 129 507.5 133 c 128,-1,34
 485 137 485 137 458 137 c 0,35,36
 432 137 432 137 409 133 c 128,-1,37
 386 129 386 129 369 122 c 128,-1,38
 352 115 352 115 342.5 105.5 c 128,-1,39
 333 96 333 96 333 85 c 256,20,21
253 272 m 0,40,41
 253 290 253 290 268.5 305 c 128,-1,42
 284 320 284 320 312 331.5 c 128,-1,43
 340 343 340 343 377.5 349 c 128,-1,44
 415 355 415 355 458 355 c 0,45,46
 502 355 502 355 539.5 349 c 128,-1,47
 577 343 577 343 604.5 331.5 c 128,-1,48
 632 320 632 320 648 305 c 128,-1,49
 664 290 664 290 664 272 c 0,50,51
 664 255 664 255 648 240 c 128,-1,52
 632 225 632 225 604.5 214 c 128,-1,53
 577 203 577 203 539.5 196 c 128,-1,54
 502 189 502 189 458 189 c 0,55,56
 415 189 415 189 377.5 196 c 128,-1,57
 340 203 340 203 312 214 c 128,-1,58
 284 225 284 225 268.5 240 c 128,-1,59
 253 255 253 255 253 272 c 0,40,41
253 461 m 256,60,61
 253 478 253 478 268.5 493.5 c 128,-1,62
 284 509 284 509 312 520 c 128,-1,63
 340 531 340 531 377.5 537.5 c 128,-1,64
 415 544 415 544 458 544 c 0,65,66
 502 544 502 544 539.5 537.5 c 128,-1,67
 577 531 577 531 604.5 520 c 128,-1,68
 632 509 632 509 648 493.5 c 128,-1,69
 664 478 664 478 664 461 c 256,70,71
 664 444 664 444 648 429 c 128,-1,72
 632 414 632 414 604.5 402.5 c 128,-1,73
 577 391 577 391 539.5 384.5 c 128,-1,74
 502 378 502 378 458 378 c 0,75,76
 415 378 415 378 377.5 384.5 c 128,-1,77
 340 391 340 391 312 402.5 c 128,-1,78
 284 414 284 414 268.5 429 c 128,-1,79
 253 444 253 444 253 461 c 256,60,61
333 461 m 256,80,81
 333 450 333 450 342.5 440.5 c 128,-1,82
 352 431 352 431 369 424 c 128,-1,83
 386 417 386 417 409 413 c 128,-1,84
 432 409 432 409 458 409 c 0,85,86
 485 409 485 409 507.5 413 c 128,-1,87
 530 417 530 417 547 424 c 128,-1,88
 564 431 564 431 573.5 440.5 c 128,-1,89
 583 450 583 450 583 461 c 256,90,91
 583 472 583 472 573.5 481.5 c 128,-1,92
 564 491 564 491 547 498 c 128,-1,93
 530 505 530 505 507.5 509 c 128,-1,94
 485 513 485 513 458 513 c 0,95,96
 432 513 432 513 409 509 c 128,-1,97
 386 505 386 505 369 498 c 128,-1,98
 352 491 352 491 342.5 481.5 c 128,-1,99
 333 472 333 472 333 461 c 256,80,81
253 648 m 256,100,101
 253 665 253 665 268.5 680.5 c 128,-1,102
 284 696 284 696 312 707 c 128,-1,103
 340 718 340 718 377.5 724.5 c 128,-1,104
 415 731 415 731 458 731 c 0,105,106
 502 731 502 731 539.5 724.5 c 128,-1,107
 577 718 577 718 604.5 707 c 128,-1,108
 632 696 632 696 648 680.5 c 128,-1,109
 664 665 664 665 664 648 c 256,110,111
 664 631 664 631 648 616 c 128,-1,112
 632 601 632 601 604.5 589.5 c 128,-1,113
 577 578 577 578 539.5 571.5 c 128,-1,114
 502 565 502 565 458 565 c 0,115,116
 415 565 415 565 377.5 571.5 c 128,-1,117
 340 578 340 578 312 589.5 c 128,-1,118
 284 601 284 601 268.5 616 c 128,-1,119
 253 631 253 631 253 648 c 256,100,101
EndSplineSet
EndChar

